<svg width="75" height="75" viewBox="0 0 75 75" fill="none" xmlns="http://www.w3.org/2000/svg">
<path fill-rule="evenodd" clip-rule="evenodd" d="M37.5 11.25C23.01 11.25 11.25 23.01 11.25 37.5C11.25 51.99 23.01 63.75 37.5 63.75C51.99 63.75 63.75 51.99 63.75 37.5C63.75 23.01 51.99 11.25 37.5 11.25ZM34.875 24.375V29.625H40.125V24.375H34.875ZM40.125 48C40.125 49.4437 38.9438 50.625 37.5 50.625C36.0562 50.625 34.875 49.4437 34.875 48V37.5C34.875 36.0562 36.0562 34.875 37.5 34.875C38.9438 34.875 40.125 36.0562 40.125 37.5V48ZM16.5 37.5C16.5 49.0762 25.9238 58.5 37.5 58.5C49.0762 58.5 58.5 49.0762 58.5 37.5C58.5 25.9238 49.0762 16.5 37.5 16.5C25.9238 16.5 16.5 25.9238 16.5 37.5Z" fill="black"/>
</svg>
