<svg width="75" height="75" viewBox="0 0 75 75" fill="none" xmlns="http://www.w3.org/2000/svg">
<path fill-rule="evenodd" clip-rule="evenodd" d="M27.7283 44.9597C29.9718 44.9597 31.7168 43.1826 31.7168 41.0806C31.7168 38.9786 29.9718 37.2016 27.7283 37.2016C25.4848 37.2016 23.7399 38.9786 23.7399 41.0806C23.7399 43.1826 25.4848 44.9597 27.7283 44.9597ZM27.7283 47.9436C31.5831 47.9436 34.7081 44.8709 34.7081 41.0806C34.7081 37.2904 31.5831 34.2177 27.7283 34.2177C23.8735 34.2177 20.7486 37.2904 20.7486 41.0806C20.7486 44.8709 23.8735 47.9436 27.7283 47.9436Z" fill="black"/>
<path fill-rule="evenodd" clip-rule="evenodd" d="M47.4711 44.9597C49.7146 44.9597 51.4595 43.1826 51.4595 41.0806C51.4595 38.9786 49.7146 37.2016 47.4711 37.2016C45.2276 37.2016 43.4827 38.9786 43.4827 41.0806C43.4827 43.1826 45.2276 44.9597 47.4711 44.9597ZM47.4711 47.9436C51.3259 47.9436 54.4509 44.8709 54.4509 41.0806C54.4509 37.2904 51.3259 34.2177 47.4711 34.2177C43.6163 34.2177 40.4913 37.2904 40.4913 41.0806C40.4913 44.8709 43.6163 47.9436 47.4711 47.9436Z" fill="black"/>
<path d="M28.0947 52.9701C27.4667 52.4412 26.5275 52.517 25.9929 53.1412C25.4564 53.7677 25.5305 54.7094 26.1586 55.2446L26.1868 55.2682C26.1997 55.2789 26.2161 55.2923 26.2362 55.3083C26.2762 55.3402 26.3304 55.3824 26.3987 55.4334C26.5355 55.5354 26.7291 55.6725 26.9797 55.8327C27.4809 56.153 28.2105 56.5659 29.1687 56.9742C31.0888 57.7923 33.9141 58.5861 37.6347 58.586C41.3563 58.586 44.1213 57.7918 45.9857 56.9656C46.9155 56.5536 47.6162 56.136 48.0965 55.8102C48.3366 55.6474 48.5217 55.5075 48.6528 55.4026L48.8859 55.2052C49.4921 54.6455 49.5287 53.7016 48.9677 53.0969C48.4092 52.4949 47.4689 52.456 46.8624 53.0077C46.8617 53.0082 46.8608 53.009 46.8596 53.0101C46.8583 53.0112 46.8567 53.0126 46.8547 53.0143C46.8427 53.0247 46.8185 53.0451 46.782 53.0743C46.709 53.1326 46.5869 53.2258 46.4145 53.3427C46.0699 53.5764 45.5249 53.9048 44.7713 54.2387C43.2689 54.9045 40.9162 55.6022 37.6347 55.6022C34.3522 55.6022 31.9252 54.904 30.3438 54.2302C29.5512 53.8925 28.9677 53.5594 28.5935 53.3203C28.4064 53.2007 28.2718 53.1047 28.1897 53.0435C28.1487 53.0129 28.1208 52.991 28.1061 52.9793C28.103 52.9768 28.1005 52.9748 28.0986 52.9732C28.0968 52.9718 28.0955 52.9707 28.0947 52.9701Z" fill="black"/>
<path fill-rule="evenodd" clip-rule="evenodd" d="M21.7457 28.25C16.2388 28.25 11.7746 32.5042 11.7746 37.9973C9.44743 37.9973 7.21552 38.9195 5.56999 40.561C3.92447 42.2023 3 44.4286 3 46.75C3 49.0714 3.92447 51.2977 5.56999 52.939C7.21517 54.5802 9.44844 55.5023 11.7751 55.5027C11.7754 55.4862 11.7759 55.4697 11.7765 55.5027C11.7819 55.7783 11.7986 56.0511 11.826 56.3207C12.3367 61.3362 16.583 65.25 21.7457 65.25H53.2543C58.7612 65.25 63.2254 60.9958 63.2254 55.5027C65.5526 55.5027 67.7844 54.5805 69.43 52.9391C71.0755 51.2976 72 49.0714 72 46.75C72 44.4286 71.0755 42.2024 69.43 40.5609C67.7844 38.9195 65.5526 37.9973 63.2254 37.9973C63.2254 32.5042 58.7612 28.25 53.2543 28.25H39.0954V23.2957C42.1814 22.5862 44.4798 19.8635 44.4798 16.6129C44.4798 12.8226 41.3548 9.75 37.5 9.75C33.6452 9.75 30.5202 12.8226 30.5202 16.6129C30.5202 19.9331 32.9181 22.7026 36.104 23.3385V28.25H21.7457ZM53.2543 31.2339H21.7457C17.8908 31.2339 14.7659 34.351 14.7659 38.1962V55.3038C14.7659 59.149 17.8908 62.2661 21.7457 62.2661H53.2543C57.1092 62.2661 60.2341 59.149 60.2341 55.3038V38.1962C60.2341 34.351 57.1092 31.2339 53.2543 31.2339ZM37.5 20.4919C39.7435 20.4919 41.4884 18.7149 41.4884 16.6129C41.4884 14.5109 39.7435 12.7339 37.5 12.7339C35.2565 12.7339 33.5116 14.5109 33.5116 16.6129C33.5116 18.7149 35.2565 20.4919 37.5 20.4919ZM5.99133 46.75C5.99133 49.9361 8.5806 52.5188 11.7746 52.5188V40.9812C8.5806 40.9812 5.99133 43.5639 5.99133 46.75ZM69.0087 46.75C69.0087 43.564 66.4194 40.9812 63.2254 40.9812V52.5188C66.4194 52.5188 69.0087 49.936 69.0087 46.75Z" fill="black"/>
<path fill-rule="evenodd" clip-rule="evenodd" d="M27.7283 47.9436C31.5831 47.9436 34.7081 44.8709 34.7081 41.0806C34.7081 37.2904 31.5831 34.2177 27.7283 34.2177C23.8735 34.2177 20.7486 37.2904 20.7486 41.0806C20.7486 44.8709 23.8735 47.9436 27.7283 47.9436ZM47.4711 47.9436C51.3259 47.9436 54.4509 44.8709 54.4509 41.0806C54.4509 37.2904 51.3259 34.2177 47.4711 34.2177C43.6163 34.2177 40.4913 37.2904 40.4913 41.0806C40.4913 44.8709 43.6163 47.9436 47.4711 47.9436ZM25.9929 53.1412C26.5275 52.517 27.4667 52.4412 28.0947 52.9701L28.0986 52.9732L28.1061 52.9793C28.1208 52.991 28.1487 53.0129 28.1897 53.0435C28.2718 53.1047 28.4064 53.2007 28.5935 53.3203C28.9677 53.5594 29.5512 53.8925 30.3438 54.2302C31.9252 54.904 34.3522 55.6022 37.6347 55.6022C40.9162 55.6022 43.2689 54.9045 44.7713 54.2387C45.5249 53.9048 46.0699 53.5764 46.4145 53.3427C46.5869 53.2258 46.709 53.1326 46.782 53.0743C46.8185 53.0451 46.8427 53.0247 46.8547 53.0143L46.8596 53.0101L46.8624 53.0077C47.4689 52.456 48.4092 52.4949 48.9677 53.0969C49.5287 53.7016 49.4921 54.6455 48.8859 55.2052L48.6528 55.4026C48.5217 55.5075 48.3366 55.6474 48.0965 55.8102C47.6162 56.136 46.9155 56.5536 45.9857 56.9656C44.1213 57.7918 41.3563 58.586 37.6347 58.586C33.9141 58.5861 31.0888 57.7923 29.1687 56.9742C28.2105 56.5659 27.4809 56.153 26.9797 55.8327C26.7291 55.6725 26.5355 55.5354 26.3987 55.4334C26.3304 55.3824 26.2762 55.3402 26.2362 55.3083C26.2161 55.2923 26.1997 55.2789 26.1868 55.2682L26.1586 55.2446C25.5305 54.7094 25.4564 53.7677 25.9929 53.1412ZM27.7283 44.9597C29.9718 44.9597 31.7168 43.1826 31.7168 41.0806C31.7168 38.9786 29.9718 37.2016 27.7283 37.2016C25.4848 37.2016 23.7399 38.9786 23.7399 41.0806C23.7399 43.1826 25.4848 44.9597 27.7283 44.9597ZM51.4595 41.0806C51.4595 43.1826 49.7146 44.9597 47.4711 44.9597C45.2276 44.9597 43.4827 43.1826 43.4827 41.0806C43.4827 38.9786 45.2276 37.2016 47.4711 37.2016C49.7146 37.2016 51.4595 38.9786 51.4595 41.0806Z" fill="black"/>
</svg>
