<svg width="75" height="75" viewBox="0 0 75 75" fill="none" xmlns="http://www.w3.org/2000/svg">
<path d="M11.301 29.4732V12H63.3987V43.3463H33.1768V39.3951H48.4635V37.2878H54.6133V39.3951H59.0938V16.039H15.518V25.0829L11.301 29.4732Z" fill="current"/>
<path d="M29.399 38.1659L28.6084 56.6049C28.6084 56.6049 28.5204 58.0976 26.8512 58.0976C25.1819 58.0976 25.0942 56.6049 25.0942 56.6049L24.0399 47.2976C24.0399 47.2976 24.0244 46.4195 22.8099 46.4195C21.5799 46.4195 21.58 47.2976 21.58 47.2976L20.7893 56.6049C20.7893 56.6049 20.7463 58.2732 19.0321 58.2732C17.3179 58.2732 17.2751 56.6049 17.2751 56.6049L16.3966 38.1659L13.761 42.5561C13.761 42.5561 13.1459 43.5219 12.0916 42.9951C10.9495 42.5561 11.301 41.4146 11.301 41.4146L13.761 32.722C13.761 32.722 14.0245 31.9317 14.5516 31.4049C15.0788 30.878 16.3966 30.878 16.3966 30.878H27.2027C27.2027 30.878 27.9159 30.8931 28.3448 30.7902C28.7736 30.6874 29.399 30.3512 29.399 30.3512L36.9545 25.7854C36.9545 25.7854 37.9209 25.0829 38.6238 25.7854C39.3266 26.4878 38.448 27.278 38.448 27.278L31.3318 33.9512C31.3318 33.9512 30.3036 34.9722 29.9262 35.7951C29.5488 36.6181 29.399 38.1659 29.399 38.1659Z" fill="current"/>
<path d="M28.0811 24.8195C28.0811 27.6321 25.7998 29.9122 22.9856 29.9122C20.1714 29.9122 17.89 27.6321 17.89 24.8195C17.89 22.0069 20.1714 19.7268 22.9856 19.7268C25.7998 19.7268 28.0811 22.0069 28.0811 24.8195Z" fill="current"/>
<path d="M39.6779 55.2C42.4921 55.2 44.7735 52.9199 44.7735 50.1073C44.7735 47.2947 42.4921 45.0146 39.6779 45.0146C36.8638 45.0146 34.5824 47.2947 34.5824 50.1073C34.5824 52.9199 36.8638 55.2 39.6779 55.2Z" fill="current"/>
<path d="M62.1686 50.1073C62.1686 52.9199 59.8873 55.2 57.0731 55.2C54.2588 55.2 51.9775 52.9199 51.9775 50.1073C51.9775 47.2947 54.2588 45.0146 57.0731 45.0146C59.8873 45.0146 62.1686 47.2947 62.1686 50.1073Z" fill="current"/>
<path d="M36.2516 56.2537C34.5534 56.2537 33.1767 57.6296 33.1767 59.3268V60.8634C33.1767 60.8634 33.1072 61.6208 33.5316 62.0451C33.9559 62.4694 34.7133 62.4 34.7133 62.4H44.8183C44.8183 62.4 45.5757 62.4694 46 62.0451C46.4243 61.6208 46.3549 60.8634 46.3549 60.8634V59.3268C46.3549 57.6296 44.9782 56.2537 43.28 56.2537H36.2516Z" fill="current"/>
<path d="M50.5718 59.3268C50.5718 57.6296 51.9485 56.2537 53.6467 56.2537H60.6751C62.3733 56.2537 63.75 57.6296 63.75 59.3268V60.8634C63.75 60.8634 63.7743 61.5757 63.35 62C62.9257 62.4243 62.2134 62.4 62.2134 62.4H52.1084C52.1084 62.4 51.3961 62.4243 50.9718 62C50.5475 61.5757 50.5718 60.8634 50.5718 60.8634V59.3268Z" fill="current"/>
<path d="M54.9646 22.361H41.7864V24.6439H54.9646V22.361Z" fill="current"/>
<path d="M41.7864 26.5756H54.9646V28.8585H41.7864V26.5756Z" fill="current"/>
<path d="M48.2877 30.7902H41.7864V33.0732H48.2877V30.7902Z" fill="current"/>
</svg>
