<?xml version="1.0" encoding="UTF-8"?>
<!-- Generated by Pixelmator Pro 3.6.17 -->
<svg width="5686" height="3906" viewBox="0 0 5686 3906" xmlns="http://www.w3.org/2000/svg">
    <g id="Flag">
        <g id="Group">
            <g id="g1">
                <path id="Path" fill="#ffffff" stroke="none" d="M 2992.830566 3037.229736 L 2992.830566 1804.339844 L 4818.619629 1804.339844 L 4818.619629 3037.229736 L 2992.830566 3037.229736 Z"/>
                <path id="path1" fill="#214f98" stroke="none" d="M 4796.346191 1826.589111 L 3015.108398 1826.589111 L 3015.108398 3014.955811 L 4796.346191 3014.955811 L 4796.346191 1826.589111 Z"/>
            </g>
            <path id="path2" fill="#fbf121" stroke="none" d="M 3904.832031 1955.727417 L 3921.797852 2008.469849 L 3977.097656 2008.187134 L 3932.171631 2040.558105 L 3949.517822 2093.17041 L 3904.832031 2060.408691 L 3860.26416 2093.17041 L 3877.620605 2040.558105 L 3832.651855 2008.187134 L 3887.919189 2008.469849 L 3904.832031 1955.727417 Z"/>
            <path id="path3" fill="#fbf121" stroke="none" d="M 3904.832031 2748.486572 L 3921.797852 2801.033691 L 3977.097656 2800.805908 L 3932.171631 2833.252197 L 3949.517822 2885.884766 L 3904.832031 2853.178223 L 3860.26416 2885.884766 L 3877.620605 2833.252197 L 3832.651855 2800.805908 L 3887.919189 2801.033691 L 3904.832031 2748.486572 Z"/>
            <path id="path4" fill="#fbf121" stroke="none" d="M 3707.674316 2008.46582 L 3724.587158 2061.141113 L 3779.897217 2060.990723 L 3735.101318 2093.241699 L 3752.404785 2145.809082 L 3707.674316 2113.102539 L 3663.106445 2145.809082 L 3680.397705 2093.241699 L 3635.636475 2060.990723 L 3690.914063 2061.141113 L 3707.674316 2008.46582 Z"/>
            <path id="path5" fill="#fbf121" stroke="none" d="M 3562.605957 2153.981934 L 3579.473877 2206.679688 L 3634.783936 2206.30127 L 3589.81543 2238.737305 L 3607.086182 2291.262207 L 3562.605957 2258.510742 L 3517.995361 2291.262207 L 3535.329346 2238.737305 L 3490.242676 2206.30127 L 3545.737793 2206.679688 L 3562.605957 2153.981934 Z"/>
            <path id="path6" fill="#fbf121" stroke="none" d="M 3509.084229 2351.725586 L 3525.822021 2404.270508 L 3581.262207 2404 L 3536.336426 2436.458496 L 3553.477051 2488.938477 L 3509.084229 2456.189209 L 3464.428711 2488.938477 L 3481.817627 2436.458496 L 3436.796143 2404 L 3492.128662 2404.270508 L 3509.084229 2351.725586 Z"/>
            <path id="path7" fill="#fbf121" stroke="none" d="M 3561.973145 2549.343262 L 3578.938965 2602.226074 L 3634.088135 2601.802734 L 3589.249756 2634.196289 L 3606.681396 2686.763672 L 3561.973145 2653.87207 L 3517.342285 2686.763672 L 3534.751465 2634.196289 L 3489.750244 2601.890137 L 3545.040039 2602.226074 L 3561.973145 2549.343262 Z"/>
            <path id="path8" fill="#fbf121" stroke="none" d="M 3707.674316 2694.797852 L 3724.587158 2747.475586 L 3779.897217 2747.225098 L 3735.101318 2779.53125 L 3752.404785 2832.121094 L 3707.674316 2799.457031 L 3663.106445 2832.121094 L 3680.397705 2779.53125 L 3635.636475 2747.225098 L 3690.914063 2747.475586 L 3707.674316 2694.797852 Z"/>
            <path id="path9" fill="#fbf121" stroke="none" d="M 4102.258301 2008.46582 L 4085.36792 2061.141113 L 4029.925537 2060.990723 L 4074.916748 2093.241699 L 4057.592773 2145.809082 L 4102.258301 2113.102539 L 4146.803711 2145.809082 L 4129.577637 2093.241699 L 4174.371582 2060.990723 L 4119.266602 2061.141113 L 4102.258301 2008.46582 Z"/>
            <path id="path10" fill="#fbf121" stroke="none" d="M 4247.42627 2153.981934 L 4230.513672 2206.679688 L 4175.116211 2206.30127 L 4220.0625 2238.737305 L 4202.695801 2291.262207 L 4247.42627 2258.510742 L 4292.112305 2291.262207 L 4274.723145 2238.737305 L 4319.519043 2206.30127 L 4264.251953 2206.679688 L 4247.42627 2153.981934 Z"/>
            <path id="path11" fill="#fbf121" stroke="none" d="M 4300.972656 2351.725586 L 4284.05957 2404.270508 L 4228.641602 2404 L 4273.610352 2436.458496 L 4256.26416 2488.938477 L 4300.972656 2456.189209 L 4345.593262 2488.938477 L 4328.334473 2436.458496 L 4373.06543 2404 L 4317.797852 2404.270508 L 4300.972656 2351.725586 Z"/>
            <path id="path12" fill="#fbf121" stroke="none" d="M 4247.774414 2549.343262 L 4231.12207 2602.226074 L 4175.724121 2601.802734 L 4220.705078 2634.196289 L 4203.293945 2686.763672 L 4247.774414 2653.87207 L 4292.655273 2686.763672 L 4275.289063 2634.196289 L 4320.225098 2601.890137 L 4264.827637 2602.226074 L 4247.774414 2549.343262 Z"/>
            <path id="path13" fill="#fbf121" stroke="none" d="M 4102.258301 2694.797852 L 4085.36792 2747.475586 L 4029.925537 2747.225098 L 4074.916748 2779.53125 L 4057.592773 2832.121094 L 4102.258301 2799.457031 L 4146.803711 2832.121094 L 4129.577637 2779.53125 L 4174.371582 2747.225098 L 4119.266602 2747.475586 L 4102.258301 2694.797852 Z"/>
            <path id="path14" fill="#6c787f" stroke="none" d="M 3298.724365 1589.746338 L 3298.724365 1491.506104 C 3262.939453 1460.870605 3120.109131 1399.562744 3033.034424 1380.310303 L 3033.034424 1449.497803 C 3132.619385 1473.9646 3256.693604 1545.982178 3298.724365 1589.746338"/>
            <path id="path15" fill="#6c787f" stroke="none" d="M 3371.136475 1736.389404 L 3455.759766 1736.389404 C 3458.3396 1612.422852 3357.682373 1535.646729 3343.273926 1524.544434 L 3343.273926 1642.667969 C 3375.622559 1695.052246 3371.136475 1736.389404 3371.136475 1736.389404"/>
            <path id="path16" fill="#6c787f" stroke="none" d="M 3581.718018 1486.851318 L 3581.718018 1593.493896 C 3624.247314 1638.01709 3649.766113 1672.859863 3670.029785 1736.887939 L 3759.596924 1736.887939 C 3735.691406 1639.003662 3678.745605 1558.964355 3581.718018 1486.851318"/>
            <path id="path17" fill="#6c787f" stroke="none" d="M 3527.168945 1545.326904 L 3527.168945 1449.243408 C 3444.950439 1396.067627 3282.45459 1323.216064 3120.101074 1289.359863 L 3120.101074 1358.266357 C 3276.080322 1396.067627 3441.892578 1476.898438 3527.168945 1545.326904"/>
            <path id="path18" fill="#6c787f" stroke="none" d="M 3757.4729 1487.003906 L 3757.4729 1391.929443 C 3658.852295 1329.744629 3455.812744 1242.810303 3216.117432 1192.216309 L 3216.117432 1261.00293 C 3446.240234 1316.605957 3620.865967 1395.906738 3757.4729 1487.003906"/>
            <path id="path19" fill="#6c787f" stroke="none" d="M 3821.230225 1432.385498 C 3821.099854 1432.320313 3820.97998 1534.605225 3820.97998 1534.605225 C 3883.911133 1584.560303 3944.740967 1650.321777 3985.306885 1736.897949 L 4080.426025 1736.897949 C 4047.88208 1629.181152 3926.159668 1498.590332 3821.230225 1432.385498"/>
            <path id="path20" fill="#6c787f" stroke="none" d="M 4014.379883 1427.822021 L 4014.379883 1332.702881 C 3825.76709 1221.106201 3543.001465 1123.061279 3318.485596 1083.47998 L 3318.485596 1152.061279 C 3572.111084 1202.948242 3874.194336 1328.279785 4014.379883 1427.822021"/>
            <path id="path21" fill="#6c787f" stroke="none" d="M 4319.405273 1736.891846 L 4419.067383 1736.891846 C 4347.397949 1565.334229 4167.966797 1427.836426 4084.13501 1375.476318 L 4084.13501 1476.371582 C 4211.039063 1570.428711 4257.969238 1637.642578 4319.405273 1736.891846"/>
            <path id="path22" fill="#6c787f" stroke="none" d="M 4267.191406 1367.737061 L 4267.191406 1269.226318 C 4114.408203 1175.712402 3805.267334 1035.797363 3428.867676 963.283447 L 3428.867676 1034.855469 C 3715.232422 1094.360596 4080.422119 1236.45459 4267.191406 1367.737061"/>
            <path id="path23" fill="#6c787f" stroke="none" d="M 4642.726563 1736.891846 L 4751.700684 1736.891846 C 4630.910156 1531.31543 4492.633301 1413.775879 4343.288086 1316.597656 L 4343.288086 1419.846924 C 4453.995605 1497.577148 4572.662598 1613.489014 4642.726563 1736.891846"/>
            <path id="path24" fill="#6c787f" stroke="none" d="M 2961.676025 1430.206543 L 2961.676025 1365.236572 C 2863.59668 1346.816162 2691.312744 1335.044678 2615.576172 1344.909912 L 2615.576172 1395.82959 C 2729.276611 1389.898926 2896.726563 1411.039551 2961.676025 1430.206543"/>
            <path id="path25" fill="#6c787f" stroke="none" d="M 2539.327148 1400.464111 L 2539.327148 1351.85376 C 2357.403564 1370.85791 2232.613281 1433.378418 2160.435059 1486.704834 L 2160.435059 1528.517822 C 2263.499023 1445.324951 2406.284668 1410.882813 2539.327148 1400.464111"/>
            <path id="path26" fill="#6c787f" stroke="none" d="M 2118.367676 1572.139648 L 2118.389893 1524.829346 C 1951.025513 1712.856201 2160.441162 1869.44397 2182.686523 1885.05481 L 2182.686523 1820.756348 C 2065.647461 1732.293945 2079.394531 1624.481445 2118.367676 1572.139648"/>
            <path id="path27" fill="#6c787f" stroke="none" d="M 2246.044922 1860.595947 L 2246.044922 1929.545288 C 2359.69043 1992.444092 2474.062256 2032.208496 2636.751465 2061.36084 L 2635.604004 1967.910034 C 2525.036621 1961.210327 2373.057129 1929.675537 2246.044922 1860.595947"/>
            <path id="path28" fill="#6c787f" stroke="none" d="M 2691.0625 1970.847778 L 2690.586426 2068.04834 C 2785.768799 2075.962402 2875.520996 2078.347168 2924.544434 2078.293945 L 2924.544434 1968.941528 C 2852.33374 1973.807983 2718.447021 1974.729614 2691.0625 1970.847778"/>
            <path id="path29" fill="#6c787f" stroke="none" d="M 3048.736572 1341.508301 L 3048.736572 1275.238281 C 2931.655029 1251.518066 2704.557373 1233.836182 2570.054199 1246.388916 L 2570.054199 1297.949463 C 2747.574951 1291.390137 2923.199463 1314.081055 3048.736572 1341.508301"/>
            <path id="path30" fill="#6c787f" stroke="none" d="M 2575.398926 2248.755127 L 2575.398926 2144.692383 C 2401.184082 2129.287109 2133.35791 2068.491699 1967.047241 1946.378784 L 1967.047241 2015.771729 C 2149.424316 2153.342773 2437.892822 2229.610352 2575.398926 2248.755127"/>
            <path id="path31" fill="#6c787f" stroke="none" d="M 1903.900269 1963.676147 L 1903.900269 1894.956665 C 1756.331421 1754.620605 1785.148193 1611.877686 1880.428101 1519.901855 L 1880.428101 1476.906494 C 1697.269775 1643.239502 1764.365723 1844.523438 1903.900269 1963.676147"/>
            <path id="path32" fill="#6c787f" stroke="none" d="M 2636.576416 2150.276855 L 2636.576416 2258.036621 C 2742.61084 2272.933105 2834.531738 2277.724609 2924.53418 2277.724609 L 2924.53418 2158.80957 C 2827.529053 2159.35083 2679.65918 2154.321533 2636.576416 2150.276855"/>
            <path id="path33" fill="#6c787f" stroke="none" d="M 1929.801514 1436.405762 L 1929.801514 1476.908691 C 2088.513184 1358.817871 2326.538086 1311.214355 2493.825439 1302.150635 L 2493.825439 1252.661377 C 2286.633301 1266.190918 2048.641113 1345.601563 1929.801514 1436.405762"/>
            <path id="path34" fill="#6c787f" stroke="none" d="M 1671.547485 2026.697021 L 1671.547485 2101.184326 C 1899.229004 2306.490234 2273.828125 2418.304688 2500.12207 2457.342773 L 2500.12207 2341.290527 C 2291.61792 2317.905762 1914.817383 2237.097412 1671.547485 2026.697021"/>
            <path id="path35" fill="#6c787f" stroke="none" d="M 3144.759277 1243.949707 L 3144.759277 1178.536133 C 2997.678711 1151.758057 2743.404297 1122.532471 2505.293945 1144.322021 L 2505.293945 1196.140869 C 2705.417969 1182.210449 2987.868408 1208.229736 3144.759277 1243.949707"/>
            <path id="path36" fill="#6c787f" stroke="none" d="M 2567.112305 2348.838379 L 2567.112305 2468.913086 C 2668.052246 2489.109375 2834.082031 2498.498779 2924.550537 2501.804688 L 2924.550537 2367.983398 C 2870.593262 2369.869141 2634.423828 2356.319336 2567.112305 2348.838379"/>
            <path id="path37" fill="#6c787f" stroke="none" d="M 2428.920654 1200.962646 L 2428.920654 1150.618652 C 2251.918701 1165.849121 1935.416748 1228.890137 1725.459839 1370.982178 L 1725.459839 1411.778076 C 1929.811646 1272.621826 2246.032715 1210.872559 2428.920654 1200.962646"/>
            <path id="path38" fill="#6c787f" stroke="none" d="M 1667.844727 1453.255371 L 1667.844727 1411.765869 C 1571.783569 1484.226807 1336.263062 1728.452881 1608.903076 2037.616211 L 1608.903076 1962.618286 C 1548.311401 1894.873291 1402.012207 1675.429443 1667.844727 1453.255371"/>
            <path id="path39" fill="#6c787f" stroke="none" d="M 3247.123291 1136.696533 L 3247.123291 1069.547852 C 3068.864014 1034.574707 2721.669678 1004.32959 2448.693848 1031.095703 L 2448.693848 1083.001953 C 2690.014648 1064.333252 3033.327393 1091.544922 3247.123291 1136.696533"/>
            <path id="path40" fill="#6c787f" stroke="none" d="M 2492.838623 2554.520996 L 2492.838623 2681.533203 C 2627.244141 2707.682617 2794.628906 2723.879395 2924.526123 2728.290039 L 2924.526123 2584.169922 C 2769.108154 2581.524902 2635.103516 2574.153809 2492.838623 2554.520996"/>
            <path id="path41" fill="#6c787f" stroke="none" d="M 2419.468262 2669.521484 L 2419.468262 2546.616699 C 2045.81311 2493.776855 1634.137085 2357.680664 1379.005981 2107.578613 L 1379.005981 2186.836914 C 1681.252075 2487.890869 2182.603027 2626.699219 2419.468262 2669.521484"/>
            <path id="path42" fill="#6c787f" stroke="none" d="M 1519.032837 1299.052246 L 1519.032837 1339.03418 C 1768.819214 1180.049805 2111.0271 1111.69873 2372.424316 1088.531738 L 2372.424316 1037.945801 C 2121.0979 1059.737305 1753.068115 1145.326904 1519.032837 1299.052246"/>
            <path id="path43" fill="#6c787f" stroke="none" d="M 1315.962769 2110.02002 L 1315.962769 2028.355103 C 1218.176392 1894.989258 1122.223022 1631.986816 1460.146118 1380.139404 L 1460.146118 1339.02002 C 1080.615356 1610.402588 1175.201538 1942.547852 1315.962769 2110.02002"/>
            <path id="path44" fill="#6c787f" stroke="none" d="M 1053.879883 2161.316162 L 1053.879883 2249.855957 C 1340.602661 2621.777588 1932.61731 2840.720703 2300.722412 2918.28833 L 2300.722412 2782.473145 C 1913.971069 2717.004639 1326.334717 2527.535156 1053.879883 2161.316162"/>
            <path id="path45" fill="#6c787f" stroke="none" d="M 3356.709961 1019.486816 L 3356.709961 949.778564 C 3180.491211 912.964111 2752.065186 865.468506 2374.821045 904.734619 L 2374.821045 958.311279 C 2690.250732 930.54834 3088.362793 964.424805 3356.709961 1019.486816"/>
            <path id="path46" fill="#6c787f" stroke="none" d="M 2298.604492 964.817627 L 2298.604492 912.433105 C 1971.207764 945.855957 1564.768555 1059.078125 1327.264526 1214.290527 L 1327.264526 1255.798584 C 1625.628784 1072.825439 2021.618774 991.009766 2298.604492 964.817627"/>
            <path id="path47" fill="#6c787f" stroke="none" d="M 2380.674316 2795.434814 L 2380.674316 2934.654053 C 2464.756348 2956.075195 2783.827881 3001.727539 2924.53418 3002.832275 L 2924.53418 2843.221191 C 2709.761719 2836.413818 2490.460205 2813.094238 2380.674316 2795.434814"/>
            <path id="path48" fill="#6c787f" stroke="none" d="M 1263.252808 1297.94751 L 1263.252808 1255.796631 C 1167.169312 1317.743164 712.217285 1659.320313 991.697266 2152.238281 L 991.697266 2052.836426 C 816.896606 1689.469727 1083.335449 1425.773438 1263.252808 1297.94751"/>
        </g>
    </g>
</svg>
