<svg xmlns="http://www.w3.org/2000/svg" viewBox="0 0 80 44"><path fill="#fff" d="M43.8 19.5H80v24.1H43.8z"/><path fill="#0d4f9e" d="M44.3 20h35.2v23.2H44.3z"/><path d="m61.9 22.1.3 1.1h1.1l-.9.6.4 1.1-.9-.6-.9.6.3-1.1-.9-.6h1.1zm0 16.1.3 1.1h1.1l-.9.6.4 1.1-.9-.7-.9.7.3-1.1-.9-.6h1.1zm-4-15 .3 1.1h1.1l-.9.6.4 1.1-.9-.7-.9.7.3-1.1-.9-.6h1.1zm-3 3 .4 1h1.1l-.9.7.3 1-.9-.6-.9.6.4-1-1-.7h1.2zm-1.1 4 .4 1h1.1l-.9.7.3 1.1-.9-.7-.9.7.4-1.1-.9-.7h1.1zm1.1 4 .3 1.1 1.2-.1-.9.7.3 1.1-.9-.7-.9.7.3-1.1-.9-.7 1.2.1zm3 2.9.3 1.1h1.1l-.9.7.4 1-.9-.6-.9.6.3-1-.9-.7h1.1zm8-13.9-.4 1.1h-1.1l.9.6L65 26l.9-.7.9.7-.4-1.1.9-.6h-1.1zm2.9 3-.3 1h-1.1l.9.7-.4 1 .9-.6.9.6-.3-1 .9-.7h-1.1zm1.1 4-.3 1h-1.2l1 .7L69 33l.9-.7.9.7-.3-1.1.9-.7h-1.2zm-1.1 4-.3 1.1-1.1-.1.9.7-.4 1.1.9-.7.9.7-.3-1.1.9-.7-1.1.1zm-2.9 2.9-.4 1.1h-1.1l.9.7-.3 1 .9-.6.9.6-.4-1 .9-.7h-1.1z" fill="#fbea26"/><path d="M49.6 14.7v-2c-.7-.6-3.6-1.9-5.4-2.3v1.4c2 .5 4.5 2 5.4 2.9zm1.4 3h1.7c.1-2.5-2-4.1-2.3-4.3v2.4c.7 1 .6 1.9.6 1.9zm4.3-5.1v2.2c.9.9 1.4 1.6 1.8 2.9h1.8c-.5-2-1.6-3.6-3.6-5.1zm-1.1 1.2v-2c-1.7-1.1-5-2.6-8.3-3.2V10c3.2.8 6.6 2.4 8.3 3.8zm4.7-1.2v-1.9c-2-1.3-6.1-3-11-4.1V8c4.7 1.1 8.2 2.8 11 4.6zm1.3-1.1v2.1c1.3 1 2.5 2.3 3.3 4.1h1.9c-.6-2.2-3.1-4.9-5.2-6.2zm3.9-.1V9.5C60.3 7.2 54.5 5.2 50 4.4v1.4c5.1 1 11.3 3.6 14.1 5.6zm6.2 6.3h2c-1.5-3.5-5.1-6.3-6.8-7.3v2.1c2.6 1.8 3.5 3.2 4.8 5.2zm-1.1-7.5v-2c-3.1-1.9-9.4-4.7-17-6.2v1.5c5.8 1.1 13.2 4 17 6.7zm7.7 7.5h2.2c-2.5-4.2-5.3-6.6-8.3-8.5v2.1c2.2 1.5 4.6 3.9 6.1 6.4zm-34.2-6.2v-1.3c-2-.4-5.5-.6-7-.4v1c2.3-.2 5.7.3 7 .7zm-8.6-.7v-1c-3.7.4-6.2 1.7-7.7 2.7v.8c2.1-1.5 5-2.2 7.7-2.5zm-8.5 3.5v-1c-3.4 3.8.9 7 1.3 7.3v-1.3c-2.4-1.7-2.1-3.9-1.3-5zm2.6 5.9v1.4c2.3 1.3 4.6 2.1 7.9 2.7v-1.9c-2.2-.2-5.3-.8-7.9-2.2zm9 2.2v2c1.9.2 3.8.2 4.8.2v-2.2c-1.5.1-4.2.1-4.8 0zm7.3-12.7V8.3c-2.4-.5-7-.8-9.7-.6v1c3.6-.1 7.1.4 9.7 1zm-9.6 18.4V26c-3.5-.3-9-1.5-12.4-4v1.4c3.7 2.7 9.6 4.3 12.4 4.7zm-13.7-5.8v-1.4c-3-2.9-2.4-5.7-.5-7.6v-.9c-3.7 3.4-2.3 7.5.5 9.9zm14.9 3.8v2.2c2.2.3 4 .4 5.8.4v-2.4c-1.9 0-4.9-.1-5.8-.2zM21.8 11.6v.8C25 10 29.8 9 33.2 8.9v-1c-4.2.2-9 1.8-11.4 3.7zm-5.3 12v1.5c4.6 4.2 12.2 6.4 16.8 7.2V30c-4.2-.5-11.8-2.2-16.8-6.4zM46.4 7.7V6.3c-3-.5-8.2-1.1-13-.7v1.1c4.1-.3 9.9.2 13 1zM34.7 30.1v2.4c2 .4 5.4.6 7.3.7v-2.7c-1.1 0-5.9-.2-7.3-.4zM31.9 6.8v-1c-3.6.3-10 1.6-14.3 4.5v.8C21.8 8.3 28.2 7 31.9 6.8zm-15.4 5.1v-.8c-1.9 1.5-6.7 6.4-1.2 12.7v-1.5c-1.3-1.4-4.2-5.9 1.2-10.4zm32-6.4V4.1c-3.6-.7-10.7-1.3-16.2-.8v1.1c4.9-.4 11.9.2 16.2 1.1zM33.2 34.3v2.6c2.7.5 6.1.9 8.8 1V35c-3.2-.2-5.9-.3-8.8-.7zm-1.5 2.3v-2.5c-7.6-1.1-15.9-3.8-21.1-8.9v1.6c6.1 6.1 16.3 8.9 21.1 9.8zM13.4 8.8v.8c5.1-3.2 12-4.6 17.3-5.1v-1c-5 .4-12.5 2.2-17.3 5.3zM9.3 25.3v-1.7c-2-2.7-3.9-8 2.9-13.2v-.8c-7.7 5.5-5.8 12.3-2.9 15.7zm-5.3 1v1.8c5.8 7.5 17.8 12 25.3 13.6v-2.8C21.4 37.6 9.5 33.7 4 26.3zM50.7 3.1V1.7C47.2.9 38.5 0 30.8.8v1.1c6.4-.6 14.5.1 19.9 1.2zM29.3 2V.9c-6.6.7-14.9 3-19.7 6.1v.8c6-3.6 14-5.3 19.7-5.8zm1.6 37.2V42c1.7.4 8.2 1.4 11 1.4v-3.2c-4.3-.2-8.7-.7-11-1zM8.2 8.8v-.9C6.3 9.2-3 16.1 2.7 26.1v-2C-.8 16.7 4.6 11.4 8.2 8.8z" fill="#677179"/></svg>