<svg width="75" height="75" viewBox="0 0 75 75" fill="none" xmlns="http://www.w3.org/2000/svg">
<path d="M47.7474 11.25H16.4684C14.0108 11.25 12 13.2608 12 15.7184V46.9974C12 49.455 14.0108 51.4658 16.4684 51.4658H36.7038C36.5777 50.54 36.5125 49.602 36.5125 48.658V46.9974H18.7027C17.4739 46.9974 16.4685 45.992 16.4685 44.7632V17.9526C16.4685 16.7238 17.4739 15.7184 18.7027 15.7184H45.5132C46.742 15.7184 47.7474 16.7238 47.7474 17.9526V33.4371L50.4725 32.2264C51.0184 31.9802 51.6249 31.8887 52.2158 31.9517V15.7184C52.2158 13.2608 50.205 11.25 47.7474 11.25Z" fill="black"/>
<path d="M38.5409 37.5275L40.1126 36.8292L37.3583 33.1676C36.9338 32.5867 36.0401 32.5867 35.5933 33.1676L30.3429 39.915L26.8575 35.7146C26.4107 35.1561 25.5617 35.1784 25.1148 35.737L21.2273 40.7193C20.6464 41.4566 21.1826 42.529 22.0986 42.529H36.5125V40.6467C36.5125 39.3002 37.3136 38.0729 38.5409 37.5275Z" fill="black"/>
<path fill-rule="evenodd" clip-rule="evenodd" d="M51.0419 37.5037L42.5519 41.2757C41.6786 41.6639 41.1086 42.5371 41.1086 43.4953V49.1957C41.1086 55.9271 45.766 62.2218 52.0243 63.75C58.2827 62.2218 62.94 55.9271 62.94 49.1957V43.4953C62.94 42.5371 62.37 41.6639 61.4967 41.2757L53.0067 37.5037C52.3882 37.2248 51.6605 37.2248 51.0419 37.5037ZM48.7375 55.6117L45.5962 52.4704C45.3691 52.2438 45.2414 51.9362 45.2414 51.6154C45.2414 51.2945 45.3691 50.9869 45.5962 50.7603C46.0692 50.2873 46.8333 50.2873 47.3063 50.7603L49.5986 53.0405L56.7302 45.9089C57.2032 45.4358 57.9673 45.4358 58.4403 45.9089C58.9133 46.3819 58.9133 47.146 58.4403 47.619L50.4476 55.6117C49.9867 56.0847 49.2105 56.0847 48.7375 55.6117Z" fill="black"/>
</svg>
