<svg width="75" height="75" viewBox="0 0 75 75" fill="none" xmlns="http://www.w3.org/2000/svg">
<path fill-rule="evenodd" clip-rule="evenodd" d="M36.1999 58.3193C36.1925 58.3148 36.1746 58.304 36.1459 58.2876C36.0803 58.2501 35.9583 58.1834 35.7775 58.0967C35.4163 57.9233 34.8183 57.6686 33.9644 57.4058C32.2595 56.8812 29.5135 56.3182 25.5682 56.3182C21.6229 56.3182 18.8769 56.8812 17.172 57.4058C16.318 57.6686 15.7201 57.9233 15.3588 58.0967C15.178 58.1834 15.056 58.2501 14.9905 58.2876C14.9607 58.3046 14.9426 58.3156 14.9357 58.3198C14.9332 58.3213 14.9314 58.3226 14.9357 58.3198C14.207 58.7929 13.2777 58.8329 12.5103 58.4222C11.7344 58.0069 11.25 57.1983 11.25 56.3182V22.9091C11.25 22.3928 11.4175 21.8903 11.7273 21.4773L13.6364 22.9091C11.7273 21.4773 11.7281 21.4762 11.7289 21.4751L11.7306 21.4729L11.7342 21.468L11.7426 21.457L11.7636 21.4298C11.7795 21.4094 11.7992 21.3844 11.8227 21.3553C11.8698 21.2971 11.9323 21.222 12.0106 21.1326C12.167 20.9538 12.3871 20.7168 12.6735 20.4419C13.246 19.8923 14.0875 19.187 15.2195 18.4904C17.4993 17.0874 20.9109 15.75 25.5682 15.75C30.2255 15.75 33.637 17.0874 35.9169 18.4904C36.5282 18.8665 37.0548 19.2453 37.5 19.6006C37.9452 19.2453 38.4718 18.8665 39.0831 18.4904C41.363 17.0874 44.7745 15.75 49.4318 15.75C54.0891 15.75 57.5007 17.0874 59.7805 18.4904C60.9125 19.187 61.754 19.8923 62.3265 20.4419C62.6129 20.7168 62.833 20.9538 62.9894 21.1326C63.0677 21.222 63.1302 21.2971 63.1773 21.3553C63.2008 21.3844 63.2205 21.4094 63.2364 21.4298L63.2574 21.457L63.2658 21.468L63.2694 21.4729L63.2711 21.4751C63.2719 21.4762 63.2727 21.4773 61.3636 22.9091L60.0477 58.3089L60.0541 58.3131L60.0632 58.319C60.0564 58.3148 60.0393 58.3046 60.0095 58.2876C59.944 58.2501 59.822 58.1834 59.6412 58.0967C59.2799 57.9233 58.682 57.6686 57.828 57.4058C56.1231 56.8812 53.3771 56.3182 49.4318 56.3182C45.4865 56.3182 42.7405 56.8812 41.0356 57.4058C40.1817 57.6686 39.5837 57.9233 39.2225 58.0967C39.0417 58.1834 38.9197 58.2501 38.8541 58.2876C38.8449 58.2928 38.8368 58.2975 38.8298 58.3016C38.815 58.3103 38.8052 58.3162 38.8002 58.3193C38.7778 58.3338 38.7552 58.348 38.7323 58.3618C38.6271 58.4252 38.518 58.4799 38.4062 58.5258C38.0834 58.6584 37.7395 58.7169 37.3988 58.7024C37.0019 58.6856 36.6093 58.5697 36.2595 58.3568C36.2394 58.3446 36.2195 58.3321 36.1999 58.3193ZM16.0227 52.7675V23.843C16.3846 23.5007 16.946 23.0319 17.7209 22.5551C19.3188 21.5717 21.8732 20.5227 25.5682 20.5227C29.2631 20.5227 31.8175 21.5717 33.4155 22.5551C34.1903 23.0319 34.7517 23.5007 35.1136 23.843V52.7675C32.9466 52.1282 29.8063 51.5455 25.5682 51.5455C21.33 51.5455 18.1897 52.1282 16.0227 52.7675ZM39.8864 52.7675C42.0534 52.1282 45.1937 51.5455 49.4318 51.5455C53.67 51.5455 56.8103 52.1282 58.9773 52.7675V23.843C58.6154 23.5007 58.054 23.0319 57.2791 22.5551C55.6812 21.5717 53.1268 20.5227 49.4318 20.5227C45.7369 20.5227 43.1825 21.5717 41.5845 22.5551C40.8097 23.0319 40.2483 23.5007 39.8864 23.843V52.7675ZM14.9601 58.3038L14.958 58.3051C14.959 58.3044 14.9601 58.3038 13.6364 56.3182L14.9601 58.3038Z" fill="black"/>
<path d="M60.0632 58.319L61.3636 22.9091L63.2727 21.4773C63.5825 21.8903 63.75 22.3928 63.75 22.9091V56.3182C63.75 57.1983 63.2656 58.0069 62.4897 58.4222C61.7223 58.8329 60.7919 58.7921 60.0632 58.319Z" fill="black"/>
</svg>
