<svg width="75" height="76" viewBox="0 0 75 76" fill="none" xmlns="http://www.w3.org/2000/svg">
<path d="M19.2273 47H25.3182V41H31.4091V35H25.3182V29H19.2273V35H13.1364V41H19.2273V47Z" fill="black"/>
<path d="M45.1136 47C47.6366 47 49.6818 44.9851 49.6818 42.5C49.6818 40.0149 47.6366 38 45.1136 38C42.5907 38 40.5455 40.0149 40.5455 42.5C40.5455 44.9851 42.5907 47 45.1136 47Z" fill="black"/>
<path d="M61.8636 33.5C61.8636 35.9851 59.8184 38 57.2955 38C54.7725 38 52.7273 35.9851 52.7273 33.5C52.7273 31.0149 54.7725 29 57.2955 29C59.8184 29 61.8636 31.0149 61.8636 33.5Z" fill="black"/>
<path fill-rule="evenodd" clip-rule="evenodd" d="M64.9091 20H10.0909C6.74098 20 4 22.7001 4 26V50C4 53.2999 6.74098 56 10.0909 56H64.9091C68.259 56 71 53.2999 71 50V26C71 22.7001 68.259 20 64.9091 20ZM64.9091 50H10.0909V26H64.9091V50Z" fill="black"/>
</svg>
