<?xml version="1.0" encoding="UTF-8" standalone="no"?>
<!-- Created with Inkscape (http://www.inkscape.org/) -->

<svg
   width="60.820858mm"
   height="15.364mm"
   viewBox="0 0 229.87412 58.068661"
   version="1.1"
   id="svg1"
   xml:space="preserve"
   xmlns="http://www.w3.org/2000/svg"
   xmlns:svg="http://www.w3.org/2000/svg"><defs
     id="defs1" /><g
     id="layer1"
     transform="translate(-144.09567,-187.28294)"><g
       style="fill:none"
       id="g1"
       transform="matrix(2.233413,0,0,2.233413,144.09568,187.28281)"><path
         d="M 0,0.143677 H 2.79114 V 12.5251 H 0 Z"
         fill="#999999"
         id="path1" /><path
         d="M 5.5658,3.44793 C 6.14212,3.29087 6.72736,3.16837 7.31837,3.08108 8.06463,2.96564 8.81883,2.90882 9.57401,2.91113 10.2539,2.89577 10.9307,3.00645 11.57,3.23753 c 0.4911,0.18021 0.9265,0.4852 1.263,0.88478 0.3174,0.39568 0.5436,0.85614 0.6627,1.34874 0.1371,0.57335 0.2034,1.16127 0.1974,1.75067 V 12.525 H 11.0237 V 7.55351 c 0,-0.8578 -0.1136,-1.46564 -0.3408,-1.8235 C 10.4557,5.37214 10.032,5.19231 9.41173,5.19051 9.22061,5.19051 9.01776,5.1995 8.8032,5.21748 8.58863,5.23547 8.39751,5.25615 8.22982,5.27953 V 12.525 H 5.5658 Z"
         fill="#999999"
         id="path2" /><path
         d="M 20.0843,12.5251 C 19.5902,11.4857 19.1034,10.4067 18.6238,9.28815 18.1442,8.16959 17.688,7.06272 17.2552,5.96755 16.8225,4.86697 16.4249,3.81945 16.0625,2.82498 15.7001,1.8305 15.3873,0.936737 15.124,0.143677 h 3.0779 c 0.2326,0.719329 0.4904,1.490813 0.7735,2.314443 0.2831,0.82363 0.5724,1.64726 0.8681,2.47089 l 0.8493,2.35491 c 0.2704,0.7517 0.5292,1.40089 0.7762,1.94758 0.2326,-0.53949 0.4877,-1.18689 0.7654,-1.94219 0.2777,-0.75529 0.5635,-1.54206 0.8574,-2.3603 0.2921,-0.81643 0.5806,-1.63827 0.8654,-2.4655 0.2849,-0.82723 0.5437,-1.600504 0.7763,-2.319833 h 2.975 c -0.2777,0.789464 -0.5977,1.684133 -0.9601,2.683993 -0.3624,0.99987 -0.7591,2.04739 -1.19,3.14257 -0.4292,1.09698 -0.8799,2.20475 -1.3523,3.3233 -0.4724,1.11856 -0.9566,2.19756 -1.4524,3.23696 z"
         fill="#333333"
         id="path3" /><path
         d="m 29.3882,0.143677 h 2.7965 V 12.5251 h -2.7965 z"
         fill="#333333"
         id="path4" /><path
         d="m 45.9972,6.3264 c 0.021,0.95894 -0.1491,1.91249 -0.5003,2.80538 -0.3067,0.76298 -0.7906,1.44252 -1.4118,1.98262 -0.6574,0.5468 -1.4233,0.9485 -2.2475,1.1788 -0.9674,0.2739 -1.9695,0.4066 -2.9751,0.3939 -0.5012,0 -1.0863,-0.0207 -1.7553,-0.0621 -0.6617,-0.0444 -1.3196,-0.1345 -1.9689,-0.2697 V 0.305612 C 35.8044,0.184426 36.4773,0.104249 37.1532,0.0655359 37.8456,0.0223762 38.4433,7.96273e-4 38.9464,7.96273e-4 39.9218,-0.0105384 40.8942,0.109228 41.8376,0.356864 c 0.8146,0.212539 1.5744,0.59603 2.2286,1.124856 0.6316,0.5283 1.123,1.20369 1.4307,1.96646 0.3554,0.91714 0.5254,1.8953 0.5003,2.87822 z m -8.0732,3.9248 c 0.1317,0.0126 0.284,0.0216 0.4571,0.027 0.1731,0.0054 0.3787,0.0054 0.6167,0 1.3955,0 2.4305,-0.35156 3.1048,-1.0547 0.6744,-0.70315 1.0115,-1.67424 1.0115,-2.91329 0,-1.29839 -0.3218,-2.28117 -0.9655,-2.94835 -0.6437,-0.66718 -1.6642,-0.99537 -3.0616,-0.98458 -0.1911,0 -0.3877,0 -0.5896,0 -0.1918,0.00565 -0.3831,0.02095 -0.5734,0.04586 z"
         fill="#333333"
         id="path5" /><path
         fill-rule="evenodd"
         clip-rule="evenodd"
         d="m 16.6035,14.0093 c 0.7789,-0.4882 13.2985,5.0929 13.2985,5.9884 0,0.9442 -12.6224,6.3095 -13.2985,5.9885 -0.6059,-0.2914 -0.7276,-11.521 0,-11.9769 z"
         fill="#f2c94c"
         fill-opacity="0.7"
         id="path6" /><path
         fill-rule="evenodd"
         clip-rule="evenodd"
         d="m 32.7016,13.9682 c 0.7789,-0.4802 13.2985,5.0928 13.2985,5.9938 0,0.9441 -12.6223,6.3094 -13.2985,5.9884 -0.6058,-0.2994 -0.7275,-11.5263 0,-11.9822 z"
         fill="#6fcf97"
         fill-opacity="0.7"
         id="path7" /><path
         fill-rule="evenodd"
         clip-rule="evenodd"
         d="M 0.508873,14.009 C 1.2878,13.5235 13.7938,19.1019 13.7938,19.9974 c 0,0.9441 -12.6223,6.3094 -13.29845,5.9884 C -0.0996604,25.6945 -0.218663,14.4649 0.508873,14.009 Z"
         fill="#eb5757"
         fill-opacity="0.7"
         id="path8" /></g><g
       style="fill:none"
       id="g2"
       transform="translate(273.96979,187.28301)"><path
         d="m 14.4354,46.5745 1.9587,-10.7083 h 4.0816 l -3.6242,17.077 H 12.5823 L 10.2952,43.2084 8.05503,52.9432 H 3.79752 L 0.161621,35.8662 H 4.25493 L 6.21362,46.5745 8.55936,35.8662 h 3.49514 z"
         fill="#ffa215"
         id="path1-7" /><path
         d="m 27.8205,53.1778 c -1.947,0 -3.5226,-0.5786 -4.7267,-1.7359 -1.2042,-1.165 -1.8062,-2.678 -1.8062,-4.539 v -0.3284 c 0,-1.2979 0.2385,-2.4434 0.7154,-3.4365 0.4848,-0.993 1.1885,-1.7593 2.1112,-2.2988 0.9226,-0.5473 2.0173,-0.821 3.284,-0.821 1.7828,0 3.1902,0.5552 4.2223,1.6655 1.0322,1.1025 1.5482,2.6428 1.5482,4.6211 v 1.5364 h -7.8582 c 0.1408,0.7116 0.4496,1.2706 0.9266,1.6772 0.4769,0.4066 1.0947,0.6099 1.8531,0.6099 1.2511,0 2.2285,-0.4378 2.9322,-1.3136 l 1.8062,2.1346 c -0.4926,0.6803 -1.1924,1.2237 -2.0994,1.6303 -0.8992,0.3988 -1.8688,0.5982 -2.9087,0.5982 z M 27.3748,43.0677 c -1.1573,0 -1.8454,0.7662 -2.0643,2.2988 h 3.9878 v -0.305 c 0.0156,-0.6333 -0.1447,-1.122 -0.4809,-1.4661 -0.3362,-0.3518 -0.8171,-0.5277 -1.4426,-0.5277 z"
         fill="#ffa215"
         id="path2-9" /><path
         d="m 41.7333,48.2986 3.4013,-12.4324 h 4.5976 l -5.747,17.077 h -4.5038 l -5.7002,-17.077 h 4.5625 z"
         fill="#ffa215"
         id="path3-3" /><path
         d="m 56.5844,53.1778 c -1.947,0 -3.5226,-0.5786 -4.7267,-1.7359 -1.2041,-1.165 -1.8062,-2.678 -1.8062,-4.539 v -0.3284 c 0,-1.2979 0.2385,-2.4434 0.7154,-3.4365 0.4848,-0.993 1.1885,-1.7593 2.1112,-2.2988 0.9227,-0.5473 2.0173,-0.821 3.284,-0.821 1.7828,0 3.1902,0.5552 4.2224,1.6655 1.0321,1.1025 1.5481,2.6428 1.5481,4.6211 v 1.5364 h -7.8582 c 0.1408,0.7116 0.4496,1.2706 0.9266,1.6772 0.477,0.4066 1.0947,0.6099 1.8531,0.6099 1.2511,0 2.2285,-0.4378 2.9322,-1.3136 l 1.8062,2.1346 c -0.4926,0.6803 -1.1924,1.2237 -2.0994,1.6303 -0.8992,0.3988 -1.8688,0.5982 -2.9087,0.5982 z M 56.1387,43.0677 c -1.1573,0 -1.8453,0.7662 -2.0643,2.2988 h 3.9878 v -0.305 c 0.0156,-0.6333 -0.1447,-1.122 -0.4809,-1.4661 -0.3362,-0.3518 -0.8171,-0.5277 -1.4426,-0.5277 z"
         fill="#ffa215"
         id="path4-8" /><path
         d="m 71.3651,43.83 -1.3019,-0.0938 c -1.2432,0 -2.0408,0.3909 -2.3927,1.1729 v 8.0341 H 63.718 V 40.2528 h 3.7062 l 0.1291,1.6303 c 0.6646,-1.2433 1.5912,-1.8649 2.7797,-1.8649 0.4222,0 0.7897,0.0469 1.1025,0.1407 z"
         fill="#ffa215"
         id="path5-0" /><path
         d="M 77.1147,52.9432 H 73.1504 V 40.2528 h 3.9643 z M 72.9159,36.9805 c 0,-0.563 0.2032,-1.0243 0.6098,-1.384 0.4066,-0.3597 0.9344,-0.5395 1.5834,-0.5395 0.649,0 1.1768,0.1798 1.5834,0.5395 0.4066,0.3597 0.6099,0.821 0.6099,1.384 0,0.5629 -0.2033,1.0243 -0.6099,1.3839 -0.4066,0.3597 -0.9344,0.5396 -1.5834,0.5396 -0.649,0 -1.1768,-0.1799 -1.5834,-0.5396 -0.4066,-0.3596 -0.6098,-0.821 -0.6098,-1.3839 z"
         fill="#ffa215"
         id="path6-2" /><path
         d="m 80.589,52.9432 v -9.9459 h -1.8414 v -2.7445 h 1.8414 v -1.0087 c 0,-1.4465 0.4261,-2.5686 1.2784,-3.3661 0.8523,-0.7976 2.0486,-1.1964 3.589,-1.1964 0.563,0 1.1807,0.0821 1.8531,0.2463 l 0.0118,2.9088 c -0.2424,-0.0704 -0.5669,-0.1056 -0.9735,-0.1056 -1.1963,0 -1.7945,0.5161 -1.7945,1.5482 v 0.9735 h 2.4747 v 2.7445 h -2.4747 v 9.9459 z"
         fill="#ffa215"
         id="path7-4" /><path
         d="m 93.6456,47.4073 2.1112,-7.1545 h 4.234 l -5.1723,14.8133 -0.2229,0.5395 c -0.735,1.642 -2.0329,2.463 -3.8939,2.463 -0.5161,0 -1.0595,-0.0781 -1.6303,-0.2345 v -2.8266 h 0.5161 c 0.5551,0 0.9774,-0.0821 1.2667,-0.2463 0.2971,-0.1564 0.516,-0.4418 0.6568,-0.8562 l 0.3167,-0.8445 -4.41,-12.8077 H 91.64 Z"
         fill="#ffa215"
         id="path8-8" /><path
         d="m 30.8627,4.00339 c 0,1.08136 -0.4287,2.06258 -1.1254,2.78295 L 32.09,9.86318 c 1.1015,-0.80766 2.4607,-1.28462 3.9313,-1.28462 3.6756,0 6.6552,2.97964 6.6552,6.65524 0,3.0195 -2.0109,5.5694 -4.7666,6.3835 l 0.5496,7.8956 11.2472,-6.3773 c -0.4816,-1.1081 -0.7486,-2.331 -0.7486,-3.6163 0,-5.0155 4.0659,-9.0814 9.0815,-9.0814 5.0155,0 9.0814,4.0659 9.0814,9.0814 0,3.1121 -1.5654,5.8585 -3.9517,7.4949 l 1.8874,2.4111 6.4176,-14.1496 c -1.1999,-0.6118 -2.0216,-1.8591 -2.0216,-3.2983 0,-2.04337 1.6565,-3.69988 3.6999,-3.69988 2.0435,0 3.7,1.65651 3.7,3.69988 0,0.1372 -0.0075,0.2726 -0.022,0.4058 l 3.7039,0.7786 c 1.1129,-4.24609 4.9763,-7.37858 9.5714,-7.37858 5.4644,0 9.8941,4.42968 9.8941,9.89408 0,5.4643 -4.4297,9.8941 -9.8941,9.8941 -5.4643,0 -9.8941,-4.4298 -9.8941,-9.8941 0,-0.6374 0.0603,-1.2608 0.1755,-1.8647 l -3.6888,-0.7753 c -0.4557,1.5269 -1.8708,2.6401 -3.5459,2.6401 -0.3677,0 -0.7229,-0.0537 -1.0582,-0.1536 l -6.8847,15.1795 -2.6071,-3.3305 c -1.3408,0.7807 -2.8997,1.2279 -4.563,1.2279 -3.4924,0 -6.5244,-1.9713 -8.0438,-4.862 l -12.1284,6.877 -0.6153,-8.8402 c -0.3989,0.0746 -0.8103,0.1136 -1.2308,0.1136 -3.6756,0 -6.6553,-2.9797 -6.6553,-6.6553 0,-1.9651 0.8517,-3.7313 2.2061,-4.9495 l -2.338,-3.05756 c -0.6644,0.49026 -1.4857,0.78004 -2.3748,0.78004 -0.7089,0 -1.3748,-0.18426 -1.9523,-0.50751 L 16.8325,19.5937 c 1.154,0.563 2.2182,1.3173 3.1434,2.2424 2.1944,2.1945 3.4273,5.1709 3.4273,8.2743 H 0 c 0,-3.1034 1.23284,-6.0798 3.42732,-8.2743 2.19447,-2.1944 5.17081,-3.4273 8.27428,-3.4273 1.5652,0 3.0982,0.3136 4.5147,0.9061 L 24.3539,7.12604 C 23.4406,6.3923 22.856,5.26612 22.856,4.00339 22.856,1.79238 24.6483,0 26.8593,0 c 2.2111,0 4.0034,1.79238 4.0034,4.00339 z"
         fill="#00bcd4"
         id="path9" /></g></g></svg>
