<svg width="46" height="26" viewBox="0 0 46 26" fill="none" xmlns="http://www.w3.org/2000/svg">
<path d="M0 0.143677H2.79114V12.5251H0V0.143677Z" fill="#999999"/>
<path d="M5.5658 3.44793C6.14212 3.29087 6.72736 3.16837 7.31837 3.08108C8.06463 2.96564 8.81883 2.90882 9.57401 2.91113C10.2539 2.89577 10.9307 3.00645 11.57 3.23753C12.0611 3.41774 12.4965 3.72273 12.833 4.12231C13.1504 4.51799 13.3766 4.97845 13.4957 5.47105C13.6328 6.0444 13.6991 6.63232 13.6931 7.22172V12.525H11.0237V7.55351C11.0237 6.69571 10.9101 6.08787 10.6829 5.73001C10.4557 5.37214 10.032 5.19231 9.41173 5.19051C9.22061 5.19051 9.01776 5.1995 8.8032 5.21748C8.58863 5.23547 8.39751 5.25615 8.22982 5.27953V12.525H5.5658V3.44793Z" fill="#999999"/>
<path d="M20.0843 12.5251C19.5902 11.4857 19.1034 10.4067 18.6238 9.28815C18.1442 8.16959 17.688 7.06272 17.2552 5.96755C16.8225 4.86697 16.4249 3.81945 16.0625 2.82498C15.7001 1.8305 15.3873 0.936737 15.124 0.143677H18.2019C18.4345 0.863006 18.6923 1.63449 18.9754 2.45812C19.2585 3.28175 19.5478 4.10538 19.8435 4.92901L20.6928 7.28392C20.9632 8.03562 21.222 8.68481 21.469 9.2315C21.7016 8.69201 21.9567 8.04461 22.2344 7.28931C22.5121 6.53402 22.7979 5.74725 23.0918 4.92901C23.3839 4.11258 23.6724 3.29074 23.9572 2.46351C24.2421 1.63628 24.5009 0.863006 24.7335 0.143677H27.7085C27.4308 0.933141 27.1108 1.82781 26.7484 2.82767C26.386 3.82754 25.9893 4.87506 25.5584 5.97024C25.1292 7.06722 24.6785 8.17499 24.2061 9.29354C23.7337 10.4121 23.2495 11.4911 22.7537 12.5305L20.0843 12.5251Z" fill="#333333"/>
<path d="M29.3882 0.143677H32.1847V12.5251H29.3882V0.143677Z" fill="#333333"/>
<path d="M45.9972 6.3264C46.0182 7.28534 45.8481 8.23889 45.4969 9.13178C45.1902 9.89476 44.7063 10.5743 44.0851 11.1144C43.4277 11.6612 42.6618 12.0629 41.8376 12.2932C40.8702 12.5671 39.8681 12.6998 38.8625 12.6871C38.3613 12.6871 37.7762 12.6664 37.1072 12.625C36.4455 12.5806 35.7876 12.4905 35.1383 12.3553V0.305612C35.8044 0.184426 36.4773 0.104249 37.1532 0.0655359C37.8456 0.0223762 38.4433 0.000796273 38.9464 0.000796273C39.9218 -0.0105384 40.8942 0.109228 41.8376 0.356864C42.6522 0.569403 43.412 0.952894 44.0662 1.48172C44.6978 2.01002 45.1892 2.68541 45.4969 3.44818C45.8523 4.36532 46.0223 5.34348 45.9972 6.3264ZM37.924 10.2512C38.0557 10.2638 38.208 10.2728 38.3811 10.2782C38.5542 10.2836 38.7598 10.2836 38.9978 10.2782C40.3933 10.2782 41.4283 9.92664 42.1026 9.2235C42.777 8.52035 43.1141 7.54926 43.1141 6.31021C43.1141 5.01182 42.7923 4.02904 42.1486 3.36186C41.5049 2.69468 40.4844 2.36649 39.087 2.37728C38.8959 2.37728 38.6993 2.37728 38.4974 2.37728C38.3056 2.38293 38.1143 2.39823 37.924 2.42314V10.2512Z" fill="#333333"/>
<path fill-rule="evenodd" clip-rule="evenodd" d="M16.6035 14.0093C17.3824 13.5211 29.902 19.1022 29.902 19.9977C29.902 20.9419 17.2796 26.3072 16.6035 25.9862C15.9976 25.6948 15.8759 14.4652 16.6035 14.0093Z" fill="#F2C94C" fill-opacity="0.7"/>
<path fill-rule="evenodd" clip-rule="evenodd" d="M32.7016 13.9682C33.4805 13.488 46.0001 19.061 46.0001 19.962C46.0001 20.9061 33.3778 26.2714 32.7016 25.9504C32.0958 25.651 31.9741 14.4241 32.7016 13.9682Z" fill="#6FCF97" fill-opacity="0.7"/>
<path fill-rule="evenodd" clip-rule="evenodd" d="M0.508873 14.009C1.2878 13.5235 13.7938 19.1019 13.7938 19.9974C13.7938 20.9415 1.1715 26.3068 0.49535 25.9858C-0.0996604 25.6945 -0.218663 14.4649 0.508873 14.009Z" fill="#EB5757" fill-opacity="0.7"/>
</svg>
