<svg width="75" height="75" viewBox="0 0 75 75" fill="none" xmlns="http://www.w3.org/2000/svg">
<path d="M38.67 15.9242C33.6997 10.9697 26.2567 9.95907 20.2726 12.8677L29.2487 21.8154C30.2131 22.7767 30.2131 24.3296 29.2487 25.2909L25.317 29.2102C24.3527 30.1961 22.7948 30.1961 21.8304 29.2102L12.8543 20.2625C9.96115 26.2523 10.975 33.6224 15.9452 38.5769C20.5446 43.1617 27.2705 44.3695 32.9826 42.225L52.6658 61.8458C55.2128 64.3847 59.3176 64.3847 61.8398 61.8458C64.3867 59.307 64.3867 55.2152 61.8398 52.701L42.2555 33.1541C44.5304 27.3861 43.3435 20.5829 38.67 15.9242Z" fill="black"/>
</svg>
