<?xml version="1.0" encoding="utf-8"?>
<!-- Generator: Adobe Illustrator 26.5.0, SVG Export Plug-In . SVG Version: 6.00 Build 0)  -->
<svg version="1.1" xmlns="http://www.w3.org/2000/svg" xmlns:xlink="http://www.w3.org/1999/xlink" x="0px" y="0px"
	 viewBox="0 0 261.5 200.2" style="enable-background:new 0 0 261.5 200.2;" xml:space="preserve">
<style type="text/css">
	.st0{opacity:0.4;}
	.st1{fill:#FFFFFF;}
	.st2{fill:none;stroke:#289E6C;stroke-width:2;stroke-miterlimit:10;}
	.st3{fill:#259A74;}
	.st4{fill:#289E6C;}
	.st5{fill:#3B3B3B;}
</style>
<g id="BG">
</g>
<g id="Ebene_1">
	<g>
		<g>
			<g>
				<g>
					<path class="st4" d="M221.5,116.6h-51.9c-4.8,0-9.2-2.6-11.6-6.7L132.1,65c-2.4-4.1-2.4-9.2,0-13.3L158,6.7
						c2.4-4.1,6.8-6.7,11.6-6.7h51.9c4.8,0,9.2,2.6,11.6,6.7L259,51.6c2.4,4.1,2.4,9.2,0,13.3L233,109.9
						C230.7,114,226.2,116.6,221.5,116.6z M169.6,2c-4,0-7.8,2.2-9.8,5.7l-25.9,44.9c-2,3.5-2,7.8,0,11.3l25.9,44.9
						c2,3.5,5.8,5.7,9.8,5.7h51.9c4,0,7.8-2.2,9.8-5.7L257.3,64c2-3.5,2-7.8,0-11.3L231.3,7.7c-2-3.5-5.8-5.7-9.8-5.7H169.6z"/>
				</g>
				<g>
					<path class="st4" d="M91.9,116.6H40c-4.8,0-9.2-2.6-11.6-6.7L2.5,65c-2.4-4.1-2.4-9.2,0-13.3L28.5,6.7C30.9,2.6,35.3,0,40,0
						h51.9c4.8,0,9.2,2.6,11.6,6.7l25.9,44.9c2.4,4.1,2.4,9.2,0,13.3l-25.9,44.9C101.1,114,96.7,116.6,91.9,116.6z M40,2
						c-4,0-7.8,2.2-9.8,5.7L4.3,52.6c-2,3.5-2,7.8,0,11.3l25.9,44.9c2,3.5,5.8,5.7,9.8,5.7h51.9c4,0,7.8-2.2,9.8-5.7L127.7,64
						c2-3.5,2-7.8,0-11.3L101.8,7.7C99.7,4.2,96,2,91.9,2H40z"/>
					<path class="st5" d="M105.7,35.4C105.7,35.4,105.7,35.4,105.7,35.4c0-0.2,0-0.3-0.1-0.4c0,0,0,0,0,0c0-0.1-0.1-0.1-0.1-0.2
						c0,0,0,0-0.1,0c0,0,0,0,0,0l-10.6-5.7c0,0,0,0,0,0c0,0,0,0,0,0c0,0,0,0,0,0c0,0,0,0-0.1,0L83.1,25c0,0-0.1,0-0.1,0
						c0,0,0,0-0.1,0c0,0,0,0,0,0L74,24.1c0,0,0,0-0.1,0l-15.4-0.2c0,0,0,0,0,0c0,0,0,0,0,0c0,0-0.1,0-0.1,0c-0.1,0-0.1,0-0.2,0
						l-24,12.3c0,0,0,0-0.1,0c0,0,0,0-0.1,0.1c-0.1,0.1-0.1,0.1-0.2,0.2c0,0,0,0,0,0c0,0,0,0,0,0c0,0,0,0,0,0l-7.5,22.1
						c0,0.1,0,0.2,0,0.3c0,0,0,0.1,0,0.1c0,0,0,0.1,0,0.1l3.4,9.1c0,0,0,0,0,0c0,0,0,0,0,0c0,0,0,0.1,0.1,0.1c0,0,0,0,0,0
						c0,0,0.1,0.1,0.1,0.1c0,0,0,0,0,0l0.1,0c0,0,0,0,0,0l32.7,23.8c0,0,0,0,0,0c0,0,0,0,0.1,0c0.1,0.1,0.2,0.1,0.3,0.1l0,0
						c0,0,0,0,0,0l0,0c0.1,0,0.1,0,0.2,0c0,0,0.1,0,0.1-0.1c0,0,0.1,0,0.1,0c0,0,0,0,0,0c0,0,0.1-0.1,0.1-0.1c0,0,0.1-0.1,0.1-0.1
						c0,0,0,0,0,0l8.1-15l23.6-9.3c0,0,0,0,0,0c0,0,0.1,0,0.1-0.1c0,0,0,0,0,0c0,0,0,0,0.1-0.1c0,0,0.1-0.1,0.1-0.1c0,0,0,0,0,0
						l9.6-17.5c0,0,0,0,0-0.1c0-0.1,0.1-0.1,0.1-0.2c0,0,0,0,0-0.1L105.7,35.4z M95.4,65.4l-3.3-12.1l11.2-2.4L95.4,65.4z
						 M34.8,38.4l9.9,11.2l-16.4,8.1L34.8,38.4z M81.3,26.2L70.8,36.4l3.7-10.8L81.3,26.2z M93.1,30.1L80.4,43.7l3-17.1L93.1,30.1z
						 M80.4,45.9l12.9-13.9l-2.6,19.6L80.4,45.9z M77.9,54.6l-6.8-13.3l7.4,5.1L77.9,54.6z M77.1,56.2L58,52.9l11-12.6L77.1,56.2z
						 M57,51.9l-3.5-15.7l14.3,3.2L57,51.9z M50.8,65.3l-3.9-14.3l8.8,2.9L50.8,65.3z M56.6,55.4l4.6,13l-9.5-1.5L56.6,55.4z
						 M51.9,68.4l9.2,1.5l-5.1,7.4L51.9,68.4z M54.6,77.8l-6-1.3l2.3-7.1L54.6,77.8z M62.7,68.2l-4.9-13.8l18.9,3.3L62.7,68.2z
						 M79.9,47.2l9.6,5.3l-10.3,3.6L79.9,47.2z M78.8,44.8l-8.5-5.9l11.5-11.2L78.8,44.8z M53.7,34.8l5-8.8l8.8,11.9L53.7,34.8z
						 M52.3,37.5l3.4,14.8l-8.8-2.9L52.3,37.5z M45.7,48.5l-9.6-11l15.3-1.5L45.7,48.5z M49.7,66.8L32,67.4l13.5-16L49.7,66.8z
						 M49.7,68.2L47.2,76l-13.9-7.2L49.7,68.2z M55.3,79.4l4.3,7.6L50,78.3L55.3,79.4z M62.5,70.4l7.2,5.8l-12.3,1.6L62.5,70.4z
						 M63.5,69.4l13.4-10.1l-5.9,16.3L63.5,69.4z M90.8,53.6L94,65.7l-13.9-8.4L90.8,53.6z M94.9,30.9l8.9,4.8L92.3,50.2L94.9,30.9z
						 M68.9,37.5L60,25.4l13,0.1L68.9,37.5z M52.1,34.6l-13.9,1.3l18.5-9.5L52.1,34.6z M43.1,52L30.7,66.7l-2.8-7.3L43.1,52z
						 M47.2,77.6l9.6,8.7L38.7,73.2L47.2,77.6z M63.2,90.3L63,90.1l-6-10.8l13.1-1.7L63.2,90.3z M78.8,58.2l14.8,8.9l-21,8.3
						L78.8,58.2z M104.1,49.2l-11,2.4l11.1-14.1L104.1,49.2z"/>
				</g>
				<path class="st5" d="M227.5,88.9l-14.7-14.7c0,0,0,0,0,0c10.5-11.2,10.3-28.8-0.6-39.7c-11.1-11.1-29.2-11.1-40.4,0
					c-11.1,11.1-11.1,29.2,0,40.4c5.6,5.6,12.9,8.3,20.2,8.3c7,0,14.1-2.6,19.5-7.7c0,0,0,0,0,0l14.7,14.7c0.2,0.2,0.4,0.3,0.6,0.3
					s0.5-0.1,0.6-0.3C227.8,89.9,227.8,89.3,227.5,88.9z M173,73.6c-10.4-10.4-10.4-27.4,0-37.8c5.2-5.2,12.1-7.8,18.9-7.8
					s13.7,2.6,18.9,7.8c10.4,10.4,10.4,27.4,0,37.8S183.4,84,173,73.6z"/>
			</g>
		</g>
		<g>
			<path class="st3" d="M211.8,191.8c-1.1,0-2,0.4-2.8,1.2c-0.8,0.8-1.2,1.7-1.2,2.9c0,1.1,0.4,2,1.2,2.8c0.8,0.8,1.7,1.2,2.8,1.2
				c1.1,0,2.1-0.4,2.8-1.2c0.8-0.8,1.2-1.7,1.2-2.8c0-1.1-0.4-2.1-1.2-2.9C213.8,192.2,212.9,191.8,211.8,191.8z"/>
			<path class="st3" d="M240.8,169.9c-2.4-1.4-5.1-2.1-8.1-2.1c-3,0-5.7,0.7-8.1,2.1c-2.4,1.4-4.3,3.3-5.7,5.7
				c-1.4,2.4-2.1,5.2-2.1,8.2c0,3,0.6,5.8,1.9,8.2c1.3,2.4,3,4.3,5.3,5.7c2.2,1.4,4.7,2.1,7.6,2.1c2.8,0,5.3-0.7,7.6-2.1
				c1.4-0.9,2.6-1.9,3.6-3.2v2.1c0,0.8,0.3,1.5,0.8,2.1c0.6,0.6,1.3,0.8,2.1,0.8c0.8,0,1.5-0.3,2.1-0.8c0.6-0.6,0.8-1.3,0.8-2.1
				v-12.9c0-3-0.7-5.8-2.1-8.2C245.1,173.3,243.2,171.3,240.8,169.9z M238,193.2c-1.5,0.9-3.3,1.4-5.2,1.4c-1.9,0-3.7-0.5-5.2-1.4
				c-1.6-0.9-2.8-2.2-3.7-3.9c-0.9-1.6-1.4-3.5-1.4-5.5c0-2.1,0.5-3.9,1.4-5.6c0.9-1.6,2.1-2.9,3.7-3.9c1.6-0.9,3.3-1.4,5.2-1.4
				c2,0,3.7,0.5,5.2,1.4c1.5,0.9,2.7,2.2,3.6,3.9c0.9,1.6,1.3,3.5,1.3,5.6c0,2-0.4,3.9-1.3,5.5C240.7,191,239.5,192.3,238,193.2z"/>
			<path class="st3" d="M257.3,168.1c-0.8,0-1.5,0.3-2.1,0.8c-0.6,0.5-0.8,1.2-0.8,2.1v25.7c0,0.8,0.3,1.5,0.8,2.1
				c0.6,0.6,1.3,0.8,2.1,0.8c0.9,0,1.6-0.3,2.1-0.8c0.5-0.6,0.8-1.3,0.8-2.1V171c0-0.9-0.3-1.6-0.8-2.1
				C258.9,168.3,258.2,168.1,257.3,168.1z"/>
			<path class="st3" d="M257.3,162.6c1,0,1.9-0.4,2.7-1.1c0.7-0.7,1.1-1.6,1.1-2.7c0-1-0.4-1.9-1.1-2.7c-0.7-0.7-1.6-1.1-2.7-1.1
				c-1,0-1.9,0.4-2.7,1.1c-0.7,0.7-1.1,1.6-1.1,2.7c0,1,0.4,1.9,1.1,2.7C255.4,162.2,256.3,162.6,257.3,162.6z"/>
		</g>
		<g>
			<path class="st5" d="M46.1,149.6c-0.9-0.4-1.9-0.5-2.8-0.2c-1,0.3-1.6,0.9-2,1.8l-16.9,36.9l-17-36.9c-0.5-0.9-1.2-1.4-2.1-1.8
				c-0.9-0.3-1.8-0.3-2.7,0.2c-1,0.5-1.6,1.2-2,2c-0.3,0.9-0.3,1.7,0.1,2.6l20,42.4c0.8,1.7,2,2.6,3.6,2.6c1.7,0,3-0.9,3.7-2.6
				l19.8-42.5c0.4-0.8,0.4-1.6,0.1-2.5C47.7,150.8,47,150.1,46.1,149.6z"/>
			<path class="st5" d="M89.5,151.9c-3.4-2.1-7.5-3.2-12.1-3.2c-4.8,0-8.9,1.1-12.6,3.3c-3.6,2.2-6.5,5.2-8.5,9
				c-2.1,3.8-3.1,8.2-3.1,13.2c0,4.9,1.1,9.3,3.3,13.2c2.2,3.8,5.2,6.8,9,9c3.8,2.2,8.3,3.2,13.2,3.2c2.8,0,5.8-0.5,8.9-1.6
				c3.1-1.1,5.7-2.5,7.7-4.2c0.9-0.7,1.3-1.5,1.2-2.4c0-0.9-0.5-1.8-1.4-2.6c-0.6-0.5-1.4-0.8-2.3-0.8c-0.9,0-1.8,0.3-2.5,0.9
				c-1.3,1.1-3,2-5.2,2.7c-2.2,0.7-4.3,1.1-6.3,1.1c-3.6,0-6.8-0.8-9.5-2.4c-2.8-1.6-4.9-3.8-6.5-6.6c-1.2-2.1-1.9-4.5-2.2-7h36.2
				c1,0,1.9-0.3,2.6-1c0.7-0.6,1-1.5,1-2.5c0-4.8-0.9-9-2.8-12.7C95.6,156.9,93,154,89.5,151.9z M68.3,158c2.6-1.6,5.6-2.4,9.1-2.4
				c3.3,0,6.1,0.8,8.5,2.3c2.4,1.5,4.2,3.6,5.5,6.3c0.9,1.9,1.5,4,1.7,6.3H60.6c0.3-2.1,0.9-4.1,1.8-5.9
				C63.8,161.8,65.7,159.6,68.3,158z"/>
			<path class="st5" d="M142.3,150.1c-1.6-0.9-4-1.4-7.1-1.4c-3.5,0-6.8,0.9-9.7,2.6c-2.3,1.3-4.2,3-5.8,5.1v-3.3
				c0-1.2-0.3-2.2-1-2.8c-0.6-0.7-1.6-1-2.8-1c-1.2,0-2.2,0.3-2.8,1c-0.7,0.7-1,1.6-1,2.8v42.3c0,1.2,0.3,2.2,1,2.8
				c0.7,0.7,1.6,1,2.8,1c1.2,0,2.1-0.3,2.8-1c0.6-0.7,1-1.6,1-2.8v-27.1c0-2.8,0.8-5.2,2.5-7.2c1.6-2,3.9-3.5,6.6-4.3
				c2.8-0.9,6-1.1,9.5-0.7c1,0.1,1.8,0.2,2.6,0.2c0.8,0,1.4-0.2,2-0.5c0.6-0.4,1-1,1.1-1.8C144.5,152.2,143.9,151,142.3,150.1z"/>
			<path class="st5" d="M195.8,161.2c-2.2-3.8-5.2-6.9-9-9.1c-3.8-2.2-8.1-3.3-12.9-3.3c-4.8,0-9,1.1-12.9,3.3
				c-3.8,2.2-6.9,5.3-9.1,9.1c-2.2,3.8-3.3,8.2-3.3,13.1c0,4.8,1.1,9.1,3.2,13c2.1,3.8,5,6.9,8.7,9.1c3.7,2.2,7.8,3.3,12.4,3.3
				c4.4,0,8.4-1.1,11.9-3.2c2.6-1.6,4.8-3.6,6.6-6v4.8c0,1.2,0.4,2.1,1.1,2.8c0.8,0.7,1.7,1.1,2.9,1.1c1.1,0,2-0.4,2.7-1.1
				c0.7-0.7,1.1-1.6,1.1-2.8v-21.1C199.1,169.4,198,165,195.8,161.2z M189.3,183.7c-1.6,2.8-3.7,5-6.3,6.6c-2.6,1.6-5.7,2.4-9.1,2.4
				c-3.4,0-6.4-0.8-9.1-2.4c-2.7-1.6-4.9-3.8-6.4-6.6c-1.6-2.8-2.4-5.9-2.4-9.4c0-3.5,0.8-6.7,2.4-9.5c1.6-2.8,3.7-5,6.4-6.6
				c2.7-1.6,5.7-2.5,9.1-2.5c3.4,0,6.4,0.8,9.1,2.5c2.6,1.6,4.8,3.9,6.3,6.6c1.6,2.8,2.3,5.9,2.3,9.5
				C191.6,177.7,190.8,180.9,189.3,183.7z"/>
		</g>
	</g>
</g>
<g id="Ebene_2">
</g>
</svg>
