<?xml version="1.0" encoding="utf-8"?>
<!-- Generator: Adobe Illustrator 26.5.0, SVG Export Plug-In . SVG Version: 6.00 Build 0)  -->
<svg version="1.1" xmlns="http://www.w3.org/2000/svg" xmlns:xlink="http://www.w3.org/1999/xlink" x="0px" y="0px"
	 viewBox="0 0 261.7 200.2" style="enable-background:new 0 0 261.7 200.2;" xml:space="preserve">
<style type="text/css">
	.st0{opacity:0.4;}
	.st1{fill:#FFFFFF;}
	.st2{fill:none;stroke:#289E6C;stroke-width:2;stroke-miterlimit:10;}
	.st3{fill:#259A74;}
	.st4{fill:#289E6C;}
	.st5{fill:#3B3B3B;}
</style>
<g id="BG">
</g>
<g id="Ebene_1">
	<g>
		<g>
			<g>
				<g>
					<path class="st2" d="M221.6,1.3h-51.9c-4.4,0-8.5,2.4-10.7,6.2L133,52.4c-2.2,3.8-2.2,8.5,0,12.3l25.9,44.9
						c2.2,3.8,6.3,6.2,10.7,6.2h51.9c4.4,0,8.5-2.4,10.7-6.2l25.9-44.9c2.2-3.8,2.2-8.5,0-12.3L232.3,7.5
						C230.1,3.7,226,1.3,221.6,1.3z"/>
				</g>
				<g>
					<path class="st2" d="M92,1.3H40.1c-4.4,0-8.5,2.4-10.7,6.2L3.5,52.4c-2.2,3.8-2.2,8.5,0,12.3l25.9,44.9
						c2.2,3.8,6.3,6.2,10.7,6.2H92c4.4,0,8.5-2.4,10.7-6.2l25.9-44.9c2.2-3.8,2.2-8.5,0-12.3L102.7,7.5C100.5,3.7,96.4,1.3,92,1.3z"
						/>
					<path class="st1" d="M105.8,35.7C105.8,35.7,105.8,35.7,105.8,35.7c0-0.2,0-0.3-0.1-0.4c0,0,0,0,0,0c0-0.1-0.1-0.1-0.1-0.2
						c0,0,0,0-0.1,0c0,0,0,0,0,0l-10.6-5.7c0,0,0,0,0,0c0,0,0,0,0,0c0,0,0,0,0,0c0,0,0,0-0.1,0l-11.5-4.1c0,0-0.1,0-0.1,0
						c0,0,0,0-0.1,0c0,0,0,0,0,0l-8.9-0.9c0,0,0,0-0.1,0l-15.4-0.2c0,0,0,0,0,0c0,0,0,0,0,0c0,0-0.1,0-0.1,0c-0.1,0-0.1,0-0.2,0
						l-24,12.3c0,0,0,0-0.1,0c0,0,0,0-0.1,0.1C34.1,36.8,34,36.9,34,37c0,0,0,0,0,0c0,0,0,0,0,0c0,0,0,0,0,0l-7.5,22.1
						c0,0.1,0,0.2,0,0.3c0,0,0,0.1,0,0.1c0,0,0,0.1,0,0.1l3.4,9.1c0,0,0,0,0,0c0,0,0,0,0,0c0,0,0,0.1,0.1,0.1c0,0,0,0,0,0
						c0,0,0.1,0.1,0.1,0.1c0,0,0,0,0,0l0.1,0c0,0,0,0,0,0l32.7,23.8c0,0,0,0,0,0c0,0,0,0,0.1,0c0.1,0.1,0.2,0.1,0.3,0.1c0,0,0,0,0,0
						l0,0c0,0,0,0,0,0c0.1,0,0.1,0,0.2,0c0,0,0.1,0,0.1-0.1c0,0,0.1,0,0.1,0c0,0,0,0,0,0c0,0,0.1-0.1,0.1-0.1c0,0,0.1-0.1,0.1-0.1
						c0,0,0,0,0,0l8.1-15l23.6-9.3c0,0,0,0,0,0c0,0,0.1,0,0.1-0.1c0,0,0,0,0,0c0,0,0,0,0.1-0.1c0,0,0.1-0.1,0.1-0.1c0,0,0,0,0,0
						l9.6-17.5c0,0,0,0,0-0.1c0-0.1,0.1-0.1,0.1-0.2c0,0,0,0,0-0.1L105.8,35.7z M95.5,65.7l-3.3-12.1l11.2-2.4L95.5,65.7z
						 M34.9,38.7l9.9,11.2L28.4,58L34.9,38.7z M81.3,26.5L70.9,36.7l3.7-10.8L81.3,26.5z M93.2,30.4L80.5,44.1l3-17.1L93.2,30.4z
						 M80.5,46.2l12.9-13.9l-2.6,19.6L80.5,46.2z M78,54.9l-6.8-13.3l7.4,5.1L78,54.9z M77.2,56.5l-19.1-3.3l11-12.6L77.2,56.5z
						 M57.1,52.2l-3.5-15.7l14.3,3.2L57.1,52.2z M50.9,65.6L47,51.2l8.8,2.9L50.9,65.6z M56.7,55.7l4.6,13l-9.5-1.5L56.7,55.7z
						 M52,68.7l9.2,1.5L56,77.6L52,68.7z M54.6,78.1l-6-1.3l2.3-7.1L54.6,78.1z M62.7,68.5l-4.9-13.8l18.9,3.3L62.7,68.5z M80,47.5
						l9.6,5.3l-10.3,3.6L80,47.5z M78.8,45.1l-8.5-5.9L81.9,28L78.8,45.1z M53.7,35.1l5-8.8l8.8,11.9L53.7,35.1z M52.4,37.8
						l3.4,14.8l-8.8-2.9L52.4,37.8z M45.8,48.8l-9.6-11l15.3-1.5L45.8,48.8z M49.8,67.1l-17.7,0.6l13.5-16L49.8,67.1z M49.7,68.5
						l-2.5,7.8l-13.9-7.2L49.7,68.5z M55.4,79.7l4.3,7.6l-9.6-8.7L55.4,79.7z M62.5,70.7l7.2,5.8l-12.3,1.6L62.5,70.7z M63.6,69.7
						L77,59.5l-5.9,16.3L63.6,69.7z M90.9,54L94.1,66l-13.9-8.4L90.9,54z M95,31.2l8.9,4.8L92.4,50.5L95,31.2z M69,37.8l-8.9-12.1
						l13,0.1L69,37.8z M52.2,34.9l-13.9,1.3l18.5-9.5L52.2,34.9z M43.2,52.3L30.8,67L28,59.7L43.2,52.3z M47.2,78l9.6,8.7L38.7,73.5
						L47.2,78z M63.3,90.6L63,90.4l-6-10.8l13.1-1.7L63.3,90.6z M78.9,58.6l14.8,8.9l-21,8.3L78.9,58.6z M104.2,49.5l-11,2.4
						l11.1-14.1L104.2,49.5z"/>
				</g>
				<path class="st1" d="M227.6,89.3l-14.7-14.7c0,0,0,0,0,0c10.5-11.2,10.3-28.8-0.6-39.7c-11.1-11.1-29.2-11.1-40.4,0
					c-11.1,11.1-11.1,29.2,0,40.4c5.6,5.6,12.9,8.3,20.2,8.3c7,0,14.1-2.6,19.5-7.7c0,0,0,0,0,0l14.7,14.7c0.2,0.2,0.4,0.3,0.6,0.3
					s0.5-0.1,0.6-0.3C227.9,90.2,227.9,89.6,227.6,89.3z M173.1,73.9c-10.4-10.4-10.4-27.4,0-37.8c5.2-5.2,12.1-7.8,18.9-7.8
					c6.8,0,13.7,2.6,18.9,7.8c10.4,10.4,10.4,27.4,0,37.8C200.5,84.3,183.5,84.3,173.1,73.9z"/>
			</g>
		</g>
		<g>
			<path class="st3" d="M211.9,192.1c-1.1,0-2,0.4-2.8,1.2c-0.8,0.8-1.2,1.7-1.2,2.9c0,1.1,0.4,2,1.2,2.8c0.8,0.8,1.7,1.2,2.8,1.2
				c1.1,0,2.1-0.4,2.8-1.2c0.8-0.8,1.2-1.7,1.2-2.8c0-1.1-0.4-2.1-1.2-2.9C213.9,192.5,213,192.1,211.9,192.1z"/>
			<path class="st3" d="M240.9,170.3c-2.4-1.4-5.1-2.1-8.1-2.1c-3,0-5.7,0.7-8.1,2.1c-2.4,1.4-4.3,3.3-5.7,5.7
				c-1.4,2.4-2.1,5.2-2.1,8.2c0,3,0.6,5.8,1.9,8.2c1.3,2.4,3,4.3,5.3,5.7c2.2,1.4,4.7,2.1,7.6,2.1c2.8,0,5.3-0.7,7.6-2.1
				c1.4-0.9,2.6-1.9,3.6-3.2v2.1c0,0.8,0.3,1.5,0.8,2.1c0.6,0.6,1.3,0.8,2.1,0.8c0.8,0,1.5-0.3,2.1-0.8c0.6-0.6,0.8-1.3,0.8-2.1
				v-12.9c0-3-0.7-5.8-2.1-8.2C245.2,173.6,243.3,171.7,240.9,170.3z M238.1,193.6c-1.5,0.9-3.3,1.4-5.2,1.4c-1.9,0-3.7-0.5-5.2-1.4
				c-1.6-0.9-2.8-2.2-3.7-3.9c-0.9-1.6-1.4-3.5-1.4-5.5c0-2.1,0.5-3.9,1.4-5.6c0.9-1.6,2.1-2.9,3.7-3.9c1.6-0.9,3.3-1.4,5.2-1.4
				c2,0,3.7,0.5,5.2,1.4c1.5,0.9,2.7,2.2,3.6,3.9c0.9,1.6,1.3,3.5,1.3,5.6c0,2-0.4,3.9-1.3,5.5C240.8,191.3,239.6,192.6,238.1,193.6
				z"/>
			<path class="st3" d="M257.4,168.4c-0.8,0-1.5,0.3-2.1,0.8c-0.6,0.5-0.8,1.2-0.8,2.1V197c0,0.8,0.3,1.5,0.8,2.1
				c0.6,0.6,1.3,0.8,2.1,0.8c0.9,0,1.6-0.3,2.1-0.8c0.5-0.6,0.8-1.3,0.8-2.1v-25.7c0-0.9-0.3-1.6-0.8-2.1
				C259,168.7,258.3,168.4,257.4,168.4z"/>
			<path class="st3" d="M257.4,162.9c1,0,1.9-0.4,2.7-1.1c0.7-0.7,1.1-1.6,1.1-2.7c0-1-0.4-1.9-1.1-2.7c-0.7-0.7-1.6-1.1-2.7-1.1
				c-1,0-1.9,0.4-2.7,1.1c-0.7,0.7-1.1,1.6-1.1,2.7c0,1,0.4,1.9,1.1,2.7C255.5,162.6,256.4,162.9,257.4,162.9z"/>
		</g>
		<g>
			<path class="st1" d="M46.2,149.9c-0.9-0.4-1.9-0.5-2.8-0.2c-1,0.3-1.6,0.9-2,1.8l-16.9,36.9l-17-36.9c-0.5-0.9-1.2-1.4-2.1-1.8
				c-0.9-0.3-1.8-0.3-2.7,0.2c-1,0.5-1.6,1.2-2,2c-0.3,0.9-0.3,1.7,0.1,2.6l20,42.4c0.8,1.7,2,2.6,3.6,2.6c1.7,0,3-0.9,3.7-2.6
				L48,154.5c0.4-0.8,0.4-1.6,0.1-2.5C47.8,151.1,47.1,150.4,46.2,149.9z"/>
			<path class="st1" d="M89.6,152.2c-3.4-2.1-7.5-3.2-12.1-3.2c-4.8,0-8.9,1.1-12.6,3.3c-3.6,2.2-6.5,5.2-8.5,9
				c-2.1,3.8-3.1,8.2-3.1,13.2c0,4.9,1.1,9.3,3.3,13.2c2.2,3.8,5.2,6.8,9,9c3.8,2.2,8.3,3.2,13.2,3.2c2.8,0,5.8-0.5,8.9-1.6
				c3.1-1.1,5.7-2.5,7.7-4.2c0.9-0.7,1.3-1.5,1.2-2.4c0-0.9-0.5-1.8-1.4-2.6c-0.6-0.5-1.4-0.8-2.3-0.8c-0.9,0-1.8,0.3-2.5,0.9
				c-1.3,1.1-3,2-5.2,2.7c-2.2,0.7-4.3,1.1-6.3,1.1c-3.6,0-6.8-0.8-9.5-2.4c-2.8-1.6-4.9-3.8-6.5-6.6c-1.2-2.1-1.9-4.5-2.2-7h36.2
				c1,0,1.9-0.3,2.6-1c0.7-0.6,1-1.5,1-2.5c0-4.8-0.9-9-2.8-12.7C95.7,157.3,93,154.3,89.6,152.2z M68.4,158.3
				c2.6-1.6,5.6-2.4,9.1-2.4c3.3,0,6.1,0.8,8.5,2.3c2.4,1.5,4.2,3.6,5.5,6.3c0.9,1.9,1.5,4,1.7,6.3H60.7c0.3-2.1,0.9-4.1,1.8-5.9
				C63.8,162.1,65.8,159.9,68.4,158.3z"/>
			<path class="st1" d="M142.4,150.4c-1.6-0.9-4-1.4-7.1-1.4c-3.5,0-6.8,0.9-9.7,2.6c-2.3,1.3-4.2,3-5.8,5.1v-3.3
				c0-1.2-0.3-2.2-1-2.8c-0.6-0.7-1.6-1-2.8-1c-1.2,0-2.2,0.3-2.8,1c-0.7,0.7-1,1.6-1,2.8v42.3c0,1.2,0.3,2.2,1,2.8
				c0.7,0.7,1.6,1,2.8,1c1.2,0,2.1-0.3,2.8-1c0.6-0.7,1-1.6,1-2.8v-27.1c0-2.8,0.8-5.2,2.5-7.2c1.6-2,3.9-3.5,6.6-4.3
				c2.8-0.9,6-1.1,9.5-0.7c1,0.1,1.8,0.2,2.6,0.2s1.4-0.2,2-0.5c0.6-0.4,1-1,1.1-1.8C144.6,152.5,144,151.3,142.4,150.4z"/>
			<path class="st1" d="M195.9,161.5c-2.2-3.8-5.2-6.9-9-9.1c-3.8-2.2-8.1-3.3-12.9-3.3c-4.8,0-9,1.1-12.9,3.3
				c-3.8,2.2-6.9,5.3-9.1,9.1c-2.2,3.8-3.3,8.2-3.3,13.1c0,4.8,1.1,9.1,3.2,13c2.1,3.8,5,6.9,8.7,9.1c3.7,2.2,7.8,3.3,12.4,3.3
				c4.4,0,8.4-1.1,11.9-3.2c2.6-1.6,4.8-3.6,6.6-6v4.8c0,1.2,0.4,2.1,1.1,2.8c0.8,0.7,1.7,1.1,2.9,1.1c1.1,0,2-0.4,2.7-1.1
				c0.7-0.7,1.1-1.6,1.1-2.8v-21.1C199.2,169.7,198.1,165.4,195.9,161.5z M189.4,184c-1.6,2.8-3.7,5-6.3,6.6
				c-2.6,1.6-5.7,2.4-9.1,2.4c-3.4,0-6.4-0.8-9.1-2.4c-2.7-1.6-4.9-3.8-6.4-6.6c-1.6-2.8-2.4-5.9-2.4-9.4c0-3.5,0.8-6.7,2.4-9.5
				c1.6-2.8,3.7-5,6.4-6.6c2.7-1.6,5.7-2.5,9.1-2.5c3.4,0,6.4,0.8,9.1,2.5c2.6,1.6,4.8,3.9,6.3,6.6c1.6,2.8,2.3,5.9,2.3,9.5
				C191.7,178.1,190.9,181.2,189.4,184z"/>
		</g>
	</g>
</g>
<g id="Ebene_2">
</g>
</svg>
