<svg width="100" height="59" viewBox="0 0 100 59" fill="none" xmlns="http://www.w3.org/2000/svg">
<path d="M14.4354 46.5745L16.3941 35.8662H20.4757L16.8515 52.9432H12.5823L10.2952 43.2084L8.05503 52.9432H3.79752L0.161621 35.8662H4.25493L6.21362 46.5745L8.55936 35.8662H12.0545L14.4354 46.5745Z" fill="#FFA215"/>
<path d="M27.8205 53.1778C25.8735 53.1778 24.2979 52.5992 23.0938 51.4419C21.8896 50.2769 21.2876 48.7639 21.2876 46.9029V46.5745C21.2876 45.2766 21.5261 44.1311 22.003 43.138C22.4878 42.145 23.1915 41.3787 24.1142 40.8392C25.0368 40.2919 26.1315 40.0182 27.3982 40.0182C29.181 40.0182 30.5884 40.5734 31.6205 41.6837C32.6527 42.7862 33.1687 44.3265 33.1687 46.3048V47.8412H25.3105C25.4513 48.5528 25.7601 49.1118 26.2371 49.5184C26.714 49.925 27.3318 50.1283 28.0902 50.1283C29.3413 50.1283 30.3187 49.6905 31.0224 48.8147L32.8286 50.9493C32.336 51.6296 31.6362 52.173 30.7292 52.5796C29.83 52.9784 28.8604 53.1778 27.8205 53.1778ZM27.3748 43.0677C26.2175 43.0677 25.5294 43.8339 25.3105 45.3665H29.2983V45.0615C29.3139 44.4282 29.1536 43.9395 28.8174 43.5954C28.4812 43.2436 28.0003 43.0677 27.3748 43.0677Z" fill="#FFA215"/>
<path d="M41.7333 48.2986L45.1346 35.8662H49.7322L43.9852 52.9432H39.4814L33.7812 35.8662H38.3437L41.7333 48.2986Z" fill="#FFA215"/>
<path d="M56.5844 53.1778C54.6374 53.1778 53.0618 52.5992 51.8577 51.4419C50.6536 50.2769 50.0515 48.7639 50.0515 46.9029V46.5745C50.0515 45.2766 50.29 44.1311 50.7669 43.138C51.2517 42.145 51.9554 41.3787 52.8781 40.8392C53.8008 40.2919 54.8954 40.0182 56.1621 40.0182C57.9449 40.0182 59.3523 40.5734 60.3845 41.6837C61.4166 42.7862 61.9326 44.3265 61.9326 46.3048V47.8412H54.0744C54.2152 48.5528 54.524 49.1118 55.001 49.5184C55.478 49.925 56.0957 50.1283 56.8541 50.1283C58.1052 50.1283 59.0826 49.6905 59.7863 48.8147L61.5925 50.9493C61.0999 51.6296 60.4001 52.173 59.4931 52.5796C58.5939 52.9784 57.6243 53.1778 56.5844 53.1778ZM56.1387 43.0677C54.9814 43.0677 54.2934 43.8339 54.0744 45.3665H58.0622V45.0615C58.0778 44.4282 57.9175 43.9395 57.5813 43.5954C57.2451 43.2436 56.7642 43.0677 56.1387 43.0677Z" fill="#FFA215"/>
<path d="M71.3651 43.83L70.0632 43.7362C68.82 43.7362 68.0224 44.1271 67.6705 44.9091V52.9432H63.718V40.2528H67.4242L67.5533 41.8831C68.2179 40.6398 69.1445 40.0182 70.333 40.0182C70.7552 40.0182 71.1227 40.0651 71.4355 40.1589L71.3651 43.83Z" fill="#FFA215"/>
<path d="M77.1147 52.9432H73.1504V40.2528H77.1147V52.9432ZM72.9159 36.9805C72.9159 36.4175 73.1191 35.9562 73.5257 35.5965C73.9323 35.2368 74.4601 35.057 75.1091 35.057C75.7581 35.057 76.2859 35.2368 76.6925 35.5965C77.0991 35.9562 77.3024 36.4175 77.3024 36.9805C77.3024 37.5434 77.0991 38.0048 76.6925 38.3644C76.2859 38.7241 75.7581 38.904 75.1091 38.904C74.4601 38.904 73.9323 38.7241 73.5257 38.3644C73.1191 38.0048 72.9159 37.5434 72.9159 36.9805Z" fill="#FFA215"/>
<path d="M80.589 52.9432V42.9973H78.7476V40.2528H80.589V39.2441C80.589 37.7976 81.0151 36.6755 81.8674 35.878C82.7197 35.0804 83.916 34.6816 85.4564 34.6816C86.0194 34.6816 86.6371 34.7637 87.3095 34.9279L87.3213 37.8367C87.0789 37.7663 86.7544 37.7311 86.3478 37.7311C85.1515 37.7311 84.5533 38.2472 84.5533 39.2793V40.2528H87.028V42.9973H84.5533V52.9432H80.589Z" fill="#FFA215"/>
<path d="M93.6456 47.4073L95.7568 40.2528H99.9908L94.8185 55.0661L94.5956 55.6056C93.8606 57.2476 92.5627 58.0686 90.7017 58.0686C90.1856 58.0686 89.6422 57.9905 89.0714 57.8341V55.0075H89.5875C90.1426 55.0075 90.5649 54.9254 90.8542 54.7612C91.1513 54.6048 91.3702 54.3194 91.511 53.905L91.8277 53.0605L87.4177 40.2528H91.64L93.6456 47.4073Z" fill="#FFA215"/>
<path d="M30.8627 4.00339C30.8627 5.08475 30.434 6.06597 29.7373 6.78634L32.09 9.86318C33.1915 9.05552 34.5507 8.57856 36.0213 8.57856C39.6969 8.57856 42.6765 11.5582 42.6765 15.2338C42.6765 18.2533 40.6656 20.8032 37.9099 21.6173L38.4595 29.5129L49.7067 23.1356C49.2251 22.0275 48.9581 20.8046 48.9581 19.5193C48.9581 14.5038 53.024 10.4379 58.0396 10.4379C63.0551 10.4379 67.121 14.5038 67.121 19.5193C67.121 22.6314 65.5556 25.3778 63.1693 27.0142L65.0567 29.4253L71.4743 15.2757C70.2744 14.6639 69.4527 13.4166 69.4527 11.9774C69.4527 9.93403 71.1092 8.27752 73.1526 8.27752C75.1961 8.27752 76.8526 9.93403 76.8526 11.9774C76.8526 12.1146 76.8451 12.25 76.8306 12.3832L80.5345 13.1618C81.6474 8.91571 85.5108 5.78322 90.1059 5.78322C95.5703 5.78322 100 10.2129 100 15.6773C100 21.1416 95.5703 25.5714 90.1059 25.5714C84.6416 25.5714 80.2118 21.1416 80.2118 15.6773C80.2118 15.0399 80.2721 14.4165 80.3873 13.8126L76.6985 13.0373C76.2428 14.5642 74.8277 15.6774 73.1526 15.6774C72.7849 15.6774 72.4297 15.6237 72.0944 15.5238L65.2097 30.7033L62.6026 27.3728C61.2618 28.1535 59.7029 28.6007 58.0396 28.6007C54.5472 28.6007 51.5152 26.6294 49.9958 23.7387L37.8674 30.6157L37.2521 21.7755C36.8532 21.8501 36.4418 21.8891 36.0213 21.8891C32.3457 21.8891 29.366 18.9094 29.366 15.2338C29.366 13.2687 30.2177 11.5025 31.5721 10.2843L29.2341 7.22674C28.5697 7.717 27.7484 8.00678 26.8593 8.00678C26.1504 8.00678 25.4845 7.82252 24.907 7.49927L16.8325 19.5937C17.9865 20.1567 19.0507 20.911 19.9759 21.8361C22.1703 24.0306 23.4032 27.007 23.4032 30.1104L0 30.1104C0 27.007 1.23284 24.0306 3.42732 21.8361C5.62179 19.6417 8.59813 18.4088 11.7016 18.4088C13.2668 18.4088 14.7998 18.7224 16.2163 19.3149L24.3539 7.12604C23.4406 6.3923 22.856 5.26612 22.856 4.00339C22.856 1.79238 24.6483 0 26.8593 0C29.0704 0 30.8627 1.79238 30.8627 4.00339Z" fill="#00BCD4"/>
</svg>
