<svg width="44" height="26" viewBox="0 0 44 26" fill="none" xmlns="http://www.w3.org/2000/svg">
<path d="M6.35177 20.8538L7.21359 16.0592H9.00949L7.41486 23.7053H5.53639L4.53007 19.3466L3.54439 23.7053H1.67108L0.0712891 16.0592H1.87235L2.73417 20.8538L3.7663 16.0592H5.30416L6.35177 20.8538Z" fill="#333333"/>
<path d="M12.2412 23.8103C11.3845 23.8103 10.6913 23.5513 10.1614 23.0331C9.63162 22.5115 9.36671 21.834 9.36671 21.0008V20.8538C9.36671 20.2726 9.47164 19.7597 9.68151 19.3151C9.89481 18.8705 10.2044 18.5274 10.6104 18.2858C11.0164 18.0407 11.498 17.9182 12.0554 17.9182C12.8398 17.9182 13.4591 18.1668 13.9132 18.6639C14.3674 19.1576 14.5944 19.8472 14.5944 20.733V21.4209H11.1368C11.1987 21.7395 11.3346 21.9898 11.5445 22.1719C11.7544 22.3539 12.0262 22.445 12.3599 22.445C12.9103 22.445 13.3404 22.2489 13.65 21.8568L14.4448 22.8126C14.228 23.1171 13.9201 23.3605 13.521 23.5425C13.1254 23.7211 12.6988 23.8103 12.2412 23.8103ZM12.0451 19.2836C11.5359 19.2836 11.2331 19.6267 11.1368 20.3129H12.8914V20.1763C12.8983 19.8928 12.8278 19.6739 12.6798 19.5199C12.5319 19.3624 12.3203 19.2836 12.0451 19.2836Z" fill="#333333"/>
<path d="M18.3628 21.6257L19.8594 16.0592H21.8824L19.3537 23.7053H17.372L14.8639 16.0592H16.8714L18.3628 21.6257Z" fill="#333333"/>
<path d="M24.8973 23.8103C24.0406 23.8103 23.3474 23.5513 22.8176 23.0331C22.2877 22.5115 22.0228 21.834 22.0228 21.0008V20.8538C22.0228 20.2726 22.1278 19.7597 22.3376 19.3151C22.5509 18.8705 22.8606 18.5274 23.2665 18.2858C23.6725 18.0407 24.1542 17.9182 24.7115 17.9182C25.4959 17.9182 26.1152 18.1668 26.5693 18.6639C27.0235 19.1576 27.2505 19.8472 27.2505 20.733V21.4209H23.7929C23.8549 21.7395 23.9907 21.9898 24.2006 22.1719C24.4105 22.3539 24.6823 22.445 25.016 22.445C25.5665 22.445 25.9965 22.2489 26.3061 21.8568L27.1009 22.8126C26.8841 23.1171 26.5762 23.3605 26.1771 23.5425C25.7815 23.7211 25.3549 23.8103 24.8973 23.8103ZM24.7012 19.2836C24.192 19.2836 23.8893 19.6267 23.7929 20.3129H25.5475V20.1763C25.5544 19.8928 25.4839 19.6739 25.3359 19.5199C25.188 19.3624 24.9764 19.2836 24.7012 19.2836Z" fill="#333333"/>
<path d="M31.4008 19.6249L30.828 19.5829C30.281 19.5829 29.93 19.758 29.7752 20.1081V23.7053H28.0361V18.0232H29.6668L29.7236 18.7532C30.016 18.1965 30.4237 17.9182 30.9467 17.9182C31.1325 17.9182 31.2942 17.9392 31.4318 17.9812L31.4008 19.6249Z" fill="#333333"/>
<path d="M33.9307 23.7053H32.1864V18.0232H33.9307V23.7053ZM32.0832 16.5581C32.0832 16.306 32.1726 16.0995 32.3515 15.9384C32.5304 15.7774 32.7626 15.6969 33.0482 15.6969C33.3337 15.6969 33.566 15.7774 33.7449 15.9384C33.9238 16.0995 34.0132 16.306 34.0132 16.5581C34.0132 16.8102 33.9238 17.0167 33.7449 17.1778C33.566 17.3388 33.3337 17.4193 33.0482 17.4193C32.7626 17.4193 32.5304 17.3388 32.3515 17.1778C32.1726 17.0167 32.0832 16.8102 32.0832 16.5581Z" fill="#333333"/>
<path d="M35.4593 23.7053V19.2521H34.6491V18.0232H35.4593V17.5716C35.4593 16.9239 35.6468 16.4216 36.0218 16.0645C36.3969 15.7074 36.9232 15.5288 37.601 15.5288C37.8487 15.5288 38.1205 15.5656 38.4164 15.6391L38.4215 16.9414C38.3149 16.9099 38.1721 16.8942 37.9932 16.8942C37.4668 16.8942 37.2036 17.1252 37.2036 17.5874V18.0232H38.2925V19.2521H37.2036V23.7053H35.4593Z" fill="#333333"/>
<path d="M41.2043 21.2266L42.1332 18.0232H43.9961L41.7203 24.6558L41.6223 24.8974C41.2989 25.6326 40.7277 26.0002 39.9089 26.0002C39.6819 26.0002 39.4428 25.9652 39.1916 25.8952V24.6296H39.4187C39.6629 24.6296 39.8487 24.5928 39.976 24.5193C40.1068 24.4493 40.2031 24.3215 40.265 24.1359L40.4044 23.7578L38.464 18.0232H40.3218L41.2043 21.2266Z" fill="#333333"/>
<path d="M13.5796 1.79249C13.5796 2.27666 13.391 2.716 13.0844 3.03854L14.1196 4.41617C14.6043 4.05455 15.2023 3.84099 15.8494 3.84099C17.4666 3.84099 18.7777 5.17511 18.7777 6.82084C18.7777 8.17281 17.8929 9.3145 16.6804 9.67898L16.9222 13.2142L21.871 10.3588C21.6591 9.86265 21.5416 9.31511 21.5416 8.73964C21.5416 6.49397 23.3306 4.67349 25.5374 4.67349C27.7442 4.67349 29.5332 6.49397 29.5332 8.73964C29.5332 10.133 28.8445 11.3628 27.7945 12.0954L28.6249 13.175L31.4487 6.83959C30.9208 6.56566 30.5592 6.00721 30.5592 5.36282C30.5592 4.4479 31.2881 3.7062 32.1872 3.7062C33.0863 3.7062 33.8151 4.4479 33.8151 5.36282C33.8151 5.42422 33.8119 5.48484 33.8055 5.54451L35.4352 5.89309C35.9248 3.99195 37.6248 2.5894 39.6466 2.5894C42.0509 2.5894 44 4.57278 44 7.0194C44 9.46603 42.0509 11.4494 39.6466 11.4494C37.2423 11.4494 35.2932 9.46603 35.2932 7.0194C35.2932 6.734 35.3197 6.4549 35.3704 6.18451L33.7474 5.83736C33.5468 6.52103 32.9242 7.01944 32.1872 7.01944C32.0254 7.01944 31.8691 6.99542 31.7215 6.95069L28.6923 13.7472L27.5452 12.256C26.9552 12.6056 26.2693 12.8058 25.5374 12.8058C24.0008 12.8058 22.6667 11.9231 21.9981 10.6288L16.6617 13.708L16.3909 9.74982C16.2154 9.78322 16.0344 9.80068 15.8494 9.80068C14.2321 9.80068 12.9211 8.46656 12.9211 6.82084C12.9211 5.94098 13.2958 5.15019 13.8917 4.60472L12.863 3.23572C12.5707 3.45524 12.2093 3.58498 11.8181 3.58498C11.5062 3.58498 11.2132 3.50248 10.9591 3.35775L7.40628 8.77294C7.91407 9.02503 8.3823 9.36274 8.78938 9.77699C9.75495 10.7595 10.2974 12.0922 10.2974 13.4817L0 13.4817C0 12.0922 0.542451 10.7595 1.50802 9.77699C2.47359 8.79443 3.78318 8.24243 5.1487 8.24243C5.83741 8.24243 6.5119 8.38284 7.13519 8.6481L10.7157 3.19064C10.3138 2.86211 10.0566 2.35787 10.0566 1.79249C10.0566 0.802526 10.8453 0 11.8181 0C12.791 0 13.5796 0.802526 13.5796 1.79249Z" fill="#00BCD4"/>
</svg>
