<svg width="128" height="128" viewBox="0 0 128 128" fill="none" xmlns="http://www.w3.org/2000/svg">
<path d="M25.8012 45.25C25.8012 46.4644 26.7856 47.4488 28 47.4488C29.2144 47.4488 30.1988 46.4644 30.1988 45.25L25.8012 45.25ZM28 27L28 24.8012C27.4168 24.8012 26.8576 25.0329 26.4452 25.4452C26.0329 25.8576 25.8012 26.4168 25.8012 27L28 27ZM46.25 29.1988C47.4644 29.1988 48.4488 28.2144 48.4488 27C48.4488 25.7856 47.4644 24.8012 46.25 24.8012L46.25 29.1988ZM82.75 24.8012C81.5356 24.8012 80.5512 25.7856 80.5512 27C80.5512 28.2144 81.5356 29.1988 82.75 29.1988V24.8012ZM101 27H103.199C103.199 25.7856 102.214 24.8012 101 24.8012V27ZM98.8012 45.25C98.8012 46.4644 99.7856 47.4488 101 47.4488C102.214 47.4488 103.199 46.4644 103.199 45.25H98.8012ZM103.199 81.75C103.199 80.5356 102.214 79.5512 101 79.5512C99.7856 79.5512 98.8012 80.5356 98.8012 81.75H103.199ZM101 100V102.199C102.214 102.199 103.199 101.214 103.199 100H101ZM82.75 97.8012C81.5356 97.8012 80.5512 98.7856 80.5512 100C80.5512 101.214 81.5356 102.199 82.75 102.199V97.8012ZM46.25 102.199C47.4644 102.199 48.4488 101.214 48.4488 100C48.4488 98.7856 47.4644 97.8012 46.25 97.8012V102.199ZM28 100L25.8012 100C25.8012 100.583 26.0329 101.142 26.4452 101.555C26.8576 101.967 27.4168 102.199 28 102.199V100ZM30.1988 81.75C30.1988 80.5356 29.2144 79.5512 28 79.5512C26.7856 79.5512 25.8012 80.5356 25.8012 81.75L30.1988 81.75ZM30.1988 45.25L30.1988 27L25.8012 27L25.8012 45.25L30.1988 45.25ZM28 29.1988L46.25 29.1988L46.25 24.8012L28 24.8012L28 29.1988ZM82.75 29.1988H101V24.8012H82.75V29.1988ZM98.8012 27V45.25H103.199V27H98.8012ZM98.8012 81.75V100H103.199V81.75H98.8012ZM101 97.8012H82.75V102.199H101V97.8012ZM46.25 97.8012H28V102.199H46.25V97.8012ZM30.1988 100L30.1988 81.75L25.8012 81.75L25.8012 100L30.1988 100Z" fill="current"/>
<path d="M55.9168 62.5233C54.0082 62.5233 52.4593 64.0723 52.4593 65.9809C52.4593 67.8894 54.0082 69.4384 55.9168 69.4384C57.8253 69.4384 59.3743 67.8894 59.3743 65.9809C59.3743 64.0723 57.8253 62.5233 55.9168 62.5233ZM72.5129 62.5233C70.6043 62.5233 69.0554 64.0723 69.0554 65.9809C69.0554 67.8894 70.6043 69.4384 72.5129 69.4384C74.4214 69.4384 75.9704 67.8894 75.9704 65.9809C75.9704 64.0723 74.4214 62.5233 72.5129 62.5233ZM64.2148 35.5547C48.9464 35.5547 36.5547 47.9464 36.5547 63.2148C36.5547 78.4832 48.9464 90.875 64.2148 90.875C79.4832 90.875 91.875 78.4832 91.875 63.2148C91.875 47.9464 79.4832 35.5547 64.2148 35.5547ZM64.2148 85.343C52.0167 85.343 42.0867 75.413 42.0867 63.2148C42.0867 62.4127 42.142 61.6106 42.225 60.8361C48.7528 57.9318 53.9253 52.5933 56.636 45.9826C61.6424 53.0636 69.8852 57.6828 79.2066 57.6828C81.3641 57.6828 83.4387 57.4339 85.4302 56.9636C86.011 58.9275 86.343 61.0297 86.343 63.2148C86.343 75.413 76.413 85.343 64.2148 85.343Z" fill="current"/>
</svg>
