<svg width="75" height="75" viewBox="0 0 75 75" fill="none" xmlns="http://www.w3.org/2000/svg">
<path d="M39.2177 27.2795C39.0706 26.6463 38.4978 26.2043 37.8479 26.2226C37.1981 26.241 36.6511 26.7146 36.54 27.3551L34.1104 41.3609L31.7966 32.5926C31.637 31.9878 31.0871 31.5686 30.4617 31.5748C29.8362 31.5809 29.2948 32.011 29.1471 32.6188L27.6508 38.7801H26.6666C25.9118 38.7801 25.2999 39.392 25.2999 40.1468C25.2999 40.9015 25.9118 41.5134 26.6666 41.5134H28.7253C29.3558 41.5134 29.9045 41.082 30.0533 40.4693L30.5301 38.5058L33.0653 48.1126C33.2292 48.7339 33.8037 49.157 34.4456 49.1293C35.0875 49.1016 35.6234 48.6306 35.7332 47.9975L38.0806 34.4653L40.2609 43.8528C40.397 44.4386 40.9001 44.8667 41.5002 44.9071C42.1002 44.9476 42.6562 44.591 42.8697 44.0288L44.8769 38.7433L45.939 40.7789C46.1745 41.2303 46.6415 41.5134 47.1506 41.5134H49.3123C50.067 41.5134 50.6789 40.9015 50.6789 40.1468C50.6789 39.392 50.067 38.7801 49.3123 38.7801H47.979L45.8918 34.7796C45.6428 34.3024 45.1369 34.0158 44.5996 34.0475C44.0623 34.0792 43.5937 34.4234 43.4026 34.9266L41.9079 38.8625L39.2177 27.2795Z" fill="black"/>
<path fill-rule="evenodd" clip-rule="evenodd" d="M11.25 20.7195C11.25 17.9749 13.4749 15.75 16.2195 15.75H58.7804C61.5251 15.75 63.75 17.9749 63.75 20.7195V54.6118C63.75 57.3564 61.5251 59.5813 58.7804 59.5813H16.2195C13.4749 59.5813 11.25 57.3564 11.25 54.6118V20.7195ZM16.5111 23.4905C16.5111 22.1182 17.6236 21.0057 18.9959 21.0057H56.0052C57.3775 21.0057 58.49 22.1182 58.49 23.4905V51.8409C58.49 53.2132 57.3775 54.3256 56.0052 54.3256H18.9959C17.6236 54.3256 16.5111 53.2132 16.5111 51.8409V23.4905Z" fill="black"/>
</svg>
