<svg width="128" height="128" viewBox="0 0 128 128" fill="none" xmlns="http://www.w3.org/2000/svg">
<path fill-rule="evenodd" clip-rule="evenodd" d="M86.5 49C86.5 36.5875 76.4125 26.5 64 26.5C51.5875 26.5 41.5 36.5875 41.5 49C41.5 62.0875 55.075 79.7125 61.1125 86.95C62.6125 88.75 65.35 88.75 66.85 86.95C72.925 79.7125 86.5 62.0875 86.5 49ZM56.5 49C56.5 44.875 59.875 41.5 64 41.5C68.125 41.5 71.5 44.875 71.5 49C71.5 53.125 68.1625 56.5 64 56.5C59.875 56.5 56.5 53.125 56.5 49ZM41.5 101.5C39.4375 101.5 37.75 99.8125 37.75 97.75C37.75 95.6875 39.4375 94 41.5 94H86.5C88.5625 94 90.25 95.6875 90.25 97.75C90.25 99.8125 88.5625 101.5 86.5 101.5H41.5Z" fill="current"/>
</svg>
