<svg width="100" height="100" viewBox="0 0 100 100" fill="none" xmlns="http://www.w3.org/2000/svg">
<path fill-rule="evenodd" clip-rule="evenodd" d="M80 29H20V71.5H80V29ZM15 24V76.5H85V24H15Z" fill="current"/>
<path d="M43.0543 57.0225C42.461 57.6816 41.5931 58.2126 40.4505 58.6155C39.308 59.0183 38.0555 59.2197 36.6932 59.2197C34.5985 59.2197 32.9249 58.5789 31.6725 57.2971C30.42 56.0154 29.7499 54.2319 29.662 51.9468L29.651 50.5625C29.651 48.9878 29.9293 47.6145 30.4859 46.4426C31.0426 45.2634 31.8373 44.3589 32.87 43.729C33.91 43.0918 35.1112 42.7732 36.4735 42.7732C38.4657 42.7732 40.0111 43.231 41.1097 44.1465C42.2157 45.0547 42.8602 46.4133 43.0433 48.2224H39.3299C39.1981 47.3289 38.9125 46.6917 38.473 46.3108C38.0336 45.9299 37.411 45.7395 36.6053 45.7395C35.6385 45.7395 34.8915 46.1497 34.3641 46.97C33.8368 47.7903 33.5694 48.9622 33.5621 50.4856V51.4524C33.5621 53.0491 33.8331 54.2502 34.3751 55.0559C34.9244 55.8542 35.785 56.2534 36.9569 56.2534C37.9603 56.2534 38.7074 56.03 39.1981 55.5833V53.1003H36.5174V50.4526H43.0543V57.0225Z" fill="current"/>
<path d="M52.2169 59H48.3717V43.0039H52.2169V59Z" fill="current"/>
<path d="M67.7845 52.6279H61.5663V59H57.7101V43.0039H68.4107V45.9812H61.5663V49.6616H67.7845V52.6279Z" fill="current"/>
</svg>
