<svg width="75" height="75" viewBox="0 0 75 75" fill="none" xmlns="http://www.w3.org/2000/svg">
<path fill-rule="evenodd" clip-rule="evenodd" d="M57.9167 11.25H17.0833C13.875 11.25 11.25 13.875 11.25 17.0833V57.9167C11.25 61.125 13.875 63.75 17.0833 63.75H57.9167C61.125 63.75 63.75 61.125 63.75 57.9167V17.0833C63.75 13.875 61.125 11.25 57.9167 11.25ZM55 57.9166H20C18.3959 57.9166 17.0834 56.6042 17.0834 55V20C17.0834 18.3958 18.3959 17.0833 20 17.0833H55C56.6042 17.0833 57.9167 18.3958 57.9167 20V55C57.9167 56.6042 56.6042 57.9166 55 57.9166Z" fill="current"/>
<path fill-rule="evenodd" clip-rule="evenodd" d="M37.4997 52.041C35.8883 52.041 34.582 50.7563 34.582 49.1714L34.582 37.511C34.582 35.9261 35.8883 34.6414 37.4997 34.6414C39.1111 34.6414 40.4174 35.9261 40.4174 37.511L40.4174 49.1714C40.4174 50.7563 39.1111 52.041 37.4997 52.041Z" fill="current"/>
<circle cx="37.4997" cy="25.8767" r="2.91767" fill="current"/>
</svg>
