<svg width="75" height="75" viewBox="0 0 75 75" fill="none" xmlns="http://www.w3.org/2000/svg">
<path fill-rule="evenodd" clip-rule="evenodd" d="M57.9167 11.25H17.0833C13.875 11.25 11.25 13.875 11.25 17.0833V57.9167C11.25 61.125 13.875 63.75 17.0833 63.75H57.9167C61.125 63.75 63.75 61.125 63.75 57.9167V17.0833C63.75 13.875 61.125 11.25 57.9167 11.25ZM55 57.9166H20C18.3959 57.9166 17.0834 56.6041 17.0834 55V20C17.0834 18.3958 18.3959 17.0833 20 17.0833H55C56.6042 17.0833 57.9167 18.3958 57.9167 20V55C57.9167 56.6041 56.6042 57.9166 55 57.9166ZM35.1958 48.6709L42.05 39.8625C42.6333 39.1042 43.8 39.1042 44.3541 39.8625L51.7916 49.75C52.5208 50.7125 51.8208 52.0834 50.625 52.0834H24.4333C23.2375 52.0834 22.5375 50.6834 23.2958 49.7209L28.3708 43.2167C28.9541 42.4875 30.0625 42.4584 30.6458 43.1875L35.1958 48.6709Z" fill="black"/>
</svg>
