<svg width="75" height="75" viewBox="0 0 75 75" fill="none" xmlns="http://www.w3.org/2000/svg">
<path d="M32.3679 27.5556C32.3679 26.6682 33.0655 25.971 33.9533 25.971C34.8411 25.971 35.5386 26.6682 35.5386 27.5556V32.3092H40.2947C41.1825 32.3092 41.88 33.0064 41.88 33.8938C41.88 34.7811 41.1825 35.4784 40.2947 35.4784H35.5386V40.232C35.5386 41.1194 34.8411 41.8166 33.9533 41.8166C33.0655 41.8166 32.3679 41.1194 32.3679 40.232V35.4784H27.6119C26.7241 35.4784 26.0266 34.7811 26.0266 33.8938C26.0266 33.0064 26.7241 32.3092 27.6119 32.3092H32.3679V27.5556Z" fill="black"/>
<path fill-rule="evenodd" clip-rule="evenodd" d="M33.6952 56.1179C38.2963 56.1179 42.5742 54.7341 46.1347 52.3602L56.273 62.4934C57.9493 64.1689 60.6671 64.1689 62.3433 62.4934L62.4928 62.344C64.1691 60.6686 64.1691 57.9522 62.4928 56.2768L52.3597 46.1487C54.7477 42.5837 56.1403 38.2964 56.1403 33.684C56.1403 21.294 46.0913 11.25 33.6952 11.25C21.299 11.25 11.25 21.294 11.25 33.684C11.25 46.0739 21.299 56.1179 33.6952 56.1179ZM33.6945 49.1833C42.2588 49.1833 49.2015 42.2441 49.2015 33.6841C49.2015 25.1241 42.2588 18.1848 33.6945 18.1848C25.1302 18.1848 18.1875 25.1241 18.1875 33.6841C18.1875 42.2441 25.1302 49.1833 33.6945 49.1833Z" fill="black"/>
</svg>
