<svg width="75" height="75" viewBox="0 0 75 75" fill="none" xmlns="http://www.w3.org/2000/svg">
<path fill-rule="evenodd" clip-rule="evenodd" d="M40.4262 11.25C41.8091 11.25 43.1398 11.8012 44.1313 12.7988L56.7076 25.4775C57.699 26.4488 58.247 27.7875 58.247 29.1788V58.5C58.247 61.3875 55.8987 63.75 53.0286 63.75H21.6923C18.8222 63.75 16.5 61.3875 16.5 58.5V16.5C16.5 13.6125 18.8483 11.25 21.7184 11.25H40.4262ZM29.5454 53.25H45.2005C46.6356 53.25 47.8097 52.0687 47.8097 50.625C47.8097 49.1812 46.6356 48 45.2005 48H29.5454C28.1104 48 26.9362 49.1812 26.9362 50.625C26.9362 52.0687 28.1104 53.25 29.5454 53.25ZM45.2005 42.75H29.5454C28.1104 42.75 26.9362 41.5687 26.9362 40.125C26.9362 38.6812 28.1104 37.5 29.5454 37.5H45.2005C46.6356 37.5 47.8097 38.6812 47.8097 40.125C47.8097 41.5687 46.6356 42.75 45.2005 42.75ZM39.9822 15.1875V27C39.9822 28.4437 41.1563 29.625 42.5914 29.625H54.3327L39.9822 15.1875Z" fill="black"/>
</svg>
