<svg width="75" height="75" viewBox="0 0 75 75" fill="none" xmlns="http://www.w3.org/2000/svg">
<path d="M14.7735 23.0235L14.7735 29.8943L11.25 29.8943L11.25 21.2617C11.25 20.7945 11.4356 20.3464 11.766 20.016C12.0964 19.6856 12.5445 19.5 13.0117 19.5H21.6443V23.0235L14.7735 23.0235Z" fill="current"/>
<path d="M60.2265 52.0922L60.2265 45.2214L63.75 45.2214L63.75 53.8539C63.75 54.3212 63.5644 54.7693 63.234 55.0997C62.9036 55.4301 62.4555 55.6157 61.9883 55.6157H53.3557V52.0922H60.2265Z" fill="current"/>
<path d="M60.2265 23.0235L53.3557 23.0235V19.5H61.9883C62.4555 19.5 62.9036 19.6856 63.234 20.016C63.5644 20.3464 63.75 20.7945 63.75 21.2617L63.75 29.8943L60.2265 29.8943L60.2265 23.0235Z" fill="current"/>
<path d="M14.7735 52.0922L14.7735 45.2214L11.25 45.2214L11.25 53.8539C11.25 54.3212 11.4356 54.7693 11.766 55.0997C12.0964 55.4301 12.5445 55.6157 13.0117 55.6157H21.6443V52.0922H14.7735Z" fill="current"/>
<path fill-rule="evenodd" clip-rule="evenodd" d="M31.2222 38.1622C31.2222 39.4391 31.0014 40.5608 30.5599 41.5274C30.1184 42.488 29.4859 43.2279 28.6625 43.747C27.8451 44.2601 26.9023 44.5167 25.8343 44.5167C24.7782 44.5167 23.8354 44.2601 23.0061 43.747C22.1827 43.2279 21.5442 42.491 21.0908 41.5363C20.6433 40.5817 20.4165 39.4808 20.4106 38.2338V37.4999C20.4106 36.229 20.6343 35.1072 21.0818 34.1347C21.5353 33.1621 22.1707 32.4193 22.9882 31.9061C23.8116 31.387 24.7543 31.1275 25.8164 31.1275C26.8785 31.1275 27.8182 31.384 28.6356 31.8972C29.459 32.4043 30.0945 33.1382 30.542 34.0989C30.9895 35.0535 31.2162 36.1663 31.2222 37.4372V38.1622ZM28.9578 37.482C28.9578 36.038 28.6834 34.9312 28.1344 34.1615C27.5915 33.3918 26.8188 33.007 25.8164 33.007C24.8378 33.007 24.0711 33.3918 23.5162 34.1615C22.9673 34.9253 22.6869 36.0082 22.6749 37.4104V38.1622C22.6749 39.5942 22.9524 40.701 23.5073 41.4826C24.0681 42.2643 24.8438 42.6551 25.8343 42.6551C26.8367 42.6551 27.6064 42.2732 28.1434 41.5095C28.6864 40.7458 28.9578 39.63 28.9578 38.1622V37.482Z" fill="current"/>
<path d="M43.4211 40.0954C43.2898 41.4856 42.7767 42.5716 41.8817 43.3532C40.9867 44.1289 39.7963 44.5167 38.3106 44.5167C37.2724 44.5167 36.3565 44.2721 35.5629 43.7828C34.7753 43.2876 34.1667 42.5865 33.7371 41.6795C33.3075 40.7726 33.0838 39.7195 33.0659 38.5202V37.303C33.0659 36.0738 33.2837 34.9909 33.7192 34.0541C34.1548 33.1174 34.7783 32.3954 35.5898 31.8882C36.4072 31.3811 37.35 31.1275 38.418 31.1275C39.856 31.1275 41.0135 31.5183 41.8906 32.2999C42.7677 33.0816 43.2779 34.1854 43.4211 35.6114H41.1657C41.0583 34.6747 40.7838 34.0004 40.3423 33.5887C39.9067 33.1711 39.2653 32.9622 38.418 32.9622C37.4335 32.9622 36.6757 33.3232 36.1447 34.0452C35.6196 34.7612 35.3511 35.8143 35.3392 37.2045V38.3591C35.3392 39.7672 35.5898 40.8412 36.091 41.5811C36.5982 42.321 37.338 42.6909 38.3106 42.6909C39.1996 42.6909 39.8679 42.491 40.3154 42.0912C40.7629 41.6915 41.0463 41.0262 41.1657 40.0954H43.4211Z" fill="current"/>
<path fill-rule="evenodd" clip-rule="evenodd" d="M47.7171 39.3167H50.241L52.8544 44.3377H55.2798V44.2213L52.3532 38.7887C53.105 38.4725 53.6897 38.022 54.1074 37.4372C54.531 36.8465 54.7428 36.1156 54.7428 35.2445C54.7428 33.9676 54.3341 32.9921 53.5167 32.3178C52.6992 31.6436 51.5387 31.3065 50.0351 31.3065H45.4527V44.3377H47.7171V39.3167ZM50.0441 37.4999H47.7171V33.1323H50.1067C50.8943 33.1442 51.485 33.3411 51.8788 33.723C52.2786 34.1048 52.4785 34.6448 52.4785 35.3429C52.4785 36.0112 52.2637 36.5392 51.8341 36.9271C51.4045 37.3089 50.8078 37.4999 50.0441 37.4999Z" fill="current"/>
</svg>
