<svg width="45" height="45" viewBox="0 0 75 75" fill="none" xmlns="http://www.w3.org/2000/svg">
<path fill-rule="evenodd" clip-rule="evenodd" d="M41.2524 54.8893L38.4834 46.5481H39.5475C40.1661 46.5481 40.7654 46.4687 41.3359 46.3194L43.937 54.1547C44.1983 54.1653 44.4623 54.1982 44.7267 54.2551C47.2208 54.7911 48.8081 57.2476 48.2721 59.7417C47.736 62.2358 45.2796 63.8231 42.7854 63.2871C40.2913 62.751 38.704 60.2946 39.2401 57.8004C39.5084 56.552 40.2579 55.5308 41.2524 54.8893ZM45.4695 59.1393C45.2661 60.0856 44.3341 60.6879 43.3878 60.4845C42.4415 60.2811 41.8392 59.3491 42.0426 58.4028C42.246 57.4565 43.178 56.8543 44.1243 57.0576C45.0706 57.261 45.6728 58.193 45.4695 59.1393Z" fill="current"/>
<path fill-rule="evenodd" clip-rule="evenodd" d="M51.3662 49.6907L44.473 44.531C45.1903 43.822 45.7544 42.9584 46.1122 41.993L53.395 47.4443C54.1753 47.0144 55.0881 46.8051 56.0421 46.8925C58.5826 47.1252 60.4534 49.3733 60.2207 51.9137C59.988 54.4541 57.7399 56.3249 55.1994 56.0922C52.659 55.8595 50.7882 53.6115 51.0209 51.071C51.0656 50.5828 51.1848 50.1193 51.3662 49.6907ZM55.4609 53.2376C56.4248 53.3259 57.2778 52.6161 57.366 51.6522C57.4543 50.6883 56.7445 49.8354 55.7807 49.7471C54.8168 49.6588 53.9638 50.3686 53.8756 51.3325C53.7873 52.2964 54.4971 53.1493 55.4609 53.2376Z" fill="current"/>
<path fill-rule="evenodd" clip-rule="evenodd" d="M46.5481 35.816V38.5486L54.7024 38.4972C55.3182 40.5758 57.338 41.9945 59.5763 41.7776C62.1154 41.5315 63.9744 39.2736 63.7283 36.7344C63.4822 34.1952 61.2243 32.3363 58.6851 32.5824C56.7943 32.7657 55.2807 34.0645 54.7326 35.7644L46.5481 35.816ZM59.2997 38.9244C60.2631 38.831 60.9684 37.9743 60.875 37.0109C60.7817 36.0476 59.925 35.3423 58.9616 35.4356C57.9982 35.529 57.2929 36.3857 57.3863 37.3491C57.4796 38.3125 58.3363 39.0178 59.2997 38.9244Z" fill="current"/>
<path fill-rule="evenodd" clip-rule="evenodd" d="M14.8248 10.6896C14.8248 8.79432 16.3583 7.24365 18.2535 7.24365H30.6072C31.5203 7.24365 32.3991 7.60547 33.0365 8.2602L41.3585 16.5821C42.0132 17.2196 42.375 18.0983 42.375 19.0115V38.257C42.375 40.1522 40.8243 41.7029 38.9291 41.7029H18.2363C16.3411 41.7029 14.8076 40.1522 14.8076 38.257L14.8248 10.6896ZM30.3143 9.82809V17.5814C30.3143 18.529 31.0896 19.3044 32.0372 19.3044H39.7906L30.3143 9.82809Z" fill="current"/>
</svg>
