<svg width="75" height="75" viewBox="0 0 75 75" fill="none" xmlns="http://www.w3.org/2000/svg">
<path fill-rule="evenodd" clip-rule="evenodd" d="M25.1823 30.34L31.34 48.7525C31.7673 48.7696 32.1991 48.8231 32.6315 48.9154C36.7113 49.7858 39.3079 53.7744 38.431 57.8242C37.5541 61.874 33.5359 64.4514 29.456 63.581C25.3761 62.7106 22.7796 58.722 23.6565 54.6722C24.0954 52.6449 25.3215 50.9866 26.9485 49.9451L20.6499 31.1115C15.4053 30.7967 11.25 26.475 11.25 21.1899C11.25 15.7003 15.7333 11.25 21.2637 11.25C26.0374 11.25 30.031 14.5657 31.0345 19.0036L48.9991 18.8911C49.8957 16.131 52.3716 14.022 55.4646 13.7245C59.6182 13.3249 63.3117 16.3433 63.7142 20.4662C64.1168 24.5892 61.076 28.2554 56.9224 28.655C53.261 29.0073 49.9571 26.7035 48.9498 23.3285L31.0197 23.4408C30.8468 24.182 30.5904 24.8915 30.2608 25.5589L46.8116 37.8563C48.088 37.1582 49.5811 36.8184 51.1416 36.9603C55.2972 37.3382 58.3575 40.9884 57.9768 45.1134C57.5962 49.2384 53.9188 52.2761 49.7632 51.8983C45.6075 51.5204 42.5473 47.8702 42.9279 43.7452C43.0011 42.9523 43.196 42.1996 43.4928 41.5037L27.0616 29.2952C26.4784 29.707 25.8489 30.0583 25.1823 30.34ZM27.0287 21.1898C27.0287 24.3502 24.4477 26.9122 21.2638 26.9122C18.0799 26.9122 15.4989 24.3502 15.4989 21.1898C15.4989 18.0294 18.0799 15.4674 21.2638 15.4674C24.4477 15.4674 27.0287 18.0294 27.0287 21.1898ZM56.47 24.0222C58.0459 23.8706 59.1997 22.4796 59.0469 20.9153C58.8942 19.351 57.4928 18.2058 55.9169 18.3574C54.341 18.509 53.1873 19.9 53.34 21.4643C53.4928 23.0286 54.8941 24.1738 56.47 24.0222ZM50.191 47.2631C51.7677 47.4064 53.1629 46.2539 53.3073 44.6888C53.4518 43.1238 52.2907 41.7388 50.714 41.5954C49.1373 41.4521 47.742 42.6046 47.5976 44.1697C47.4532 45.7348 48.6143 47.1197 50.191 47.2631ZM33.8465 56.8461C33.5138 58.3827 31.9892 59.3606 30.4413 59.0303C28.8933 58.7001 27.9082 57.1867 28.2409 55.6502C28.5736 54.1137 30.0982 53.1358 31.6461 53.466C33.194 53.7963 34.1792 55.3096 33.8465 56.8461Z" fill="black"/>
</svg>
