<svg width="75" height="75" viewBox="0 0 75 75" fill="none" xmlns="http://www.w3.org/2000/svg">
<path d="M11.25 17.1397C11.25 13.8771 13.8771 11.25 17.1397 11.25L37.616 11.25C40.8787 11.25 43.5057 13.8771 43.5057 17.1397V37.6161C43.5057 40.8787 40.8787 43.5058 37.616 43.5058H33.0387V30.8958H37.7511L37.9658 26.3558H33.0387V23.0405C33.0387 21.7887 33.3012 21.0346 34.9378 21.0346C36.45 21.0346 37.8358 21.0477 37.8358 21.0477L37.9426 16.8081C37.9426 16.8081 36.5838 16.6317 34.7463 16.6317C30.2078 16.6317 28.2377 19.4297 28.2377 22.477V26.3558H24.9033V30.8958H28.2377V43.5058H17.1397C13.8771 43.5058 11.25 40.8787 11.25 37.6161V17.1397Z" fill="black"/>
<path fill-rule="evenodd" clip-rule="evenodd" d="M41.2523 54.8892L38.4833 46.548H39.5474C40.1659 46.548 40.7653 46.4685 41.3358 46.3192L43.9369 54.1546C44.1982 54.1651 44.4622 54.1981 44.7266 54.2549C47.2207 54.791 48.808 57.2474 48.2719 59.7415C47.7359 62.2357 45.2794 63.823 42.7853 63.2869C40.2912 62.7509 38.7039 60.2944 39.2399 57.8003C39.5083 56.5519 40.2577 55.5306 41.2523 54.8892ZM45.4693 59.1392C45.2659 60.0855 44.3339 60.6877 43.3876 60.4843C42.4413 60.281 41.8391 59.349 42.0425 58.4027C42.2459 57.4564 43.1779 56.8541 44.1242 57.0575C45.0705 57.2609 45.6727 58.1929 45.4693 59.1392Z" fill="black"/>
<path fill-rule="evenodd" clip-rule="evenodd" d="M51.366 49.6906L44.4728 44.5308C45.1902 43.8219 45.7542 42.9583 46.1121 41.9929L53.3948 47.4442C54.1752 47.0142 55.088 46.805 56.042 46.8924C58.5824 47.1251 60.4532 49.3731 60.2205 51.9136C59.9878 54.454 57.7397 56.3248 55.1993 56.0921C52.6589 55.8594 50.7881 53.6113 51.0208 51.0709C51.0655 50.5827 51.1847 50.1192 51.366 49.6906ZM55.4608 53.2375C56.4247 53.3258 57.2776 52.616 57.3659 51.6521C57.4542 50.6882 56.7444 49.8353 55.7805 49.747C54.8167 49.6587 53.9637 50.3685 53.8754 51.3324C53.7871 52.2962 54.4969 53.1492 55.4608 53.2375Z" fill="black"/>
<path fill-rule="evenodd" clip-rule="evenodd" d="M46.548 35.8159V38.5485L54.7023 38.4971C55.3181 40.5756 57.3378 41.9944 59.5761 41.7775C62.1153 41.5314 63.9742 39.2735 63.7281 36.7343C63.482 34.1951 61.2241 32.3362 58.6849 32.5823C56.7941 32.7655 55.2805 34.0644 54.7324 35.7642L46.548 35.8159ZM59.2996 38.9243C60.263 38.8309 60.9683 37.9742 60.8749 37.0108C60.7815 36.0474 59.9248 35.3421 58.9615 35.4355C57.9981 35.5289 57.2928 36.3855 57.3861 37.3489C57.4795 38.3123 58.3362 39.0176 59.2996 38.9243Z" fill="black"/>
</svg>
