<svg width="75" height="75" viewBox="0 0 75 75" fill="none" xmlns="http://www.w3.org/2000/svg">
<path fill-rule="evenodd" clip-rule="evenodd" d="M24.8713 20.1253C23.8138 20.5619 22.853 21.2018 22.0437 22.0085C20.4091 23.6377 19.4909 25.8474 19.4909 28.1514C19.4909 30.4555 20.4091 32.6651 22.0437 34.2943C23.6782 35.9235 25.8951 36.8388 28.2066 36.8388C30.5182 36.8388 32.7351 35.9235 34.3696 34.2943C35.1789 33.4876 35.8209 32.5299 36.2589 31.4759C36.6969 30.4219 36.9224 29.2923 36.9224 28.1514C36.9224 27.0106 36.6969 25.8809 36.2589 24.8269C35.8209 23.7729 35.1789 22.8152 34.3696 22.0085C33.5603 21.2018 32.5995 20.5619 31.542 20.1253C30.4846 19.6888 29.3512 19.4641 28.2066 19.4641C27.0621 19.4641 25.9287 19.6888 24.8713 20.1253ZM29.8513 33.5533C28.5972 33.9313 27.2504 33.8635 26.0408 33.3617C25.2682 33.0424 24.5763 32.5563 24.0148 31.9385C23.4534 31.3206 23.0363 30.5864 22.7937 29.7886C22.5511 28.9908 22.4889 28.1493 22.6117 27.3247C22.7346 26.5001 23.0393 25.713 23.5039 25.0198C23.9686 24.3267 24.5817 23.7449 25.299 23.3163C26.0164 22.8877 26.8201 22.6229 27.6525 22.5411C28.4848 22.4593 29.3249 22.5624 30.1125 22.8431C30.9 23.1237 31.6153 23.5749 32.2069 24.1642C33.1349 25.0861 33.713 26.3005 33.8425 27.6C33.972 28.8995 33.6448 30.2035 32.9169 31.2893C32.189 32.3751 31.1054 33.1753 29.8513 33.5533Z" fill="current"/>
<path d="M39.3276 20.0909C39.2165 20.3425 39.056 20.5692 38.8554 20.7578C38.4654 21.1246 37.9473 21.3254 37.4111 21.3176C36.875 21.3098 36.363 21.094 35.9838 20.7161C35.6047 20.3382 35.3882 19.8278 35.3804 19.2934C35.3726 18.759 35.574 18.2426 35.9419 17.8538C36.1311 17.6539 36.3586 17.4939 36.611 17.3832C36.8634 17.2725 37.1354 17.2134 37.4111 17.2094C37.6868 17.2054 37.9605 17.2566 38.216 17.3599C38.4715 17.4632 38.7035 17.6166 38.8985 17.8109C39.0935 18.0052 39.2473 18.2365 39.351 18.4912C39.4546 18.7459 39.506 19.0187 39.5019 19.2934C39.4979 19.5682 39.4386 19.8394 39.3276 20.0909Z" fill="current"/>
<path fill-rule="evenodd" clip-rule="evenodd" d="M28.2066 11.25C23.6006 11.25 23.0241 11.2684 21.2159 11.3514H21.2143C19.4108 11.4344 18.1776 11.7202 17.0985 12.1366C15.9678 12.5613 14.9435 13.2267 14.0972 14.0864C13.2341 14.9304 12.566 15.9518 12.1395 17.0795C11.7217 18.155 11.4334 19.3842 11.3517 21.185C11.27 22.9857 11.25 23.5604 11.25 28.1514C11.25 32.7409 11.2685 33.3156 11.3517 35.121C11.435 36.9187 11.7217 38.1479 12.1395 39.2234C12.5654 40.351 13.233 41.3724 14.0956 42.2165C14.9432 43.0758 15.9684 43.7406 17.1 44.1648C18.1791 44.5827 19.4123 44.87 21.2159 44.9515C23.0241 45.0329 23.6006 45.0529 28.2066 45.0529C32.8127 45.0529 33.3892 45.0344 35.1989 44.9515C37.0025 44.8685 38.2357 44.5827 39.3148 44.1648C40.4447 43.7407 41.4698 43.0769 42.3176 42.2165C43.1798 41.3717 43.8468 40.3498 44.2723 39.2219C44.6916 38.1463 44.9798 36.9171 45.0615 35.1194C45.1432 33.3171 45.1633 32.7425 45.1633 28.1514C45.1633 23.5619 45.1448 22.9873 45.0615 21.1819C44.9783 19.3842 44.6916 18.155 44.2723 17.0795C43.8468 15.9517 43.1809 14.9314 42.3176 14.0879C41.4698 13.2275 40.4447 12.5622 39.3148 12.1366C38.2357 11.7202 37.0025 11.4328 35.1959 11.3514C33.3892 11.27 32.8127 11.25 28.2066 11.25ZM28.2066 14.2953C32.7341 14.2953 33.2705 14.3122 35.0587 14.3937C36.7127 14.469 37.6099 14.744 38.208 14.976C38.9444 15.2467 39.6106 15.6783 40.158 16.239C40.7515 16.8305 41.1168 17.3944 41.4251 18.1827C41.6579 18.7788 41.9338 19.6731 42.0093 21.3217C42.091 23.104 42.108 23.6387 42.108 28.1514C42.108 32.6641 42.091 33.1988 42.0093 34.9811C41.9338 36.6298 41.6579 37.524 41.4251 38.1202C41.1538 38.8531 40.7206 39.5184 40.158 40.0639C39.5645 40.6554 38.9988 41.0196 38.208 41.3269C37.6099 41.5589 36.7127 41.8339 35.0587 41.9092C33.2705 41.9906 32.7356 42.0075 28.2066 42.0075C23.6777 42.0075 23.1428 41.9906 21.3546 41.9092C19.7006 41.8339 18.8034 41.5589 18.2053 41.3269C17.47 41.0564 16.8025 40.6247 16.2553 40.0639C15.6926 39.5184 15.2595 38.8531 14.9882 38.1202C14.7554 37.524 14.4795 36.6298 14.4039 34.9811C14.3222 33.1988 14.3053 32.6641 14.3053 28.1514C14.3053 23.6387 14.3222 23.104 14.4039 21.3217C14.4795 19.6731 14.7554 18.7788 14.9882 18.1827C15.2598 17.4486 15.6927 16.7845 16.2553 16.239C16.8488 15.6474 17.4145 15.2833 18.2053 14.976C18.8034 14.744 19.7006 14.469 21.3546 14.3937C23.1428 14.3122 23.6792 14.2953 28.2066 14.2953Z" fill="current"/>
<path fill-rule="evenodd" clip-rule="evenodd" d="M42.3827 55.7016L40.2726 49.3662C41.0922 49.1965 41.8061 48.9772 42.4739 48.7186C42.582 48.678 42.6894 48.6357 42.796 48.5917L44.9324 55.0062C45.1806 55.0162 45.4313 55.0474 45.6824 55.1012C48.0512 55.6087 49.5588 57.9341 49.0496 60.2952C48.5405 62.6563 46.2075 64.1589 43.8387 63.6515C41.4699 63.144 39.9623 60.8186 40.4715 58.4575C40.7263 57.2756 41.4381 56.3089 42.3827 55.7016ZM46.3872 59.725C46.1941 60.6208 45.3089 61.1909 44.4101 60.9984C43.5114 60.8058 42.9394 59.9235 43.1326 59.0277C43.3257 58.1319 44.2109 57.5618 45.1097 57.7543C46.0084 57.9468 46.5804 58.8291 46.3872 59.725Z" fill="current"/>
<path fill-rule="evenodd" clip-rule="evenodd" d="M51.9883 50.7803L46.133 46.4117C46.1997 46.3475 46.2656 46.2823 46.3307 46.2162C46.9501 45.6094 47.491 44.9313 47.9431 44.1981L53.9151 48.6538C54.6563 48.2467 55.5232 48.0486 56.4293 48.1313C58.8421 48.3516 60.6189 50.4798 60.3979 52.8847C60.1769 55.2897 58.0417 57.0607 55.6289 56.8404C53.2162 56.6201 51.4394 54.4919 51.6604 52.087C51.7028 51.6248 51.816 51.186 51.9883 50.7803ZM55.8772 54.1383C56.7926 54.2219 57.6027 53.5499 57.6866 52.6375C57.7704 51.725 57.0963 50.9176 56.1809 50.834C55.2654 50.7504 54.4553 51.4223 54.3715 52.3348C54.2876 53.2473 54.9618 54.0547 55.8772 54.1383Z" fill="current"/>
<path fill-rule="evenodd" clip-rule="evenodd" d="M49.8254 37.6305C49.76 38.6159 49.6428 39.4629 49.4825 40.2195L55.1569 40.1838C55.7418 42.1515 57.66 43.4946 59.7859 43.2893C62.1974 43.0563 63.963 40.9188 63.7292 38.5151C63.4955 36.1113 61.351 34.3516 58.9394 34.5845C57.1436 34.758 55.7061 35.9876 55.1855 37.5968L49.8254 37.6305ZM59.5238 40.5883C60.4388 40.4999 61.1086 39.6889 61.02 38.7769C60.9313 37.8649 60.1177 37.1972 59.2027 37.2856C58.2877 37.374 57.6178 38.185 57.7065 39.097C57.7952 40.009 58.6088 40.6767 59.5238 40.5883Z" fill="current"/>
</svg>
