<svg width="75" height="75" viewBox="0 0 75 75" fill="none" xmlns="http://www.w3.org/2000/svg">
<path d="M46.013 17.0719C47.6495 16.8758 49.2062 16.4419 50.6553 15.7998L50.6519 15.805C49.567 17.4275 48.2019 18.8438 46.6204 19.9875C46.636 20.3346 46.6447 20.6851 46.6447 21.0322C46.6447 31.7157 38.5141 44.034 23.6412 44.034C19.2476 44.0389 14.9456 42.7778 11.25 40.4017C11.8905 40.477 12.5349 40.5147 13.1798 40.5145C16.8206 40.5198 20.3574 39.3004 23.2212 37.0522C21.5342 37.0213 19.8991 36.4636 18.5448 35.4572C17.1905 34.4508 16.1848 33.0461 15.6685 31.4398C16.8804 31.6707 18.129 31.6232 19.3199 31.3009C17.49 30.9312 15.8443 29.9397 14.6622 28.4947C13.4801 27.0497 12.8343 25.2403 12.8345 23.3734V23.2692C13.9571 23.8933 15.2125 24.2402 16.4963 24.281C15.3893 23.5418 14.482 22.5407 13.8547 21.3667C13.2274 20.1927 12.8996 18.882 12.9004 17.5509C12.9004 16.0723 13.2996 14.6839 13.9938 13.4865C16.024 15.9841 18.5567 18.0269 21.4275 19.4823C24.2983 20.9377 27.443 21.7733 30.6576 21.9347C30.2507 20.2005 30.4277 18.3805 31.1612 16.7573C31.8946 15.134 33.1435 13.7983 34.7138 12.9576C36.2842 12.1168 38.0882 11.818 39.8457 12.1076C41.6033 12.3972 43.2161 13.2589 44.4337 14.559C46.2444 14.2035 47.9807 13.5402 49.5672 12.5979C48.9649 14.4713 47.7016 16.0615 46.013 17.0719Z" fill="current"/>
<path fill-rule="evenodd" clip-rule="evenodd" d="M38.1679 52.7492L35.8042 45.6289C36.7691 45.1117 37.6917 44.5451 38.5717 43.9347L41.2206 51.9139C41.5177 51.9259 41.8179 51.9634 42.1185 52.028C44.9546 52.6376 46.7595 55.4308 46.15 58.2668C45.5404 61.1029 42.7472 62.9078 39.9112 62.2982C37.0751 61.6887 35.2702 58.8955 35.8797 56.0594C36.1848 54.6398 37.0371 53.4786 38.1679 52.7492ZM42.9627 57.5819C42.7315 58.6579 41.6717 59.3427 40.5957 59.1114C39.5196 58.8802 38.8348 57.8204 39.0661 56.7444C39.2974 55.6683 40.3571 54.9835 41.4332 55.2148C42.5092 55.4461 43.194 56.5058 42.9627 57.5819Z" fill="current"/>
<path fill-rule="evenodd" clip-rule="evenodd" d="M49.6683 46.8377L42.0264 41.1176C42.8644 40.3196 43.6495 39.4775 44.3809 38.5989L51.9752 44.2834C52.8625 43.7945 53.9004 43.5565 54.9853 43.6559C57.874 43.9205 60.0013 46.4768 59.7367 49.3655C59.472 52.2542 56.9158 54.3815 54.0271 54.1169C51.1383 53.8523 49.0111 51.296 49.2757 48.4073C49.3265 47.8521 49.462 47.3251 49.6683 46.8377ZM54.3253 50.8707C55.4213 50.9711 56.3912 50.164 56.4915 49.068C56.5919 47.972 55.7848 47.0021 54.6888 46.9017C53.5928 46.8013 52.6229 47.6085 52.5225 48.7045C52.4221 49.8005 53.2292 50.7704 54.3253 50.8707Z" fill="current"/>
<path fill-rule="evenodd" clip-rule="evenodd" d="M49.0285 31.0302C48.5677 32.0904 48.0467 33.1323 47.4664 34.1473L53.4619 34.1095C54.162 36.4731 56.4587 38.0865 59.0039 37.8398C61.8912 37.56 64.005 34.9925 63.7251 32.1052C63.4453 29.2179 60.8778 27.1042 57.9906 27.384C55.8406 27.5924 54.1195 29.0692 53.4962 31.002L49.0285 31.0302ZM58.6899 34.5955C59.7854 34.4894 60.5873 33.5152 60.4812 32.4198C60.375 31.3243 59.4009 30.5223 58.3054 30.6285C57.2099 30.7347 56.408 31.7088 56.5141 32.8042C56.6203 33.8997 57.5944 34.7017 58.6899 34.5955Z" fill="current"/>
</svg>
