<?xml version="1.0" encoding="UTF-8"?>
<!-- Generated by Pixelmator Pro 3.3.13 -->
<svg width="75" height="75" viewBox="0 0 75 75" xmlns="http://www.w3.org/2000/svg">
    <path id="Path" fill="#000000" fill-rule="evenodd" stroke="none" d="M 38.1679 52.749199 L 35.804199 45.628899 C 36.7691 45.111698 37.6917 44.545101 38.571701 43.9347 L 41.2206 51.913898 C 41.5177 51.9259 41.817902 51.963402 42.1185 52.028 C 44.954601 52.6376 46.759499 55.430801 46.150002 58.2668 C 45.540401 61.102901 42.7472 62.907799 39.911201 62.298199 C 37.0751 61.688702 35.270199 58.8955 35.8797 56.059399 C 36.184799 54.639801 37.037102 53.4786 38.1679 52.749199 Z M 42.9627 57.581902 C 42.731499 58.657902 41.6717 59.342701 40.595699 59.111401 C 39.5196 58.880199 38.834801 57.8204 39.066101 56.7444 C 39.297401 55.668301 40.357101 54.983501 41.433201 55.214802 C 42.509201 55.446098 43.194 56.505798 42.9627 57.581902 Z"/>
    <path id="Path-copy" fill="#000000" stroke="none" d="M 29.634846 20.382111 L 41.291412 6.832298 L 38.529179 6.832298 L 28.407785 18.597408 L 20.323854 6.832298 L 11 6.832298 L 23.224487 24.623234 L 11 38.832294 L 13.76239 38.832294 L 24.450846 26.407936 L 32.988064 38.832294 L 42.31192 38.832294 L 29.634169 20.382111 L 29.634846 20.382111 Z M 25.851374 24.779976 L 24.61278 23.0084 L 14.757717 8.911781 L 19.000587 8.911781 L 26.953737 20.288204 L 28.192331 22.05978 L 38.530483 36.847382 L 34.287617 36.847382 L 25.851374 24.780655 L 25.851374 24.779976 Z"/>
    <path id="path1" fill="#000000" fill-rule="evenodd" stroke="none" d="M 49.668301 46.8377 L 42.026402 41.117599 C 42.864399 40.319599 43.649502 39.477501 44.380901 38.5989 L 51.975201 44.283401 C 52.862499 43.794498 53.900398 43.556499 54.985298 43.655899 C 57.874001 43.920502 60.001301 46.476799 59.736698 49.365501 C 59.472 52.2542 56.915798 54.3815 54.0271 54.116901 C 51.138302 53.852299 49.011101 51.296001 49.2757 48.407299 C 49.3265 47.8521 49.462002 47.3251 49.668301 46.8377 Z M 54.325298 50.870701 C 55.421299 50.9711 56.391201 50.164001 56.491501 49.068001 C 56.5919 47.972 55.784801 47.002102 54.688801 46.901699 C 53.5928 46.8013 52.622898 47.608501 52.522499 48.704498 C 52.4221 49.800499 53.229198 50.770401 54.325298 50.870701 Z"/>
    <path id="path2" fill="#000000" fill-rule="evenodd" stroke="none" d="M 49.0285 31.030197 C 48.567699 32.090401 48.0467 33.132301 47.4664 34.147301 L 53.461899 34.109501 C 54.161999 36.473099 56.458698 38.086498 59.003899 37.839802 C 61.891201 37.560001 64.004997 34.9925 63.725101 32.105202 C 63.445301 29.217899 60.8778 27.104202 57.990601 27.384003 C 55.840599 27.5924 54.119499 29.069199 53.496201 31.001999 L 49.0285 31.030197 Z M 58.689899 34.595501 C 59.7854 34.489399 60.587299 33.515202 60.481201 32.4198 C 60.375 31.324303 59.400902 30.522301 58.305401 30.628502 C 57.2099 30.734699 56.408001 31.708801 56.514099 32.804199 C 56.6203 33.8997 57.594398 34.701698 58.689899 34.595501 Z"/>
</svg>
