<svg width="75" height="75" viewBox="0 0 75 75" fill="none" xmlns="http://www.w3.org/2000/svg">
<path d="M14.1299 13.5C12.5394 13.5 11.25 14.7894 11.25 16.3799L11.25 49.0956C11.25 50.6861 12.5394 51.9755 14.1299 51.9755C15.7204 51.9755 17.0098 50.6861 17.0098 49.0956L17.0098 21.8776C17.0098 21.8776 16.9163 20.6124 17.6392 19.8895C18.3621 19.1667 19.6276 19.2598 19.6276 19.2598L50.7619 19.2598C52.3524 19.2598 53.6418 17.9704 53.6418 16.3799C53.6418 14.7894 52.3524 13.5 50.7619 13.5H14.1299Z" fill="black"/>
<path fill-rule="evenodd" clip-rule="evenodd" d="M24.8015 23.6643C22.9303 23.6643 21.4134 25.1812 21.4134 27.0524V58.5717C21.4134 60.4429 22.9303 61.9599 24.8015 61.9599H60.3619C62.2331 61.9599 63.75 60.4429 63.75 58.5717V27.0524C63.75 25.1812 62.2331 23.6643 60.3619 23.6643H24.8015ZM59.5853 28.0627H55.2748V32.3733H59.5853V28.0627ZM55.2748 36.4134H59.5853V40.7239H55.2748V36.4134ZM59.5853 44.7642H55.2748V49.0747H59.5853V44.7642ZM55.2748 53.3987H59.5853V57.7092H55.2748V53.3987ZM29.975 28.0629H25.6645V32.3734H29.975V28.0629ZM25.6643 36.4134H29.9748V40.7239H25.6643V36.4134ZM29.9748 44.7642H25.6643V49.0747H29.9748V44.7642ZM25.6643 53.3987H29.9748V57.7092H25.6643V53.3987Z" fill="black"/>
</svg>
