<svg width="75" height="75" viewBox="0 0 75 75" fill="none" xmlns="http://www.w3.org/2000/svg">
<path d="M62.6507 25.7442C62.3535 24.6839 61.7745 23.7239 60.9753 22.9664C60.1535 22.1856 59.1463 21.6271 58.0488 21.3435C53.9412 20.2608 37.4847 20.2608 37.4847 20.2608C30.6242 20.1828 23.7653 20.5261 16.9468 21.2888C15.8493 21.5933 14.844 22.1643 14.0204 22.9511C13.2111 23.7298 12.6249 24.6899 12.3187 25.742C11.5831 29.7046 11.2257 33.7282 11.2513 37.7585C11.2251 41.7851 11.5816 45.8074 12.3187 49.775C12.6184 50.8227 13.2023 51.7785 14.0138 52.5506C14.8252 53.3227 15.8357 53.8804 16.9468 54.1757C21.1091 55.2561 37.4847 55.2561 37.4847 55.2561C44.354 55.3343 51.2216 54.991 58.0488 54.2282C59.1463 53.9446 60.1535 53.3861 60.9753 52.6052C61.7846 51.8332 62.3598 50.873 62.6485 49.8275C63.4033 45.8664 63.7703 41.8411 63.7443 37.8088C63.8011 33.7594 63.4345 29.7152 62.6507 25.742V25.7442ZM32.2529 45.2475V30.2717L45.9448 37.7607L32.2529 45.2475Z" fill="black"/>
</svg>
