<svg width="75" height="75" viewBox="0 0 75 75" fill="none" xmlns="http://www.w3.org/2000/svg">
<path d="M32.4598 34.5074C32.5911 33.6411 32.8798 32.8799 33.2473 32.2236C33.6148 31.5674 34.1398 31.0161 34.7961 30.5961C35.4261 30.2024 36.2136 30.0186 37.1848 29.9924C37.7886 30.0186 38.3398 30.1236 38.8386 30.3336C39.3636 30.5699 39.8361 30.8849 40.2036 31.2786C40.5711 31.6724 40.8598 32.1449 41.0961 32.6699C41.3323 33.1949 41.4373 33.7724 41.4636 34.3499H46.1623C46.1098 33.1161 45.8736 31.9874 45.4273 30.9636C44.9811 29.9399 44.3773 29.0474 43.5898 28.3124C42.8023 27.5774 41.8573 26.9999 40.7548 26.5799C39.6523 26.1599 38.4448 25.9761 37.1061 25.9761C35.3998 25.9761 33.9036 26.2649 32.6436 26.8686C31.3836 27.4724 30.3336 28.2599 29.4936 29.2836C28.6536 30.3074 28.0236 31.4886 27.6298 32.8536C27.2361 34.2186 26.9998 35.6361 26.9998 37.1586V37.8674C26.9998 39.3899 27.2098 40.8074 27.6036 42.1724C27.9973 43.5374 28.6273 44.7186 29.4673 45.7161C30.3073 46.7136 31.3573 47.5274 32.6173 48.1049C33.8773 48.6824 35.3736 48.9974 37.0798 48.9974C38.3136 48.9974 39.4686 48.7874 40.5448 48.3936C41.6211 47.9999 42.5661 47.4486 43.3798 46.7399C44.1936 46.0311 44.8498 45.2174 45.3223 44.2724C45.7948 43.3274 46.0836 42.3299 46.1098 41.2536H41.4111C41.3848 41.8049 41.2536 42.3036 41.0173 42.7761C40.7811 43.2486 40.4661 43.6424 40.0723 43.9836C39.6786 44.3249 39.2323 44.5874 38.7073 44.7711C38.2086 44.9549 37.6836 45.0074 37.1323 45.0336C36.1873 45.0074 35.3998 44.8236 34.7961 44.4299C34.1398 44.0099 33.6148 43.4586 33.2473 42.8024C32.8798 42.1461 32.5911 41.3586 32.4598 40.4924C32.3286 39.6261 32.2498 38.7336 32.2498 37.8674V37.1586C32.2498 36.2399 32.3286 35.3736 32.4598 34.5074Z" fill="black"/>
<path fill-rule="evenodd" clip-rule="evenodd" d="M37.5 11.25C23.01 11.25 11.25 23.01 11.25 37.5C11.25 51.99 23.01 63.75 37.5 63.75C51.99 63.75 63.75 51.99 63.75 37.5C63.75 23.01 51.99 11.25 37.5 11.25ZM16.4997 37.4999C16.4997 49.0762 25.9235 58.4999 37.4997 58.4999C49.076 58.4999 58.4997 49.0762 58.4997 37.4999C58.4997 25.9237 49.076 16.4999 37.4997 16.4999C25.9235 16.4999 16.4997 25.9237 16.4997 37.4999Z" fill="black"/>
</svg>
