<svg width="75" height="75" viewBox="0 0 75 75" fill="none" xmlns="http://www.w3.org/2000/svg">
<path fill-rule="evenodd" clip-rule="evenodd" d="M15.4515 13.5C13.1311 13.5 11.25 15.3811 11.25 17.7015V56.7874C11.25 59.1078 13.1311 60.9888 15.4515 60.9888H59.5485C61.8689 60.9888 63.75 59.1078 63.75 56.7874V17.7015C63.75 15.3811 61.8689 13.5 59.5485 13.5H15.4515ZM58.5846 18.9543H53.2393V24.2996H58.5846V18.9543ZM53.2393 29.3097H58.5846V34.655H53.2393V29.3097ZM58.5846 39.6651H53.2393V45.0104H58.5846V39.6651ZM53.2393 50.3725H58.5846V55.7178H53.2393V50.3725ZM21.8658 18.9543H16.5205V24.2996H21.8658V18.9543ZM16.5205 29.3097H21.8658V34.655H16.5205V29.3097ZM21.8658 39.6651H16.5205V45.0104H21.8658V39.6651ZM16.5205 50.3725H21.8658V55.7178H16.5205V50.3725ZM39.5698 29.0528C39.5698 30.1951 38.6438 31.1212 37.5014 31.1212C36.3591 31.1212 35.433 30.1951 35.433 29.0528C35.433 27.9104 36.3591 26.9844 37.5014 26.9844C38.6438 26.9844 39.5698 27.9104 39.5698 29.0528ZM37.5 47.5045C36.3569 47.5045 35.4302 46.5778 35.4302 45.4347V37.3032C35.4302 36.1601 36.3569 35.2334 37.5 35.2334C38.6432 35.2334 39.5698 36.1601 39.5698 37.3032V45.4347C39.5698 46.5778 38.6432 47.5045 37.5 47.5045Z" fill="black"/>
</svg>
