<svg width="75" height="75" viewBox="0 0 75 75" fill="none" xmlns="http://www.w3.org/2000/svg">
<path fill-rule="evenodd" clip-rule="evenodd" d="M11.25 17.7015C11.25 15.3811 13.1311 13.5 15.4515 13.5H59.5485C61.8689 13.5 63.75 15.3811 63.75 17.7015V56.7874C63.75 59.1078 61.8689 60.9888 59.5485 60.9888H15.4515C13.1311 60.9888 11.25 59.1078 11.25 56.7874V17.7015ZM53.2393 18.9543H58.5846V24.2996H53.2393V18.9543ZM58.5846 29.3097H53.2393V34.655H58.5846V29.3097ZM53.2393 39.6651H58.5846V45.0104H53.2393V39.6651ZM58.5846 50.3725H53.2393V55.7178H58.5846V50.3725ZM16.5205 18.9543H21.8658V24.2996H16.5205V18.9543ZM21.8658 29.3097H16.5205V34.655H21.8658V29.3097ZM16.5205 39.6651H21.8658V45.0104H16.5205V39.6651ZM21.8658 50.3725H16.5205V55.7178H21.8658V50.3725Z" fill="current"/>
</svg>
