<?xml version="1.0" encoding="UTF-8" standalone="no"?><!DOCTYPE svg PUBLIC "-//W3C//DTD SVG 1.1//EN" "http://www.w3.org/Graphics/SVG/1.1/DTD/svg11.dtd"><svg width="100%" height="100%" viewBox="0 0 13781 3403" version="1.1" xmlns="http://www.w3.org/2000/svg" xmlns:xlink="http://www.w3.org/1999/xlink" xml:space="preserve" xmlns:serif="http://www.serif.com/" style="fill-rule:evenodd;clip-rule:evenodd;stroke-linejoin:round;stroke-miterlimit:2;"><rect id="Page-1" serif:id="Page 1" x="0" y="0" width="13780.125" height="3402.779" style="fill:none;"/><g id="Calque-1" serif:id="Calque 1"><path d="M3454.926,1686.866l-193.692,0l0,-259.442l193.692,0c92.721,0 139.717,42.592 139.717,130.775c0,88.179 -46.996,128.667 -139.717,128.667m22.412,-470.954l-451.275,-0.642l0,972.225l235.171,0l0,-288.475l216.104,0c104.954,0 349.067,-34.533 349.067,-341.562c0,-307.029 -244.112,-341.546 -349.067,-341.546m-1050.871,470.954l434.254,0l-137.158,212.154l-297.096,0l0,288.475l-235.171,0l0,-972.225l669.425,0l0,212.154l-434.254,0l0,259.442Zm-430.829,-471.596l0,972.225l-235.154,0l0,-202.871l-421.258,0l-131.146,202.871l-254.237,0l628.429,-972.225l413.367,0Zm-235.154,211.517l-60.687,0l-228.275,353.158l288.962,0l0,-353.158Zm2991.179,-454.562c-402.713,0 -729.167,326.454 -729.167,729.167c0,402.708 326.454,729.167 729.167,729.167c402.708,0 729.167,-326.458 729.167,-729.167c0,-402.713 -326.458,-729.167 -729.167,-729.167" style="fill:#fff;fill-rule:nonzero;"/><path d="M6007.108,1951.812c72.208,0 127.833,-20.75 166.829,-62.292c39,-41.521 58.5,-105.979 58.5,-193.371c0,-86.671 -19.688,-149.858 -59.042,-189.583c-39.371,-39.713 -94.792,-59.588 -166.288,-59.588l-54.167,0l0,504.833l54.167,0Zm-179.833,-606.667l188.496,0c108.333,0 193.004,29.25 254.046,87.75c61.021,58.5 91.542,146.254 91.542,263.254c0,58.5 -7.771,110.142 -23.292,154.912c-15.542,44.788 -37.921,82.167 -67.167,112.125c-29.254,29.979 -64.833,52.542 -106.713,67.708c-41.892,15.167 -89.204,22.75 -141.912,22.75l-195,0l0,-708.5Z" style="fill:#fff;fill-rule:nonzero;"/><path d="M6514.096,1521.729l124.579,0l0,531.917l-124.579,0l0,-531.917Zm62.829,-93.167c-22.392,0 -40.808,-6.5 -55.25,-19.5c-14.454,-12.996 -21.667,-29.958 -21.667,-50.912c0,-20.942 7.213,-38.088 21.667,-51.463c14.442,-13.354 32.858,-20.042 55.25,-20.042c22.379,0 40.796,6.688 55.25,20.042c14.438,13.375 21.667,30.521 21.667,51.463c0,20.954 -7.229,37.917 -21.667,50.912c-14.454,13 -32.871,19.5 -55.25,19.5" style="fill:#fff;fill-rule:nonzero;"/><path d="M7011.335,1806.647c25.271,0 46.942,-9.208 65,-27.625c18.046,-18.417 27.083,-44.958 27.083,-79.625c0,-33.208 -8.85,-59.042 -26.542,-77.458c-17.708,-18.417 -39.542,-27.625 -65.542,-27.625c-26,0 -48.038,9.037 -66.083,27.083c-18.058,18.062 -27.083,44.062 -27.083,78c0,34.667 9.025,61.208 27.083,79.625c18.046,18.417 40.083,27.625 66.083,27.625m-123.5,325c0,23.833 12.087,42.421 36.292,55.792c24.188,13.358 57.587,20.042 100.208,20.042c43.333,0 78.171,-8.496 104.542,-25.458c26.354,-16.975 39.542,-37.021 39.542,-60.125c0,-20.954 -8.125,-35.038 -24.375,-42.246c-16.25,-7.233 -39.542,-10.838 -69.875,-10.838l-72.583,0c-28.892,0 -53.083,-2.537 -72.583,-7.583c-27.458,20.938 -41.167,44.417 -41.167,70.417m-104,18.417c0,-22.396 6.5,-43.162 19.5,-62.292c13,-19.146 31.771,-36.292 56.333,-51.458l0,-4.333c-13.725,-8.667 -25.104,-20.212 -34.125,-34.667c-9.042,-14.438 -13.542,-32.5 -13.542,-54.167c0,-20.942 5.958,-39.896 17.875,-56.875c11.917,-16.963 25.458,-30.875 40.625,-41.708l0,-4.333c-18.062,-13.708 -34.125,-32.667 -48.208,-56.875c-14.083,-24.192 -21.125,-52.167 -21.125,-83.958c0,-30.333 5.771,-57.417 17.333,-81.25c11.542,-23.833 26.9,-43.875 46.042,-60.125c19.125,-16.25 41.333,-28.521 66.625,-36.833c25.271,-8.292 52,-12.458 80.167,-12.458c14.438,0 28.337,1.271 41.708,3.792c13.354,2.542 25.458,5.604 36.292,9.208l190.667,0l0,92.083l-97.5,0c8.667,10.121 15.879,22.938 21.667,38.458c5.771,15.542 8.667,32.688 8.667,51.458c0,29.621 -5.246,55.621 -15.708,78.004c-10.479,22.392 -24.75,41.162 -42.792,56.329c-18.062,15.167 -39.371,26.729 -63.917,34.667c-24.562,7.958 -50.917,11.917 -79.083,11.917c-11.558,0 -23.479,-1.083 -35.75,-3.25c-12.288,-2.167 -24.562,-5.771 -36.833,-10.833c-7.954,7.229 -14.271,14.458 -18.958,21.667c-4.708,7.225 -7.042,16.975 -7.042,29.25c0,15.167 6.312,27.083 18.958,35.75c12.629,8.667 35.208,13 67.708,13l94.25,0c64.275,0 112.838,10.292 145.708,30.875c32.854,20.583 49.292,53.979 49.292,100.208c0,26 -6.688,50.546 -20.042,73.667c-13.371,23.104 -32.333,42.963 -56.875,59.583c-24.562,16.608 -54.35,29.792 -89.375,39.542c-35.042,9.75 -74.208,14.625 -117.542,14.625c-31.788,0 -61.208,-2.896 -88.292,-8.667c-27.083,-5.792 -50.375,-14.458 -69.875,-26c-19.5,-11.562 -34.854,-26 -46.042,-43.333c-11.208,-17.333 -16.792,-37.558 -16.792,-60.667" style="fill:#fff;fill-rule:nonzero;"/><path d="M7404.571,1521.729l124.579,0l0,531.917l-124.579,0l0,-531.917Zm62.833,-93.167c-22.396,0 -40.808,-6.5 -55.25,-19.5c-14.454,-12.996 -21.667,-29.958 -21.667,-50.912c0,-20.942 7.212,-38.088 21.667,-51.463c14.442,-13.354 32.854,-20.042 55.25,-20.042c22.379,0 40.796,6.688 55.25,20.042c14.437,13.375 21.662,30.521 21.662,51.463c0,20.954 -7.225,37.917 -21.662,50.912c-14.454,13 -32.871,19.5 -55.25,19.5" style="fill:#fff;fill-rule:nonzero;"/><path d="M7728.482,1620.315l-75.833,0l0,-93.167l82.333,-5.417l15.163,-145.167l104,0l0,145.167l135.417,0l0,98.583l-135.417,0l0,253.5c0,62.121 24.921,93.167 74.754,93.167c9.379,0 18.954,-1.088 28.704,-3.25c9.754,-2.171 18.587,-5.046 26.542,-8.667l21.671,92.079c-14.458,5.062 -30.879,9.567 -49.296,13.542c-18.413,3.967 -38.1,5.963 -59.038,5.963c-31.067,0 -57.25,-4.708 -78.542,-14.083c-21.312,-9.379 -38.646,-22.567 -52.004,-39.542c-13.367,-16.962 -23.117,-37.192 -29.246,-60.671c-6.146,-23.454 -9.208,-49.646 -9.208,-78.537l0,-253.5Z" style="fill:#fff;fill-rule:nonzero;"/><path d="M8205.142,1900.897c0,23.833 7.042,41.167 21.125,51.996c14.083,10.838 32.312,16.254 54.708,16.254c21.667,0 41.525,-5.046 59.583,-15.167c18.046,-10.108 36.838,-24.542 56.338,-43.333l0,-119.167c-36.125,4.333 -66.458,10.121 -91,17.333c-24.562,7.229 -44.25,15.354 -59.042,24.375c-14.812,9.037 -25.462,19.333 -31.958,30.875c-6.504,11.562 -9.754,23.833 -9.754,36.833m-121.333,9.75c0,-57.046 24.917,-101.108 74.75,-132.167c49.833,-31.046 129.275,-52.708 238.338,-65c0,-13.713 -1.812,-26.896 -5.417,-39.542c-3.625,-12.625 -9.208,-23.833 -16.796,-33.583c-7.583,-9.75 -17.333,-17.333 -29.25,-22.75c-11.912,-5.417 -26.912,-8.125 -44.958,-8.125c-26.725,0 -52.538,5.063 -77.458,15.167c-24.913,10.121 -48.933,22.396 -72.042,36.833l-45.5,-83.417c29.608,-18.771 62.646,-35.021 99.125,-48.75c36.462,-13.713 76.004,-20.583 118.629,-20.583c67.163,0 116.996,19.688 149.5,59.042c32.5,39.375 48.746,96.246 48.746,170.625l0,315.25l-101.833,0l-9.746,-58.5l-3.254,0c-23.829,20.229 -49.292,37.204 -76.375,50.917c-27.083,13.712 -56.517,20.583 -88.288,20.583c-46.958,0 -85.042,-14.254 -114.296,-42.792c-29.246,-28.521 -43.875,-66.254 -43.875,-113.208" style="fill:#fff;fill-rule:nonzero;"/><path d="M8694.807,1288.814l124.579,0l0,634.833c0,15.167 2.879,25.829 8.667,31.958c5.775,6.142 11.921,9.208 18.417,9.208l8.129,0c2.521,0 6.312,-0.712 11.371,-2.167l16.25,93.167c-16.621,7.208 -38.642,10.833 -66.083,10.833c-44.788,0 -76.204,-13.358 -94.246,-40.083c-18.062,-26.713 -27.083,-63.192 -27.083,-109.417l0,-628.333Z" style="fill:#fff;fill-rule:nonzero;"/><path d="M9219.119,1788.23c0,-44.042 7.208,-83.417 21.667,-118.083c14.438,-34.667 33.938,-63.917 58.5,-87.75c24.546,-23.833 52.9,-42.062 85.038,-54.708c32.129,-12.629 65.9,-18.958 101.296,-18.958c34.667,0 64.817,5.958 90.458,17.875c25.625,11.917 47.479,26.542 65.537,43.875l-59.579,79.083c-14.454,-12.271 -28.896,-21.837 -43.333,-28.708c-14.458,-6.854 -29.979,-10.292 -46.583,-10.292c-43.333,0 -78.371,16.083 -105.083,48.208c-26.729,32.146 -40.083,75.292 -40.083,129.458c0,53.454 13.171,96.25 39.542,128.375c26.354,32.142 60.483,48.208 102.375,48.208c21.663,0 41.708,-4.5 60.125,-13.542c18.417,-9.021 34.833,-19.671 49.292,-31.958l51.996,79.083c-25.288,22.392 -53.079,39.375 -83.413,50.917c-30.333,11.546 -60.671,17.333 -91,17.333c-36.125,0 -69.875,-6.142 -101.292,-18.417c-31.417,-12.271 -58.683,-30.333 -81.792,-54.167c-23.121,-23.833 -41.167,-53.083 -54.167,-87.75c-13,-34.667 -19.5,-74.025 -19.5,-118.083" style="fill:#fff;fill-rule:nonzero;"/><path d="M9843.118,1788.23c0,53.454 11.004,96.25 33.042,128.375c22.025,32.142 52.542,48.208 91.542,48.208c39,0 69.688,-16.067 92.083,-48.208c22.379,-32.125 33.588,-74.921 33.588,-128.375c0,-54.167 -11.208,-97.312 -33.588,-129.458c-22.396,-32.125 -53.083,-48.208 -92.083,-48.208c-39,0 -69.517,16.083 -91.542,48.208c-22.037,32.146 -33.042,75.292 -33.042,129.458m-127.833,0c0,-44.042 6.858,-83.417 20.583,-118.083c13.712,-34.667 32.317,-63.917 55.792,-87.75c23.463,-23.833 50.375,-42.062 80.713,-54.708c30.329,-12.629 62.104,-18.958 95.329,-18.958c33.212,0 65.171,6.329 95.875,18.958c30.688,12.646 57.583,30.875 80.708,54.708c23.104,23.833 41.708,53.083 55.792,87.75c14.083,34.667 21.125,74.042 21.125,118.083c0,44.058 -7.042,83.417 -21.125,118.083c-14.083,34.667 -32.688,63.917 -55.792,87.75c-23.125,23.833 -50.021,41.896 -80.708,54.167c-30.704,12.275 -62.663,18.417 -95.875,18.417c-33.225,0 -65,-6.142 -95.329,-18.417c-30.338,-12.271 -57.25,-30.333 -80.713,-54.167c-23.475,-23.833 -42.079,-53.083 -55.792,-87.75c-13.725,-34.667 -20.583,-74.025 -20.583,-118.083" style="fill:#fff;fill-rule:nonzero;"/><path d="M10360.949,1521.73l124.583,0l0,317.417c0,44.062 6.5,75.121 19.5,93.167c13,18.062 33.942,27.083 62.833,27.083c23.108,0 43.504,-5.775 61.213,-17.333c17.688,-11.546 36.646,-30.333 56.871,-56.333l0,-364l124.583,0l0,531.917l-101.833,0l-9.75,-78.004l-3.25,0c-23.121,27.458 -48.204,49.479 -75.288,66.087c-27.083,16.604 -59.042,24.917 -95.875,24.917c-57.067,0 -98.583,-18.233 -124.587,-54.708c-26,-36.462 -39,-88.646 -39,-156.542l0,-333.667Z" style="fill:#fff;fill-rule:nonzero;"/><path d="M10990.367,1521.73l102.913,0l8.667,94.25l4.333,0c18.775,-34.667 41.525,-61.208 68.25,-79.625c26.712,-18.417 54.167,-27.625 82.337,-27.625c25.267,0 45.5,3.625 60.667,10.833l-21.671,108.333c-9.396,-2.875 -18.062,-5.042 -26,-6.5c-7.954,-1.438 -17.704,-2.167 -29.246,-2.167c-20.958,0 -42.979,8.125 -66.087,24.375c-23.121,16.25 -42.975,44.604 -59.583,85.042l0,325l-124.579,0l0,-531.917Z" style="fill:#fff;fill-rule:nonzero;"/><path d="M11410.692,1912.815c23.833,18.787 47.483,33.413 70.954,43.871c23.462,10.479 48.925,15.713 76.375,15.713c28.879,0 50.192,-5.963 63.921,-17.875c13.708,-11.921 20.583,-27.254 20.583,-46.042c0,-10.838 -3.254,-20.4 -9.75,-28.713c-6.504,-8.292 -15.167,-15.704 -26,-22.208c-10.833,-6.496 -23.121,-12.454 -36.833,-17.875c-13.729,-5.417 -27.458,-11 -41.167,-16.787c-17.333,-6.504 -35.038,-14.083 -53.083,-22.75c-18.062,-8.667 -34.125,-19.129 -48.212,-31.417c-14.083,-12.271 -25.642,-26.542 -34.663,-42.796c-9.042,-16.246 -13.542,-35.562 -13.542,-57.954c0,-46.938 17.333,-85.213 51.996,-114.833c34.671,-29.604 81.962,-44.417 141.921,-44.417c36.833,0 70.046,6.5 99.667,19.5c29.604,13 55.25,27.812 76.917,44.417l-57.417,75.833c-18.787,-13.713 -37.75,-24.729 -56.875,-33.042c-19.146,-8.296 -39.188,-12.458 -60.125,-12.458c-26.729,0 -46.417,5.6 -59.042,16.792c-12.646,11.204 -18.958,25.1 -18.958,41.708c0,10.121 3.062,18.958 9.208,26.542c6.125,7.583 14.254,14.454 24.371,20.579c10.108,6.146 21.842,11.75 35.213,16.796c13.354,5.058 27.254,10.121 41.704,15.163c18.046,6.504 36.108,13.917 54.167,22.208c18.046,8.312 34.483,18.604 49.292,30.875c14.796,12.292 26.717,27.271 35.75,44.958c9.029,17.704 13.542,38.833 13.542,63.375c0,23.125 -4.513,44.604 -13.542,64.458c-9.033,19.875 -22.208,37.208 -39.542,52.004c-17.329,14.808 -38.996,26.542 -64.996,35.208c-26.004,8.667 -55.625,13 -88.838,13c-36.833,0 -73.121,-7.046 -108.875,-21.125c-35.75,-14.083 -66.621,-31.588 -92.621,-52.546l58.5,-80.162Z" style="fill:#fff;fill-rule:nonzero;"/><path d="M12215.604,1740.562c0,-42.604 -8.854,-75.829 -26.542,-99.662c-17.704,-23.833 -44.958,-35.754 -81.792,-35.754c-31.792,0 -59.583,11.375 -83.421,34.125c-23.829,22.75 -38.642,56.521 -44.417,101.292l236.171,0Zm-356.417,47.667c0,-43.333 6.854,-82.329 20.579,-116.996c13.712,-34.667 31.958,-63.917 54.712,-87.75c22.75,-23.833 48.921,-42.25 78.542,-55.25c29.604,-13.004 59.938,-19.5 91,-19.5c36.104,0 67.879,6.142 95.333,18.417c27.442,12.287 50.371,29.621 68.788,52c18.421,22.392 32.317,49.121 41.712,80.162c9.375,31.062 14.083,65.004 14.083,101.833c0,24.562 -1.812,44.062 -5.417,58.5l-338,0c5.771,48.396 22.562,85.588 50.375,111.588c27.796,25.996 63.375,38.996 106.708,38.996c23.104,0 44.583,-3.417 64.458,-10.292c19.854,-6.854 39.542,-16.417 59.042,-28.704l42.25,77.996c-25.292,16.625 -53.458,30.338 -84.5,41.167c-31.062,10.833 -63.562,16.254 -97.5,16.254c-36.833,0 -71.146,-6.333 -102.917,-18.963c-31.788,-12.625 -59.583,-30.871 -83.417,-54.708c-23.837,-23.833 -42.433,-52.896 -55.792,-87.208c-13.371,-34.292 -20.042,-73.479 -20.042,-117.542" style="fill:#fff;fill-rule:nonzero;"/><path d="M12470.177,1912.815c23.833,18.787 47.483,33.413 70.954,43.871c23.462,10.479 48.925,15.713 76.375,15.713c28.879,0 50.192,-5.963 63.921,-17.875c13.708,-11.921 20.583,-27.254 20.583,-46.042c0,-10.838 -3.254,-20.4 -9.75,-28.713c-6.504,-8.292 -15.167,-15.704 -26,-22.208c-10.833,-6.496 -23.121,-12.454 -36.833,-17.875c-13.729,-5.417 -27.458,-11 -41.167,-16.787c-17.333,-6.504 -35.038,-14.083 -53.083,-22.75c-18.062,-8.667 -34.125,-19.129 -48.212,-31.417c-14.083,-12.271 -25.642,-26.542 -34.663,-42.796c-9.042,-16.246 -13.542,-35.562 -13.542,-57.954c0,-46.938 17.333,-85.213 51.996,-114.833c34.671,-29.604 81.962,-44.417 141.921,-44.417c36.833,0 70.046,6.5 99.667,19.5c29.604,13 55.25,27.812 76.917,44.417l-57.417,75.833c-18.787,-13.713 -37.75,-24.729 -56.875,-33.042c-19.146,-8.296 -39.188,-12.458 -60.125,-12.458c-26.729,0 -46.417,5.6 -59.042,16.792c-12.646,11.204 -18.958,25.1 -18.958,41.708c0,10.121 3.062,18.958 9.208,26.542c6.125,7.583 14.254,14.454 24.371,20.579c10.108,6.146 21.842,11.75 35.213,16.796c13.354,5.058 27.254,10.121 41.704,15.163c18.046,6.504 36.108,13.917 54.167,22.208c18.046,8.312 34.483,18.604 49.292,30.875c14.796,12.292 26.717,27.271 35.75,44.958c9.029,17.704 13.542,38.833 13.542,63.375c0,23.125 -4.513,44.604 -13.542,64.458c-9.033,19.875 -22.208,37.208 -39.542,52.004c-17.329,14.808 -38.996,26.542 -64.996,35.208c-26.004,8.667 -55.625,13 -88.838,13c-36.833,0 -73.121,-7.046 -108.875,-21.125c-35.75,-14.083 -66.621,-31.588 -92.621,-52.546l58.5,-80.162Z" style="fill:#fff;fill-rule:nonzero;"/></g></svg>