<svg width="75" height="75" viewBox="0 0 75 75" fill="none" xmlns="http://www.w3.org/2000/svg">
<path fill-rule="evenodd" clip-rule="evenodd" d="M22 22C19.2386 22 17 24.2386 17 27V49C17 51.7614 19.2386 54 22 54H52C54.7614 54 57 51.7614 57 49V27C57 24.2386 54.7614 22 52 22H22ZM35.1965 28.437C35.8581 27.3335 37.4573 27.3335 38.1189 28.437L45.0703 40.0312C45.7511 41.1668 44.9331 42.611 43.6091 42.611H40.4914V47.296C40.4914 48.2369 39.7286 48.9997 38.7877 48.9997H34.5284C33.5875 48.9997 32.8247 48.237 32.8247 47.296V42.611H29.7063C28.3823 42.611 27.5643 41.1668 28.2451 40.0312L35.1965 28.437Z" fill="#E15241"/>
</svg>
