<svg width="75" height="75" viewBox="0 0 33 33" fill="none" xmlns="http://www.w3.org/2000/svg">
  <path fill-rule="evenodd" d="M31.68 12.91c-.34 0-.7.1-.82.21-.15.13-.78-.45-2.91-1.53l-3.08-1.84L27 8.06l2.31-1.89-1.1-1.1a17 17 0 0 0-5.09-3.54A17 17 0 0 0 17.09.04c-2.08-.13-4.17.13-6.16.76-1.99.62-3.85 1.61-5.48 2.91-7.27 6.01-7.04 20.31.37 25.83q2.16 1.56 4.68 2.43 2.52.86 5.18.94t5.23-.63q2.56-.71 4.81-2.14c1.7-1.13 3.82-3.21 3.48-3.4-.49-.34-4.38-3.74-4.28-3.78.97-.42 6.13-7.94 6.4-7.87.16.05 1.08-.15 1.31-.44.92-1.21-1.88-2.39-.26-1.52M19.36 6.47c1.48.49 3.18 1.55 4.43 2.8.49.49 2.08 1.59 3.74 2.53l2.95 1.63c1.25.72-5.22 9.64-8.54 11.84a9.7 9.7 0 0 1-4.28 1.62c-1.53.19-3.09.01-4.54-.53a9.7 9.7 0 0 1-3.79-2.56 9.6 9.6 0 0 1-2.18-4.02C4.8 11.46 11.57 4.05 19.36 6.47" fill="current" />
</svg>