<svg width="75" height="75" viewBox="0 0 75 75" fill="none" xmlns="http://www.w3.org/2000/svg">
<path fill-rule="evenodd" clip-rule="evenodd" d="M25.6598 13.1309C21.0352 13.1309 17.2861 16.8799 17.2861 21.5045V49.3817C17.2861 54.0064 21.0352 57.7554 25.6598 57.7554H34.569C34.1785 56.3893 33.9693 54.9466 33.9693 53.4551C33.9693 53.2879 33.972 53.1213 33.9772 52.9554H25.6598C23.6861 52.9554 22.0861 51.3554 22.0861 49.3817V21.5045C22.0861 19.5309 23.6861 17.9309 25.6598 17.9309H45.5721C47.5458 17.9309 49.1458 19.5308 49.1458 21.5045V37.8465C49.2914 37.8424 49.4374 37.8404 49.584 37.8404C51.0979 37.8404 52.5615 38.0559 53.9458 38.4578V21.5045C53.9458 16.8799 50.1967 13.1309 45.5721 13.1309H25.6598ZM44.7917 33.6052C45.729 32.668 45.729 31.1484 44.7917 30.2111C43.8544 29.2739 42.3348 29.2739 41.3976 30.2111L33.8123 37.7964L30.5506 34.5348C29.6134 33.5975 28.0938 33.5975 27.1565 34.5348C26.2193 35.472 26.2193 36.9916 27.1565 37.9289L32.1152 42.8876C33.0525 43.8248 34.5721 43.8248 35.5093 42.8876L44.7917 33.6052Z" fill="current"/>
<path fill-rule="evenodd" clip-rule="evenodd" d="M55.5472 62.6842C53.8344 63.7864 51.7956 64.4258 49.6074 64.4258C43.5371 64.4258 38.6162 59.5049 38.6162 53.4346C38.6162 47.3643 43.5371 42.4434 49.6074 42.4434C55.6777 42.4434 60.5986 47.3643 60.5986 53.4346C60.5986 55.619 59.9614 57.6546 58.8627 59.3656L63.8621 64.365C64.6432 65.1461 64.6432 66.4124 63.8621 67.1935L63.3735 67.6821C62.5924 68.4632 61.3261 68.4632 60.545 67.6821L55.5472 62.6842ZM56.1084 53.4346C56.1084 57.0244 53.1973 59.9355 49.6074 59.9355C46.0166 59.9355 43.1064 57.0244 43.1064 53.4346C43.1064 49.8438 46.0166 46.9336 49.6074 46.9336C53.1973 46.9336 56.1084 49.8438 56.1084 53.4346Z" fill="current"/>
</svg>
