<svg width="75" height="75" viewBox="0 0 75 75" fill="none" xmlns="http://www.w3.org/2000/svg">
<path fill-rule="evenodd" clip-rule="evenodd" d="M54.1525 31.5674H53.7686C51.3909 31.5674 49.3474 30.0571 48.4464 27.8561L48.399 27.7455C47.4778 25.5399 47.8368 23.0115 49.528 21.3207L49.7967 21.052C50.0064 20.8424 50.1727 20.5936 50.2862 20.3197C50.3996 20.0459 50.458 19.7524 50.458 19.456C50.458 19.1596 50.3996 18.8661 50.2862 18.5922C50.1727 18.3184 50.0064 18.0695 49.7967 17.8599C49.5871 17.6503 49.3382 17.4841 49.0643 17.3706C48.7904 17.2572 48.4968 17.1988 48.2003 17.1988C47.9038 17.1988 47.6103 17.2572 47.3363 17.3706C47.0624 17.4841 46.8135 17.6503 46.6039 17.8599L46.3352 18.1286C44.6439 19.8194 42.1149 20.1784 39.9089 19.2573L39.7982 19.2099C37.5989 18.3114 36.0883 16.2571 36.0883 13.88V13.6971C36.0883 12.2591 35.0789 11.25 33.8302 11.25C32.5816 11.25 31.5722 12.2591 31.5722 13.5075V13.5888C31.5722 16.063 30.0819 18.2934 27.7945 19.2393L27.781 19.246C26.6628 19.7088 25.4325 19.8296 24.2457 19.5933C23.0588 19.3571 21.9686 18.7743 21.1131 17.9186L21.0566 17.8622C20.847 17.6526 20.5981 17.4863 20.3242 17.3729C20.0502 17.2595 19.7567 17.2011 19.4602 17.2011C19.1637 17.2011 18.8701 17.2595 18.5962 17.3729C18.3223 17.4863 18.0734 17.6526 17.8638 17.8622C17.6541 18.0718 17.4878 18.3206 17.3744 18.5945C17.2609 18.8683 17.2025 19.1618 17.2025 19.4582C17.2025 19.7546 17.2609 20.0482 17.3744 20.322C17.4878 20.5959 17.6541 20.8447 17.8638 21.0543L17.945 21.1355C18.7933 21.9844 19.3711 23.0654 19.6054 24.2422C19.8397 25.419 19.72 26.6389 19.2615 27.7477L19.2005 27.8922C18.7497 28.9798 17.9865 29.9093 17.0075 30.5635C16.0285 31.2176 14.8775 31.567 13.7 31.5674H13.6977C12.2593 31.5674 11.25 32.5765 11.25 33.8249C11.25 35.0733 12.2593 36.0824 13.508 36.0824H13.6616C14.8506 36.0821 16.0129 36.4346 17.0014 37.0953C17.9898 37.756 18.7599 38.6951 19.2141 39.7937L19.2615 39.9043C19.72 41.0132 19.8397 42.233 19.6054 43.4098C19.3711 44.5866 18.7933 45.6677 17.945 46.5165L17.8638 46.5978C17.4404 47.0211 17.2025 47.5952 17.2025 48.1938C17.2025 48.7925 17.4404 49.3666 17.8638 49.7899C18.2872 50.2132 18.8614 50.451 19.4602 50.451C20.059 50.451 20.6332 50.2132 21.0566 49.7899L21.1379 49.7086C21.9868 48.8603 23.0681 48.2825 24.2452 48.0482C25.4224 47.814 26.6426 47.9338 27.7516 48.3925L28.0745 48.5279C29.1102 48.9554 29.9955 49.6808 30.6182 50.612C31.2409 51.5432 31.5729 52.6384 31.5722 53.7585V53.9504C31.5722 55.3907 32.5816 56.3998 33.8302 56.3998C34.4556 56.3998 35.021 56.1461 35.4296 55.7363C34.4066 53.6975 33.8308 51.3956 33.8308 48.9593C33.8308 40.6008 40.6083 33.8248 48.9689 33.8248C51.3997 33.8248 53.6968 34.3976 55.7323 35.4156C56.1607 35.0078 56.4105 34.446 56.4105 33.8249C56.4105 32.5765 55.4012 31.5674 54.1525 31.5674ZM24.7981 36.0824C24.1993 36.0824 23.6249 35.8445 23.2015 35.4212C22.778 34.9978 22.5401 34.4236 22.5401 33.8249C22.5401 33.2262 22.778 32.652 23.2015 32.2286C23.6249 31.8053 24.1993 31.5674 24.7981 31.5674C25.397 31.5674 25.9714 31.8053 26.3948 32.2286C26.8183 32.652 27.0562 33.2262 27.0562 33.8249C27.0562 34.4236 26.8183 34.9978 26.3948 35.4212C25.9714 35.8445 25.397 36.0824 24.7981 36.0824ZM38.3463 33.8249C37.7531 33.8248 37.1657 33.7078 36.6177 33.4807C36.0697 33.2536 35.5719 32.9208 35.1525 32.5014C34.7331 32.0819 34.4005 31.584 34.1737 31.036C33.9468 30.488 33.8301 29.9007 33.8302 29.3077C33.8304 28.7146 33.9474 28.1274 34.1745 27.5795C34.4017 27.0316 34.7345 26.5339 35.1541 26.1146C35.5737 25.6954 36.0717 25.3628 36.6198 25.136C37.1679 24.9092 37.7554 24.7925 38.3486 24.7927C39.5466 24.793 40.6954 25.2691 41.5424 26.1162C42.3893 26.9634 42.8649 28.1122 42.8646 29.3099C42.8643 30.5077 42.3881 31.6562 41.5408 32.503C40.6934 33.3497 39.5443 33.8252 38.3463 33.8249Z" fill="current"/>
<path fill-rule="evenodd" clip-rule="evenodd" d="M48.968 59.8982C51.1436 59.8982 53.171 59.2633 54.8748 58.1688L59.8445 63.1373C60.6616 63.9542 61.9864 63.9542 62.8035 63.1373L63.1372 62.8038C63.9543 61.9868 63.9543 60.6623 63.1372 59.8454L58.17 54.8795C59.2706 53.1731 59.9093 51.1408 59.9093 48.9594C59.9093 42.9181 55.0107 38.0207 48.968 38.0207C42.9252 38.0207 38.0266 42.9181 38.0266 48.9594C38.0266 55.0007 42.9252 59.8982 48.968 59.8982ZM48.9685 55.5029C52.5832 55.5029 55.5135 52.5733 55.5135 48.9594C55.5135 45.3456 52.5832 42.4159 48.9685 42.4159C45.3538 42.4159 42.4235 45.3456 42.4235 48.9594C42.4235 52.5733 45.3538 55.5029 48.9685 55.5029Z" fill="current"/>
</svg>
