<svg width="75" height="75" viewBox="0 0 75 75" fill="none" xmlns="http://www.w3.org/2000/svg">
<path fill-rule="evenodd" clip-rule="evenodd" d="M46.8274 52.1711C43.1475 54.7816 38.6501 56.3162 33.794 56.3162C21.3433 56.3162 11.25 46.2278 11.25 33.7831C11.25 21.3384 21.3433 11.25 33.794 11.25C46.2447 11.25 56.338 21.3384 56.338 33.7831C56.338 38.6499 54.7944 43.1563 52.1697 46.8399L62.6445 57.3095C64.1185 58.7829 64.1185 61.1716 62.6445 62.645C61.1704 64.1183 58.7805 64.1183 57.3064 62.645L46.8274 52.1711ZM49.3681 33.7832C49.3681 42.3803 42.3954 49.3496 33.7941 49.3496C25.1929 49.3496 18.2202 42.3803 18.2202 33.7832C18.2202 25.1861 25.1929 18.2168 33.7941 18.2168C42.3954 18.2168 49.3681 25.1861 49.3681 33.7832Z" fill="black"/>
</svg>
