<svg width="75" height="75" viewBox="0 0 75 75" fill="none" xmlns="http://www.w3.org/2000/svg">
<path d="M56.1933 18.5838C54.5405 19.3162 52.7651 19.811 50.8985 20.0347C52.8244 18.8823 54.2653 17.0686 54.9523 14.9319C53.1428 16.0067 51.1625 16.7632 49.0973 17.1686C47.7086 15.6858 45.8691 14.703 43.8645 14.3727C41.86 14.0424 39.8024 14.3832 38.0114 15.3422C36.2204 16.3011 34.796 17.8245 33.9595 19.6759C33.123 21.5272 32.9211 23.603 33.3852 25.5809C29.7188 25.3968 26.1321 24.4438 22.8578 22.7839C19.5835 21.1239 16.6949 18.794 14.3794 15.9454C13.5876 17.3111 13.1324 18.8946 13.1324 20.581C13.1315 22.0992 13.5053 23.5941 14.2208 24.9331C14.9362 26.2721 15.9711 27.4138 17.2336 28.257C15.7694 28.2104 14.3375 27.8147 13.0572 27.103V27.2218C13.057 29.351 13.7935 31.4148 15.1418 33.0628C16.49 34.7109 18.3669 35.8417 20.454 36.2635C19.0957 36.6311 17.6717 36.6852 16.2894 36.4218C16.8783 38.2539 18.0253 39.8561 19.57 41.0039C21.1146 42.1517 22.9795 42.7878 24.9036 42.8231C21.6373 45.3872 17.6035 46.778 13.451 46.7719C12.7155 46.7721 11.9805 46.7291 11.25 46.6432C15.465 49.3533 20.3716 50.7916 25.3826 50.786C28.7248 50.786 31.7684 50.2406 34.5015 49.2716C34.35 48.6877 34.236 48.0908 34.1623 47.4835C33.0196 38.1884 40.8425 30.3656 50.1375 31.5082C50.3022 31.5282 50.4661 31.5512 50.6292 31.577C51.2855 29.2405 51.619 26.8625 51.619 24.5516C51.619 24.1557 51.6091 23.7559 51.5913 23.36C53.3951 22.0556 54.9521 20.4403 56.1894 18.5898L56.1933 18.5838Z" fill="current"/>
<path fill-rule="evenodd" clip-rule="evenodd" d="M49.0078 57.147C51.1776 57.147 53.1994 56.5138 54.8986 55.422L59.8549 60.3783C60.6698 61.1932 61.9911 61.1932 62.8061 60.3783L63.1388 60.0455C63.9537 59.2306 63.9537 57.9093 63.1388 57.0943L58.1852 52.1408C59.283 50.4384 59.92 48.411 59.92 46.2348C59.92 40.2081 55.0345 35.3226 49.0078 35.3226C42.9812 35.3226 38.0956 40.2081 38.0956 46.2348C38.0956 52.2614 42.9812 57.147 49.0078 57.147ZM49.0078 52.7625C52.6129 52.7625 55.5354 49.84 55.5354 46.2349C55.5354 42.6298 52.6129 39.7073 49.0078 39.7073C45.4027 39.7073 42.4802 42.6298 42.4802 46.2349C42.4802 49.84 45.4027 52.7625 49.0078 52.7625Z" fill="current"/>
</svg>
