<svg width="75" height="75" viewBox="0 0 75 75" fill="none" xmlns="http://www.w3.org/2000/svg">
<path fill-rule="evenodd" clip-rule="evenodd" d="M11.25 33.6013C11.25 22.0914 20.5705 12.75 32.0805 12.75C43.6113 12.75 52.9527 22.0914 52.9527 33.6013C52.9527 34.3927 52.9085 35.1738 52.8225 35.9423C52.1478 35.8369 51.4563 35.7822 50.752 35.7822C50.0206 35.7822 49.3029 35.8412 48.6036 35.9547C48.7178 35.1855 48.782 34.3998 48.782 33.6013C48.782 32.1626 48.5735 30.7655 48.2399 29.431H41.1921C41.3589 30.8072 41.484 32.1834 41.484 33.6013C41.484 35.0192 41.3589 36.3954 41.1921 37.7716H43.7484C39.9625 40.1185 37.4411 44.3114 37.4411 49.0931C37.4411 50.6531 37.7094 52.1503 38.2025 53.5413C36.2666 54.1338 34.2109 54.4527 32.0805 54.4527C20.5705 54.4527 11.25 45.1113 11.25 33.6013ZM40.3788 25.2608H46.5299C44.5282 21.8203 41.338 19.1513 37.5013 17.8377C38.7524 20.1522 39.7116 22.6544 40.3788 25.2608ZM32.1008 17.0036C33.8315 19.5058 35.1868 22.279 36.0834 25.2608H28.1182C29.0148 22.279 30.3701 19.5058 32.1008 17.0036ZM15.4198 33.6013C15.4198 35.04 15.6283 36.4371 15.962 37.7716H23.0097C22.8429 36.3954 22.7178 35.0192 22.7178 33.6013C22.7178 32.1834 22.8429 30.8072 23.0097 29.431H15.962C15.6283 30.7655 15.4198 32.1626 15.4198 33.6013ZM17.6716 41.9418H23.8228C24.49 44.5483 25.4492 47.0504 26.7003 49.3649C22.8636 48.0513 19.6734 45.4032 17.6716 41.9418ZM17.6716 25.2608H23.8228C24.49 22.6544 25.4492 20.1522 26.7003 17.8377C22.8636 19.1513 19.6734 21.7994 17.6716 25.2608ZM32.1008 50.199C30.3701 47.6968 29.0148 44.9236 28.1182 41.9418H36.0834C35.1868 44.9236 33.8315 47.6968 32.1008 50.199ZM27.2216 37.7716H36.9801C37.1677 36.3954 37.3137 35.0192 37.3137 33.6013C37.3137 32.1834 37.1677 30.7864 36.9801 29.431H27.2216C27.034 30.7864 26.888 32.1834 26.888 33.6013C26.888 35.0192 27.034 36.3954 27.2216 37.7716Z" fill="black"/>
<path fill-rule="evenodd" clip-rule="evenodd" d="M50.7521 58.714C52.6652 58.714 54.4478 58.1556 55.946 57.1929L60.3159 61.5628C61.0344 62.2813 62.1993 62.2813 62.9178 61.5628L63.2111 61.2694C63.9296 60.5509 63.9296 59.386 63.2111 58.6675L58.8435 54.2999C59.8112 52.7991 60.3728 51.0118 60.3728 49.0933C60.3728 43.7799 56.0655 39.4726 50.7521 39.4726C45.4387 39.4726 41.1314 43.7799 41.1314 49.0933C41.1314 54.4066 45.4387 58.714 50.7521 58.714ZM50.7527 54.8482C53.9311 54.8482 56.5077 52.2716 56.5077 49.0932C56.5077 45.9148 53.9311 43.3382 50.7527 43.3382C47.5742 43.3382 44.9976 45.9148 44.9976 49.0932C44.9976 52.2716 47.5742 54.8482 50.7527 54.8482Z" fill="black"/>
</svg>
