<svg width="100" height="100" viewBox="0 0 100 100" fill="none" xmlns="http://www.w3.org/2000/svg">
<path fill-rule="evenodd" clip-rule="evenodd" d="M20.8335 38.6042C20.8335 22.4792 33.8752 9.4375 50.0002 9.4375C66.1252 9.4375 79.1668 22.4792 79.1668 38.6042C79.1668 55.9792 60.7502 79.9375 53.2085 89.0625C51.5418 91.0625 48.5002 91.0625 46.8335 89.0625C39.2502 79.9375 20.8335 55.9792 20.8335 38.6042ZM39.5835 38.6042C39.5835 44.3542 44.2502 49.0208 50.0002 49.0208C55.7502 49.0208 60.4168 44.3542 60.4168 38.6042C60.4168 32.8542 55.7502 28.1875 50.0002 28.1875C44.2502 28.1875 39.5835 32.8542 39.5835 38.6042Z" fill="#51A5B2"/>
</svg>
